<?xml version="1.0" encoding="utf-8"?>
<!-- Generator: Adobe Illustrator 16.0.0, SVG Export Plug-In . SVG Version: 6.00 Build 0)  -->
<!DOCTYPE svg PUBLIC "-//W3C//DTD SVG 1.1//EN" "http://www.w3.org/Graphics/SVG/1.1/DTD/svg11.dtd">
<svg version="1.1" id="Layer_1" xmlns="http://www.w3.org/2000/svg" xmlns:xlink="http://www.w3.org/1999/xlink" x="0px" y="0px"
	 width="16px" height="16px" viewBox="0 0 16 16" enable-background="new 0 0 16 16" xml:space="preserve">
<polygon fill="#F6A84A" points="4.954,1.966 5.716,3.284 6.476,4.6 9.521,4.6 9.523,4.6 10.283,3.284 11.046,1.966 "/>
<polygon fill="#E15D45" points="11.046,1.966 10.285,3.284 9.523,4.6 12.566,4.6 12.568,4.598 15.612,4.598 14.853,3.284 
	14.091,1.966 "/>
<rect x="14.089" y="3.076" fill="#E15D45" width="0.003" height="3.046"/>
<polygon fill="#B0A2CF" points="12.568,9.863 12.568,9.865 12.566,9.865 11.809,11.18 11.047,12.496 8.001,12.496 8.764,11.18 
	9.523,9.865 11.047,7.23 11.809,8.547 "/>
<polygon fill="#D9A2C9" points="12.568,4.598 12.566,4.6 11.809,5.916 11.047,7.23 11.809,8.547 12.568,9.863 13.33,8.547 
	14.091,7.23 14.092,7.23 14.853,5.914 15.612,4.6 15.614,4.598 "/>
<polygon fill="#69B661" points="0.386,4.6 1.147,5.917 1.909,7.232 2.67,8.549 3.432,9.865 4.192,8.549 4.954,7.234 4.954,7.232 
	4.192,5.917 3.43,4.6 "/>
<rect x="6.477" y="10.975" fill="#6DC5D8" width="0.003" height="3.043"/>
<polygon fill="#6DC5D8" points="7.999,12.496 4.956,12.496 4.954,12.498 4.194,11.182 3.432,9.867 3.432,9.865 4.192,8.549 
	4.954,7.234 5.716,8.549 6.476,9.867 7.238,11.184 "/>
<polygon fill="#FFD631" points="1.909,1.966 1.909,1.968 1.147,3.284 0.386,4.6 6.476,4.6 5.716,3.284 4.954,1.966 "/>
<rect x="6.477" y="10.975" fill="#5BADDD" width="0.003" height="3.043"/>
<polygon fill="#5BADDD" points="4.958,12.498 5.716,13.813 6.476,15.127 6.478,15.127 9.523,15.127 9.523,15.125 10.285,13.814 
	11.047,12.498 "/>
<polygon fill="#5BADDD" points="6.984,15.127 9.523,15.129 9.523,15.127 "/>
</svg>
