<?xml version="1.0" encoding="utf-8"?>
<!-- Generated by IcoMoon.io -->
<!DOCTYPE svg PUBLIC "-//W3C//DTD SVG 1.1//EN" "http://www.w3.org/Graphics/SVG/1.1/DTD/svg11.dtd">
<svg version="1.1" xmlns="http://www.w3.org/2000/svg" xmlns:xlink="http://www.w3.org/1999/xlink" width="88" height="24" viewBox="0 0 88 24">
<path fill="#444444" d="M23.513 13.745c0.696-0.383 0.998-0.921 0.998-1.746v-1.135c0-1.654-0.993-2.459-3.034-2.459h-4.148c-0.157 0-0.285 0.127-0.285 0.285v10.632c0 0.157 0.127 0.285 0.285 0.285h4.444c1.981 0 3.117-0.962 3.117-2.639v-1.168c-0-1-0.508-1.747-1.376-2.054zM19.361 10.36h1.869c0.847 0 0.964 0.368 0.964 0.766v0.971c0 0.629-0.293 0.898-0.98 0.898h-0.405c-0.157 0-0.285 0.127-0.285 0.285v1.336c0 0.157 0.128 0.285 0.285 0.285h0.734c0.731 0 1.030 0.284 1.030 0.98v0.823c0 0.708-0.306 0.947-1.211 0.947h-2v-7.291zM1.84 13.572c0.236 0.144 0.738 0.298 1.436 0.298h0.001c0.339 0 0.665-0.037 0.942-0.107 0.031-0.008 0.054-0.035 0.057-0.067 0.042-0.523 0.191-1.047 0.43-1.517 0.009-0.018 0.011-0.039 0.004-0.059s-0.021-0.035-0.040-0.044c-0.274-0.127-0.558-0.295-0.82-0.485-0.403-0.293-0.744-0.623-0.986-0.957-0.018-0.024-0.048-0.036-0.077-0.029s-0.052 0.030-0.058 0.059c-0.089 0.458-0.214 0.935-0.371 1.419-0.16 0.493-0.344 0.962-0.546 1.393-0.016 0.035-0.004 0.076 0.029 0.096zM4.851 16.214c0.021-0.025 0.023-0.060 0.006-0.088-0.221-0.362-0.384-0.754-0.483-1.166-0.024-0.103-0.045-0.209-0.062-0.314-0.003-0.020-0.014-0.038-0.031-0.050s-0.038-0.016-0.058-0.012c-0.295 0.058-0.623 0.089-0.948 0.089-0.498 0-0.968-0.067-1.361-0.195-0.029-0.009-0.060-0.001-0.080 0.022s-0.025 0.055-0.012 0.082c0.197 0.423 0.377 0.883 0.534 1.367 0.16 0.493 0.287 0.98 0.377 1.448 0.007 0.036 0.038 0.061 0.074 0.061 0.002 0 0.004 0 0.006-0 0.277-0.023 0.773-0.193 1.337-0.603 0.274-0.199 0.516-0.421 0.7-0.641zM8.958 8.012c-0.023-0.052-0.070-0.090-0.126-0.102l-3.598-0.747c-0.072-0.015-0.146 0.016-0.185 0.078s-0.037 0.142 0.006 0.201l0.541 0.737c-0.297 0.265-0.623 0.527-0.965 0.775-0.42 0.305-0.844 0.576-1.261 0.806-0.034 0.019-0.048 0.059-0.033 0.095 0.107 0.256 0.422 0.675 0.986 1.085 0.275 0.199 0.56 0.361 0.827 0.468 0.009 0.004 0.019 0.005 0.028 0.005 0.022 0 0.043-0.009 0.057-0.026 0.368-0.431 0.824-0.778 1.334-1.020l0.182 0.916c0.014 0.072 0.072 0.128 0.144 0.141 0.010 0.001 0.020 0.002 0.030 0.002 0.062 0 0.12-0.032 0.153-0.087l1.87-3.164c0.029-0.049 0.033-0.11 0.009-0.162zM6.777 17.758c-0.494-0.203-0.953-0.509-1.329-0.883-0.014-0.015-0.034-0.022-0.055-0.022s-0.040 0.009-0.054 0.024c-0.205 0.221-0.452 0.438-0.715 0.629-0.403 0.293-0.823 0.514-1.216 0.642-0.029 0.009-0.049 0.034-0.052 0.064s0.012 0.059 0.039 0.073c0.408 0.227 0.824 0.493 1.236 0.792 0.426 0.31 0.82 0.634 1.171 0.963 0.014 0.014 0.033 0.021 0.052 0.021s0.035-0.006 0.050-0.019c0.214-0.187 0.518-0.622 0.732-1.28 0.104-0.321 0.169-0.643 0.188-0.93 0.002-0.033-0.017-0.063-0.046-0.075zM14.815 14.439c-0.237-0.144-0.738-0.298-1.436-0.298-0.339 0-0.665 0.037-0.942 0.107-0.031 0.008-0.054 0.035-0.057 0.067-0.042 0.522-0.191 1.047-0.43 1.517-0.009 0.018-0.011 0.040-0.004 0.059s0.021 0.035 0.040 0.044c0.274 0.127 0.558 0.295 0.82 0.485 0.403 0.293 0.744 0.624 0.986 0.957 0.014 0.020 0.037 0.031 0.061 0.031 0.005 0 0.011-0.001 0.016-0.002 0.029-0.007 0.052-0.030 0.058-0.059 0.089-0.457 0.214-0.935 0.371-1.419 0.161-0.493 0.344-0.962 0.546-1.393 0.016-0.035 0.004-0.077-0.029-0.096zM11.804 11.797c-0.021 0.025-0.023 0.060-0.006 0.088 0.221 0.362 0.384 0.754 0.483 1.166 0.025 0.103 0.045 0.208 0.062 0.314 0.003 0.020 0.014 0.038 0.031 0.050s0.038 0.016 0.058 0.012c0.295-0.059 0.623-0.089 0.948-0.089 0.498 0 0.968 0.068 1.361 0.195 0.008 0.003 0.016 0.004 0.023 0.004h0.001c0.042 0.002 0.076-0.034 0.076-0.075 0-0.017-0.006-0.033-0.015-0.045-0.195-0.419-0.372-0.875-0.528-1.354-0.16-0.493-0.287-0.98-0.377-1.448-0.007-0.038-0.042-0.064-0.080-0.061-0.276 0.023-0.773 0.193-1.337 0.603-0.274 0.199-0.516 0.421-0.7 0.642zM9.878 10.275c0.494 0.203 0.953 0.508 1.329 0.883 0.014 0.014 0.033 0.022 0.053 0.022h0.001c0.020-0 0.040-0.009 0.054-0.024 0.205-0.221 0.452-0.439 0.715-0.629 0.403-0.293 0.823-0.515 1.216-0.642 0.029-0.009 0.049-0.035 0.052-0.064s-0.012-0.059-0.038-0.073c-0.408-0.226-0.824-0.493-1.236-0.792-0.426-0.309-0.82-0.634-1.171-0.963-0.028-0.027-0.072-0.027-0.101-0.002-0.214 0.187-0.518 0.622-0.732 1.28-0.104 0.321-0.169 0.643-0.188 0.93-0.002 0.032 0.017 0.063 0.047 0.075zM12.332 17.071c-0.275-0.2-0.56-0.361-0.827-0.468-0.030-0.012-0.064-0.004-0.086 0.021-0.368 0.431-0.824 0.778-1.334 1.020l-0.182-0.916c-0.014-0.072-0.072-0.128-0.144-0.14s-0.145 0.021-0.183 0.085l-1.87 3.164c-0.029 0.049-0.033 0.11-0.009 0.162s0.070 0.090 0.126 0.102l3.598 0.747c0.012 0.003 0.024 0.004 0.036 0.004 0.097 0.002 0.179-0.079 0.179-0.177 0-0.047-0.019-0.091-0.049-0.122l-0.528-0.719c0.297-0.265 0.623-0.527 0.964-0.775 0.42-0.305 0.844-0.576 1.261-0.806 0.034-0.019 0.048-0.060 0.033-0.095-0.107-0.255-0.422-0.675-0.986-1.085zM19.496 1.329c-0.014-0.044-0.055-0.074-0.101-0.074h-0.993c-0.047 0-0.088 0.030-0.102 0.074l-1.253 3.974c-0.010 0.032-0.005 0.068 0.016 0.095s0.052 0.043 0.086 0.043h0.684c0.047 0 0.089-0.031 0.102-0.076l0.863-2.923c0 0 0.023-0.073 0.101-0.073 0.079 0 0.099 0.076 0.099 0.076l0.4 1.386h-0.55c-0.047 0-0.089 0.032-0.102 0.078l-0.154 0.549c-0.009 0.032-0.003 0.067 0.018 0.093s0.052 0.042 0.085 0.042h0.928l0.241 0.774c0.014 0.045 0.055 0.075 0.102 0.075h0.684c0.034 0 0.066-0.016 0.086-0.043s0.026-0.063 0.016-0.095l-1.253-3.974zM22.475 4.829c-0.004-0.030-0.021-0.056-0.046-0.073s-0.056-0.022-0.085-0.015c-0.111 0.028-0.217 0.043-0.299 0.043-0.155 0-0.225-0.068-0.225-0.219v-1.523h0.611c0.059 0 0.107-0.047 0.107-0.106v-0.475c0-0.059-0.048-0.107-0.107-0.107h-0.611v-0.733c0-0.031-0.013-0.060-0.037-0.080s-0.054-0.029-0.085-0.025l-0.629 0.088c-0.053 0.007-0.092 0.052-0.092 0.105v0.646h-0.342c-0.059 0-0.106 0.048-0.106 0.107v0.475c0 0.059 0.048 0.106 0.106 0.106h0.342v1.621c0 0.557 0.293 0.839 0.87 0.839 0.164 0 0.443-0.038 0.625-0.101 0.048-0.017 0.078-0.066 0.071-0.116l-0.069-0.456zM23.639 1.172h-0.629c-0.059 0-0.107 0.047-0.107 0.107v4.057c0 0.059 0.048 0.107 0.107 0.107h0.629c0.058 0 0.107-0.047 0.107-0.107v-4.057c0-0.059-0.048-0.107-0.107-0.107zM25.256 2.294c-0.318 0-0.706 0.050-0.987 0.128-0.052 0.015-0.086 0.066-0.077 0.12l0.074 0.456c0.005 0.028 0.020 0.054 0.044 0.071s0.053 0.023 0.081 0.017c0.261-0.051 0.532-0.079 0.76-0.079 0.454 0 0.526 0.096 0.526 0.403v0.268h-0.674c-0.644 0-0.919 0.266-0.919 0.888 0 0.596 0.301 0.938 0.826 0.938 0.304 0 0.608-0.084 0.864-0.239l0.027 0.099c0.012 0.046 0.055 0.078 0.102 0.078h0.508c0.058 0 0.107-0.048 0.107-0.107v-1.913c0-0.823-0.343-1.128-1.263-1.128zM25.678 4.31v0.37c-0.104 0.056-0.293 0.135-0.52 0.135-0.196 0-0.256-0.060-0.256-0.256 0-0.19 0.037-0.25 0.268-0.25h0.508zM28.095 3.531c-0.39-0.1-0.39-0.105-0.39-0.319 0-0.144 0.014-0.213 0.336-0.213 0.22 0 0.545 0.039 0.754 0.074 0.029 0.005 0.058-0.002 0.082-0.020s0.039-0.043 0.042-0.072l0.059-0.479c0.007-0.054-0.029-0.104-0.082-0.117-0.241-0.056-0.577-0.092-0.855-0.092-0.967 0-1.165 0.365-1.165 0.913 0 0.602 0.112 0.805 0.853 0.985 0.488 0.117 0.488 0.205 0.488 0.349 0 0.19-0.016 0.256-0.336 0.256-0.257 0-0.555-0.040-0.817-0.11-0.029-0.008-0.059-0.003-0.084 0.013s-0.043 0.041-0.048 0.071l-0.083 0.454c-0.010 0.053 0.021 0.104 0.072 0.121 0.285 0.093 0.695 0.157 0.997 0.157 0.936 0 1.128-0.392 1.128-0.981 0-0.65-0.116-0.77-0.951-0.991zM30.524 3.531c-0.39-0.1-0.39-0.105-0.39-0.319 0-0.144 0.014-0.213 0.336-0.213 0.22 0 0.545 0.039 0.754 0.074 0.029 0.005 0.058-0.002 0.081-0.020s0.039-0.043 0.042-0.072l0.059-0.479c0.007-0.054-0.028-0.104-0.082-0.117-0.241-0.056-0.577-0.092-0.855-0.092-0.967 0-1.165 0.365-1.165 0.913 0 0.602 0.112 0.805 0.853 0.985 0.488 0.117 0.488 0.205 0.488 0.349 0 0.19-0.016 0.256-0.336 0.256-0.257 0-0.555-0.040-0.816-0.11-0.029-0.008-0.059-0.003-0.085 0.013s-0.042 0.041-0.048 0.071l-0.083 0.454c-0.010 0.053 0.021 0.104 0.072 0.121 0.286 0.093 0.695 0.157 0.997 0.157 0.936 0 1.128-0.392 1.128-0.981 0-0.65-0.116-0.77-0.95-0.991zM32.558 1.173h-0.629c-0.059 0-0.107 0.048-0.107 0.107v0.558c0 0.059 0.048 0.106 0.107 0.106h0.629c0.059 0 0.106-0.048 0.106-0.106v-0.558c-0-0.059-0.048-0.107-0.106-0.107zM32.558 2.355h-0.629c-0.059 0-0.107 0.048-0.107 0.107v2.873c0 0.059 0.048 0.106 0.107 0.106h0.629c0.059 0 0.106-0.048 0.106-0.106v-2.873c-0-0.059-0.048-0.107-0.106-0.107zM34.191 2.294c-0.318 0-0.706 0.050-0.987 0.128-0.052 0.015-0.085 0.066-0.077 0.12l0.073 0.456c0.005 0.028 0.021 0.054 0.044 0.071s0.053 0.023 0.081 0.017c0.261-0.051 0.531-0.079 0.76-0.079 0.454 0 0.526 0.096 0.526 0.403v0.268h-0.674c-0.644 0-0.919 0.266-0.919 0.888 0 0.596 0.301 0.938 0.827 0.938 0.304 0 0.608-0.084 0.864-0.239l0.027 0.099c0.013 0.046 0.055 0.078 0.103 0.078h0.508c0.059 0 0.107-0.048 0.107-0.107v-1.913c0-0.823-0.343-1.128-1.264-1.128zM34.612 4.31v0.37c-0.104 0.056-0.293 0.135-0.52 0.135-0.196 0-0.256-0.060-0.256-0.256 0-0.19 0.037-0.25 0.268-0.25h0.508zM37.779 2.294c-0.333 0-0.787 0.115-1.17 0.295l-0.046-0.157c-0.013-0.045-0.055-0.076-0.102-0.076h-0.465c-0.059 0-0.106 0.048-0.106 0.107v2.873c0 0.059 0.048 0.106 0.106 0.106h0.629c0.059 0 0.106-0.047 0.106-0.106v-1.99c0.226-0.115 0.545-0.234 0.735-0.234 0.141 0 0.194 0.053 0.194 0.194v2.030c0 0.059 0.047 0.106 0.107 0.106h0.629c0.059 0 0.107-0.047 0.107-0.106v-2.11c0-0.618-0.243-0.931-0.722-0.931zM28.921 11.185c-0.852 0-1.888 0.134-2.64 0.342-0.14 0.039-0.228 0.177-0.205 0.32l0.197 1.221c0.012 0.076 0.055 0.144 0.118 0.188s0.142 0.061 0.217 0.046c0.7-0.136 1.421-0.211 2.033-0.211 1.214 0 1.408 0.256 1.408 1.079v0.717h-1.803c-1.723 0-2.458 0.711-2.458 2.376 0 1.594 0.806 2.508 2.212 2.508 0.813 0 1.627-0.226 2.311-0.638l0.072 0.264c0.034 0.124 0.146 0.21 0.275 0.21h1.358c0.157 0 0.285-0.127 0.285-0.285v-5.118c0-2.2-0.916-3.018-3.38-3.018zM30.049 16.579v0.99c-0.279 0.149-0.784 0.361-1.392 0.361-0.524 0-0.684-0.16-0.684-0.684 0-0.509 0.099-0.668 0.717-0.668h1.359zM43.58 11.185c-0.907 0-2.167 0.325-3.172 0.815-0.308-0.541-0.834-0.815-1.566-0.815-0.892 0-2.106 0.307-3.132 0.789l-0.123-0.42c-0.036-0.122-0.147-0.205-0.273-0.205h-1.246c-0.157 0-0.285 0.127-0.285 0.285v7.687c0 0.157 0.127 0.285 0.285 0.285h1.682c0.157 0 0.285-0.127 0.285-0.285v-5.324c0.606-0.308 1.458-0.627 1.967-0.627 0.379 0 0.52 0.141 0.52 0.52v5.431c0 0.157 0.127 0.285 0.285 0.285h1.682c0.157 0 0.285-0.127 0.285-0.285v-5.327c0.607-0.336 1.508-0.624 1.967-0.624 0.379 0 0.52 0.141 0.52 0.52v5.431c0 0.157 0.127 0.285 0.285 0.285h1.682c0.157 0 0.285-0.127 0.285-0.285v-5.645c0-1.653-0.65-2.491-1.932-2.491zM51.576 11.185c-0.834 0-1.676 0.206-2.247 0.42v-3.118c0-0.157-0.127-0.285-0.285-0.285h-1.682c-0.157 0-0.285 0.127-0.285 0.285v10.747c0 0.138 0.098 0.255 0.234 0.28 1.038 0.189 2.264 0.256 2.998 0.256 3.16 0 3.808-1.344 3.808-3.363v-2.352c-0-1.904-0.855-2.87-2.541-2.87zM50.407 17.816c-0.426 0-0.78-0.017-1.079-0.052v-4.207c0.463-0.207 1.115-0.417 1.638-0.417 0.638 0 0.898 0.25 0.898 0.865v2.468c0 0.89-0.225 1.342-1.457 1.342zM58.757 11.185c-2.362 0-3.61 1.135-3.61 3.281v2.023c0 2.146 1.248 3.281 3.61 3.281s3.61-1.134 3.61-3.281v-2.023c-0-2.147-1.248-3.281-3.61-3.281zM57.398 14.401c0-0.883 0.406-1.26 1.359-1.26s1.359 0.377 1.359 1.26v2.155c0 0.883-0.406 1.26-1.359 1.26s-1.359-0.377-1.359-1.26v-2.155zM66.927 11.185c-2.362 0-3.61 1.135-3.61 3.281v2.023c0 2.146 1.248 3.281 3.61 3.281s3.61-1.134 3.61-3.281v-2.023c0-2.147-1.248-3.281-3.61-3.281zM65.568 14.401c0-0.883 0.406-1.26 1.359-1.26s1.359 0.377 1.359 1.26v2.155c0 0.883-0.406 1.26-1.359 1.26s-1.359-0.377-1.359-1.26v-2.155z"></path>
</svg>
