<?xml version="1.0" encoding="utf-8"?>
<!-- Generated by IcoMoon.io -->
<!DOCTYPE svg PUBLIC "-//W3C//DTD SVG 1.1//EN" "http://www.w3.org/Graphics/SVG/1.1/DTD/svg11.dtd">
<svg version="1.1" xmlns="http://www.w3.org/2000/svg" xmlns:xlink="http://www.w3.org/1999/xlink" width="88" height="24" viewBox="0 0 88 24">
<path fill="#444444" d="M19.52 1.321c-0.014-0.044-0.055-0.074-0.101-0.074h-0.992c-0.047 0-0.088 0.030-0.101 0.074l-1.251 3.968c-0.010 0.032-0.005 0.067 0.016 0.094s0.052 0.044 0.086 0.044h0.682c0.047 0 0.089-0.031 0.102-0.076l0.862-2.918c0 0 0.023-0.073 0.101-0.073 0.080 0 0.099 0.076 0.099 0.076l0.4 1.383h-0.537c-0.047 0-0.089 0.032-0.102 0.078l-0.154 0.547c-0.009 0.032-0.002 0.067 0.018 0.093s0.051 0.042 0.085 0.042h0.914l0.241 0.773c0.014 0.044 0.055 0.075 0.102 0.075h0.683c0.034 0 0.066-0.016 0.086-0.044s0.026-0.062 0.016-0.094l-1.251-3.968zM22.494 4.815c-0.005-0.029-0.021-0.056-0.046-0.073s-0.055-0.022-0.085-0.015c-0.111 0.027-0.217 0.043-0.299 0.043-0.155 0-0.225-0.067-0.225-0.218v-1.521h0.61c0.058 0 0.107-0.047 0.107-0.106v-0.474c0-0.058-0.048-0.106-0.107-0.106h-0.61v-0.732c0-0.030-0.013-0.060-0.036-0.080s-0.054-0.029-0.085-0.025l-0.628 0.088c-0.053 0.007-0.092 0.053-0.092 0.105v0.645h-0.341c-0.059 0-0.107 0.048-0.107 0.106v0.474c0 0.059 0.048 0.106 0.107 0.106h0.341v1.619c0 0.556 0.292 0.838 0.869 0.838 0.164 0 0.442-0.038 0.625-0.101 0.048-0.017 0.078-0.066 0.070-0.117l-0.069-0.455zM23.656 1.162h-0.627c-0.059 0-0.106 0.047-0.106 0.106v4.052c0 0.058 0.047 0.106 0.106 0.106h0.627c0.059 0 0.106-0.048 0.106-0.106v-4.052c0-0.059-0.047-0.106-0.106-0.106zM25.27 2.284c-0.318 0-0.705 0.050-0.985 0.128-0.053 0.015-0.086 0.066-0.076 0.119l0.073 0.456c0.005 0.029 0.021 0.054 0.044 0.070s0.053 0.023 0.081 0.018c0.261-0.051 0.53-0.079 0.758-0.079 0.453 0 0.525 0.095 0.525 0.402v0.268h-0.673c-0.643 0-0.917 0.266-0.917 0.887 0 0.595 0.301 0.936 0.826 0.936 0.303 0 0.607-0.084 0.863-0.238l0.027 0.099c0.013 0.046 0.054 0.078 0.103 0.078h0.507c0.058 0 0.106-0.048 0.106-0.106v-1.91c0-0.821-0.342-1.126-1.261-1.126zM25.691 4.297v0.369c-0.104 0.055-0.292 0.135-0.519 0.135-0.196 0-0.255-0.060-0.255-0.256 0-0.19 0.036-0.249 0.267-0.249h0.507zM28.104 3.52c-0.389-0.1-0.389-0.104-0.389-0.318 0-0.143 0.014-0.213 0.335-0.213 0.22 0 0.544 0.039 0.753 0.074 0.029 0.005 0.058-0.002 0.081-0.019s0.039-0.043 0.042-0.072l0.059-0.478c0.006-0.054-0.028-0.105-0.082-0.117-0.24-0.056-0.576-0.093-0.853-0.093-0.965 0-1.163 0.364-1.163 0.911 0 0.601 0.112 0.803 0.851 0.984 0.487 0.117 0.487 0.204 0.487 0.349 0 0.189-0.016 0.255-0.335 0.255-0.257 0-0.554-0.040-0.815-0.11-0.029-0.007-0.059-0.003-0.084 0.013s-0.042 0.041-0.048 0.070l-0.083 0.454c-0.010 0.053 0.021 0.104 0.072 0.12 0.285 0.093 0.694 0.157 0.995 0.157 0.935 0 1.126-0.391 1.126-0.979 0-0.649-0.115-0.769-0.949-0.99zM30.53 3.52c-0.39-0.1-0.39-0.104-0.39-0.318 0-0.143 0.014-0.213 0.335-0.213 0.22 0 0.544 0.039 0.752 0.074 0.029 0.005 0.058-0.002 0.082-0.019s0.039-0.043 0.042-0.072l0.059-0.478c0.007-0.054-0.029-0.105-0.081-0.117-0.242-0.056-0.576-0.093-0.854-0.093-0.965 0-1.163 0.364-1.163 0.911 0 0.601 0.112 0.803 0.852 0.984 0.487 0.117 0.487 0.204 0.487 0.349 0 0.189-0.016 0.255-0.334 0.255-0.257 0-0.554-0.040-0.816-0.11-0.028-0.007-0.059-0.003-0.084 0.013s-0.042 0.041-0.048 0.070l-0.083 0.454c-0.009 0.053 0.021 0.104 0.072 0.12 0.285 0.093 0.694 0.157 0.995 0.157 0.934 0 1.127-0.391 1.127-0.979 0-0.649-0.116-0.769-0.949-0.99zM32.561 1.162h-0.628c-0.058 0-0.106 0.048-0.106 0.106v0.557c0 0.059 0.048 0.107 0.106 0.107h0.628c0.058 0 0.107-0.048 0.107-0.107v-0.557c0-0.058-0.048-0.106-0.107-0.106zM32.561 2.345h-0.628c-0.058 0-0.106 0.048-0.106 0.106v2.869c0 0.058 0.048 0.106 0.106 0.106h0.628c0.058 0 0.107-0.048 0.107-0.106v-2.869c0-0.058-0.048-0.106-0.107-0.106zM34.19 2.284c-0.318 0-0.704 0.050-0.985 0.128-0.052 0.015-0.085 0.066-0.076 0.119l0.073 0.456c0.005 0.029 0.021 0.054 0.044 0.070s0.053 0.023 0.081 0.018c0.261-0.051 0.531-0.079 0.759-0.079 0.453 0 0.526 0.095 0.526 0.402v0.268h-0.673c-0.643 0-0.918 0.266-0.918 0.887 0 0.595 0.301 0.936 0.826 0.936 0.303 0 0.607-0.084 0.863-0.238l0.027 0.099c0.012 0.046 0.054 0.078 0.102 0.078h0.507c0.058 0 0.107-0.048 0.107-0.106v-1.91c0-0.821-0.342-1.126-1.262-1.126zM34.611 4.297v0.37c-0.104 0.055-0.292 0.135-0.519 0.135-0.196 0-0.255-0.060-0.255-0.256 0-0.19 0.037-0.249 0.268-0.249h0.507zM37.773 2.284c-0.332 0-0.785 0.115-1.169 0.294l-0.046-0.157c-0.013-0.045-0.055-0.076-0.102-0.076h-0.465c-0.059 0-0.107 0.048-0.107 0.106v2.869c0 0.058 0.048 0.106 0.107 0.106h0.628c0.059 0 0.106-0.048 0.106-0.106v-1.987c0.226-0.115 0.544-0.234 0.734-0.234 0.141 0 0.194 0.053 0.194 0.194v2.027c0 0.058 0.048 0.106 0.107 0.106h0.627c0.059 0 0.107-0.048 0.107-0.106v-2.107c0-0.616-0.242-0.929-0.721-0.929zM39.596 11.171c-0.834 0-1.676 0.206-2.247 0.42v-3.124c0-0.157-0.128-0.284-0.285-0.284h-1.684c-0.157 0-0.283 0.127-0.283 0.284v10.758c0 0.136 0.098 0.255 0.233 0.28 1.039 0.19 2.264 0.256 3 0.256 3.162 0 3.809-1.344 3.809-3.364v-2.355c0-1.906-0.856-2.871-2.543-2.871zM38.428 17.804c-0.426 0-0.78-0.016-1.079-0.052v-4.209c0.464-0.208 1.116-0.417 1.639-0.417 0.638 0 0.898 0.25 0.898 0.865v2.469c0 0.891-0.225 1.344-1.459 1.344zM49.886 11.335h-1.682c-0.157 0-0.284 0.128-0.284 0.283v5.329c-0.606 0.307-1.46 0.626-1.969 0.626-0.379 0-0.519-0.14-0.519-0.519v-5.436c0-0.155-0.129-0.283-0.288-0.283h-1.68c-0.159 0-0.285 0.128-0.285 0.283v5.651c0 1.653 0.65 2.491 1.932 2.491 0.892 0 2.107-0.307 3.132-0.789l0.124 0.42c0.037 0.122 0.146 0.205 0.274 0.205l1.245-0c0.157 0 0.285-0.128 0.285-0.284v-7.693c-0-0.155-0.128-0.283-0.285-0.283zM56.661 17.854c-0.011-0.079-0.057-0.149-0.12-0.194-0.066-0.044-0.148-0.059-0.225-0.042-0.482 0.11-0.989 0.169-1.464 0.169-1.066 0-1.375-0.272-1.375-1.211v-2.224c0-0.94 0.309-1.212 1.375-1.212 0.254 0 0.885 0.036 1.464 0.169 0.077 0.018 0.159 0.003 0.225-0.043 0.065-0.044 0.111-0.114 0.12-0.194l0.2-1.331c0.020-0.14-0.063-0.274-0.2-0.314-0.649-0.191-1.409-0.259-1.858-0.259-2.543 0-3.58 0.926-3.58 3.199v2.19c0 2.272 1.037 3.199 3.58 3.199 0.617 0 1.329-0.099 1.858-0.258 0.137-0.041 0.22-0.175 0.2-0.315l-0.2-1.333zM68.254 11.171c-2.257 0-3.449 1.124-3.449 3.249v2.124c0 2.194 1.118 3.216 3.516 3.216 0.975 0 2.016-0.171 2.854-0.467 0.133-0.048 0.213-0.188 0.185-0.327l-0.25-1.204c-0.017-0.077-0.065-0.146-0.131-0.185-0.068-0.041-0.15-0.052-0.225-0.030-0.774 0.218-1.508 0.325-2.251 0.325-1.226 0-1.444-0.397-1.444-1.228v-0.291h4.178c0.159 0 0.285-0.126 0.285-0.285v-1.549c0-2.284-1.037-3.347-3.266-3.347zM67.058 14.495v-0.273c0-0.793 0.387-1.162 1.213-1.162 0.913 0 1.095 0.445 1.095 1.162v0.273h-2.309zM27.778 11.332h-1.682c-0.157 0-0.285 0.128-0.285 0.284v7.692c0 0.158 0.128 0.285 0.285 0.285h1.682c0.161 0 0.286-0.127 0.286-0.285v-7.692c0-0.156-0.125-0.284-0.286-0.284zM27.778 8.181h-1.682c-0.157 0-0.285 0.129-0.285 0.285v1.449c0 0.159 0.128 0.285 0.285 0.285h1.682c0.161 0 0.286-0.126 0.286-0.285v-1.449c0-0.156-0.125-0.285-0.286-0.285zM23.541 13.728c0.697-0.384 1-0.921 1-1.748v-1.131c0-1.656-0.994-2.46-3.035-2.46h-4.153c-0.155 0-0.283 0.127-0.283 0.284v10.635c0 0.158 0.128 0.285 0.283 0.285h4.449c1.981 0 3.118-0.962 3.118-2.641v-1.168c0-1.001-0.508-1.749-1.379-2.056zM19.388 10.344h1.87c0.847 0 0.965 0.369 0.965 0.765v0.969c0 0.63-0.294 0.899-0.982 0.899h-0.404c-0.159 0-0.287 0.128-0.287 0.285v1.336c0 0.158 0.128 0.286 0.287 0.286h0.732c0.734 0 1.032 0.284 1.032 0.981v0.822c0 0.709-0.305 0.948-1.213 0.948h-2v-7.292zM34.097 17.958c-0.011-0.080-0.055-0.151-0.122-0.196s-0.15-0.059-0.228-0.039c-0.297 0.074-0.582 0.115-0.802 0.115-0.416 0-0.601-0.181-0.601-0.585v-4.076h1.634c0.157 0 0.285-0.127 0.285-0.285v-1.272c0-0.157-0.127-0.284-0.285-0.284h-1.634v-1.959c0-0.083-0.037-0.161-0.098-0.215-0.063-0.055-0.146-0.080-0.228-0.068l-1.682 0.234c-0.14 0.020-0.245 0.141-0.245 0.283v1.725h-0.917c-0.157 0-0.285 0.128-0.285 0.284v1.272c0 0.158 0.128 0.285 0.285 0.285h0.917v4.34c0 1.489 0.782 2.245 2.327 2.245 0.44 0 1.187-0.102 1.675-0.271 0.131-0.045 0.209-0.175 0.188-0.312l-0.185-1.22zM77.068 17.957c-0.011-0.080-0.057-0.151-0.124-0.196-0.066-0.044-0.15-0.059-0.225-0.039-0.3 0.074-0.582 0.115-0.804 0.115-0.414 0-0.602-0.182-0.602-0.586v-4.076h1.636c0.159 0 0.284-0.128 0.284-0.284v-1.272c0-0.157-0.125-0.285-0.284-0.285h-1.636v-1.96c0-0.083-0.033-0.161-0.096-0.214s-0.146-0.079-0.227-0.067l-1.682 0.234c-0.14 0.020-0.246 0.14-0.246 0.281v1.726h-0.917c-0.156 0-0.284 0.128-0.284 0.285v1.272c0 0.156 0.129 0.284 0.284 0.284h0.917v4.34c0 1.488 0.784 2.245 2.327 2.245 0.442 0 1.186-0.102 1.674-0.271 0.13-0.045 0.21-0.175 0.19-0.312l-0.184-1.22zM64.544 19.117l-2.249-3.713 2.17-3.657c0.052-0.088 0.053-0.197 0.002-0.286s-0.145-0.144-0.247-0.144h-1.858c-0.102 0-0.196 0.054-0.247 0.142l-2.064 3.578v-6.57c0-0.157-0.128-0.285-0.285-0.285h-1.682c-0.157 0-0.285 0.127-0.285 0.285v10.84c0 0.157 0.127 0.285 0.285 0.285h1.682c0.157 0 0.285-0.127 0.285-0.285v-3.548l2.196 3.675c0.051 0.086 0.144 0.139 0.244 0.139h1.825c0.157 0 0.285-0.128 0.285-0.285 0-0.065-0.021-0.124-0.058-0.172zM8.532 7.417v0c-3.044 0-5.53 0.818-5.53 1.834 0 0.268 0.664 4.105 0.927 5.627 0.118 0.683 1.882 1.683 4.601 1.683l0.003-0.008v0.008c2.719 0 4.483-1.001 4.601-1.683 0.263-1.522 0.927-5.36 0.927-5.627 0-1.016-2.486-1.834-5.53-1.834zM8.532 15.329c-0.971 0-1.758-0.787-1.758-1.758s0.787-1.758 1.758-1.758c0.971 0 1.758 0.787 1.758 1.758s-0.787 1.758-1.758 1.758zM8.531 9.819c-1.956-0.003-3.541-0.343-3.54-0.759s1.587-0.751 3.543-0.748c1.956 0.003 3.541 0.343 3.54 0.759s-1.587 0.751-3.543 0.748zM12.507 16.404c-0.084 0-0.151 0.059-0.151 0.059s-1.362 1.078-3.823 1.078c-2.461-0-3.823-1.078-3.823-1.078s-0.067-0.059-0.151-0.059c-0.1 0-0.196 0.067-0.196 0.216 0 0.016 0.002 0.031 0.004 0.047 0.211 1.131 0.366 1.934 0.393 2.056 0.184 0.832 1.812 1.46 3.773 1.46h0c1.96-0 3.588-0.628 3.773-1.46 0.027-0.122 0.182-0.925 0.393-2.056 0.003-0.015 0.004-0.031 0.004-0.047 0-0.149-0.095-0.216-0.196-0.216zM9.411 13.571c0 0.487-0.394 0.881-0.881 0.881s-0.881-0.394-0.881-0.881 0.394-0.881 0.881-0.881c0.487 0 0.881 0.394 0.881 0.881z"></path>
</svg>
