<?xml version="1.0" encoding="utf-8"?>
<!-- Generated by IcoMoon.io -->
<!DOCTYPE svg PUBLIC "-//W3C//DTD SVG 1.1//EN" "http://www.w3.org/Graphics/SVG/1.1/DTD/svg11.dtd">
<svg version="1.1" xmlns="http://www.w3.org/2000/svg" xmlns:xlink="http://www.w3.org/1999/xlink" width="88" height="24" viewBox="0 0 88 24">
<path fill="#444444" d="M21.078 10.354c0.673 0 1.605 0.092 2.493 0.248 0.077 0.014 0.155-0.005 0.218-0.051s0.104-0.116 0.114-0.193l0.19-1.48c0.018-0.144-0.075-0.279-0.216-0.313-0.891-0.213-1.908-0.33-2.864-0.33-2.668 0-4.021 1.109-4.021 3.298v4.936c0 2.188 1.353 3.298 4.021 3.298 0.957 0 1.974-0.117 2.864-0.33 0.141-0.034 0.235-0.169 0.216-0.313l-0.19-1.48c-0.010-0.077-0.051-0.147-0.114-0.193s-0.141-0.065-0.218-0.051c-0.888 0.155-1.82 0.248-2.493 0.248-1.323 0-1.77-0.389-1.77-1.54v-4.212c-0-1.152 0.446-1.54 1.77-1.54zM27.371 8.192h-1.682c-0.157 0-0.285 0.128-0.285 0.285v10.839c0 0.157 0.127 0.285 0.285 0.285h1.682c0.157 0 0.285-0.128 0.285-0.285v-10.839c0-0.157-0.127-0.285-0.285-0.285zM32.556 11.179c-2.362 0-3.61 1.135-3.61 3.281v2.024c0 2.146 1.248 3.281 3.61 3.281s3.61-1.135 3.61-3.281v-2.024c0-2.147-1.248-3.281-3.61-3.281zM31.197 14.395c0-0.883 0.406-1.26 1.359-1.26s1.359 0.377 1.359 1.26v2.155c0 0.883-0.406 1.26-1.359 1.26s-1.359-0.377-1.359-1.26v-2.155zM44.038 11.344h-1.713c-0.126 0-0.236 0.082-0.273 0.202l-1.69 5.584-1.675-5.584c-0.036-0.12-0.147-0.203-0.273-0.203h-1.713c-0.091 0-0.176 0.043-0.23 0.117s-0.069 0.168-0.041 0.255l2.462 7.687c0.038 0.118 0.147 0.198 0.271 0.198h2.412c0.124 0 0.233-0.080 0.271-0.198l2.462-7.687c0.028-0.087 0.012-0.181-0.041-0.255s-0.139-0.117-0.23-0.117zM48.153 11.179c-2.254 0-3.446 1.123-3.446 3.248v2.122c0 2.194 1.116 3.215 3.512 3.215 0.976 0 2.016-0.171 2.853-0.468 0.134-0.047 0.212-0.187 0.183-0.326l-0.249-1.204c-0.016-0.077-0.063-0.145-0.131-0.186s-0.149-0.052-0.225-0.031c-0.772 0.218-1.508 0.325-2.25 0.325-1.226 0-1.441-0.396-1.441-1.227v-0.289h4.174c0.157 0 0.285-0.128 0.285-0.285v-1.548c-0-2.283-1.037-3.347-3.264-3.347zM46.959 14.503v-0.273c0-0.792 0.385-1.161 1.211-1.161 0.912 0 1.095 0.444 1.095 1.161v0.273h-2.306zM56.909 13.014l-0.164-1.528c-0.009-0.086-0.057-0.164-0.13-0.21s-0.164-0.057-0.245-0.029c-0.619 0.213-1.348 0.628-1.78 0.902l-0.083-0.562c-0.021-0.139-0.141-0.243-0.282-0.243h-1.391c-0.157 0-0.285 0.127-0.285 0.285v7.687c0 0.157 0.127 0.285 0.285 0.285h1.681c0.157 0 0.285-0.128 0.285-0.285v-4.936c0.639-0.405 1.22-0.745 1.944-1.076 0.112-0.051 0.178-0.168 0.165-0.289zM19.521 1.322c-0.014-0.044-0.055-0.074-0.101-0.074h-0.993c-0.047 0-0.088 0.030-0.102 0.074l-1.253 3.974c-0.010 0.032-0.005 0.068 0.016 0.095s0.052 0.043 0.086 0.043h0.684c0.047 0 0.089-0.031 0.102-0.076l0.863-2.923c0 0 0.023-0.073 0.101-0.073 0.079 0 0.099 0.076 0.099 0.076l0.4 1.386h-0.55c-0.047 0-0.089 0.032-0.102 0.078l-0.154 0.549c-0.009 0.032-0.003 0.067 0.018 0.093s0.052 0.042 0.085 0.042h0.928l0.241 0.774c0.014 0.045 0.055 0.075 0.102 0.075h0.684c0.034 0 0.066-0.016 0.086-0.043s0.026-0.063 0.016-0.095l-1.253-3.974zM22.5 4.822c-0.004-0.030-0.021-0.056-0.046-0.073s-0.056-0.022-0.085-0.015c-0.111 0.028-0.218 0.043-0.299 0.043-0.155 0-0.225-0.068-0.225-0.219v-1.523h0.611c0.059 0 0.107-0.047 0.107-0.106v-0.475c0-0.059-0.048-0.107-0.107-0.107h-0.611v-0.733c0-0.031-0.013-0.060-0.037-0.080s-0.054-0.029-0.085-0.025l-0.629 0.088c-0.053 0.007-0.092 0.052-0.092 0.105v0.646h-0.342c-0.059 0-0.106 0.048-0.106 0.107v0.475c0 0.059 0.048 0.106 0.106 0.106h0.342v1.621c0 0.557 0.293 0.839 0.87 0.839 0.164 0 0.443-0.038 0.625-0.101 0.048-0.017 0.078-0.066 0.071-0.116l-0.069-0.456zM23.664 1.165h-0.629c-0.059 0-0.107 0.047-0.107 0.107v4.056c0 0.059 0.048 0.107 0.107 0.107h0.629c0.058 0 0.107-0.047 0.107-0.107v-4.056c0-0.059-0.048-0.107-0.107-0.107zM25.281 2.287c-0.318 0-0.706 0.050-0.987 0.128-0.052 0.015-0.086 0.066-0.077 0.12l0.074 0.456c0.005 0.028 0.020 0.054 0.044 0.071s0.053 0.023 0.081 0.017c0.262-0.051 0.532-0.079 0.76-0.079 0.454 0 0.526 0.096 0.526 0.403v0.268h-0.674c-0.644 0-0.919 0.266-0.919 0.888 0 0.596 0.301 0.938 0.826 0.938 0.304 0 0.608-0.084 0.864-0.239l0.027 0.099c0.012 0.046 0.055 0.078 0.102 0.078h0.508c0.058 0 0.107-0.048 0.107-0.107v-1.913c0-0.822-0.343-1.128-1.263-1.128zM25.702 4.303v0.37c-0.104 0.056-0.293 0.135-0.52 0.135-0.196 0-0.256-0.060-0.256-0.256 0-0.19 0.037-0.25 0.268-0.25h0.508zM28.12 3.524c-0.39-0.1-0.39-0.105-0.39-0.319 0-0.144 0.014-0.213 0.336-0.213 0.22 0 0.545 0.039 0.754 0.074 0.029 0.005 0.058-0.002 0.082-0.020s0.039-0.043 0.042-0.072l0.059-0.479c0.007-0.054-0.029-0.104-0.082-0.117-0.241-0.056-0.577-0.092-0.855-0.092-0.967 0-1.165 0.365-1.165 0.913 0 0.602 0.112 0.805 0.853 0.985 0.488 0.117 0.488 0.205 0.488 0.349 0 0.19-0.016 0.256-0.336 0.256-0.257 0-0.555-0.040-0.817-0.11-0.029-0.008-0.059-0.003-0.084 0.013s-0.043 0.041-0.048 0.071l-0.083 0.454c-0.010 0.053 0.021 0.104 0.072 0.121 0.285 0.093 0.695 0.157 0.997 0.157 0.936 0 1.128-0.392 1.128-0.981 0-0.65-0.116-0.77-0.951-0.991zM30.549 3.524c-0.39-0.1-0.39-0.105-0.39-0.319 0-0.144 0.014-0.213 0.336-0.213 0.22 0 0.545 0.039 0.754 0.074 0.029 0.005 0.058-0.002 0.081-0.020s0.039-0.043 0.042-0.072l0.059-0.479c0.007-0.054-0.028-0.104-0.082-0.117-0.241-0.056-0.577-0.092-0.855-0.092-0.967 0-1.165 0.365-1.165 0.913 0 0.602 0.112 0.805 0.853 0.985 0.488 0.117 0.488 0.205 0.488 0.349 0 0.19-0.016 0.256-0.336 0.256-0.257 0-0.555-0.040-0.816-0.11-0.029-0.008-0.059-0.003-0.085 0.013s-0.042 0.041-0.048 0.071l-0.083 0.454c-0.010 0.053 0.021 0.104 0.072 0.121 0.286 0.093 0.695 0.157 0.997 0.157 0.936 0 1.128-0.392 1.128-0.981 0-0.65-0.116-0.77-0.951-0.991zM32.583 1.165h-0.629c-0.059 0-0.107 0.048-0.107 0.106v0.558c0 0.059 0.047 0.106 0.107 0.106h0.629c0.059 0 0.106-0.048 0.106-0.106v-0.558c0-0.059-0.048-0.106-0.106-0.106zM32.583 2.348h-0.629c-0.059 0-0.107 0.048-0.107 0.107v2.873c0 0.059 0.047 0.107 0.107 0.107h0.629c0.059 0 0.106-0.048 0.106-0.107v-2.873c0-0.059-0.048-0.107-0.106-0.107zM34.216 2.287c-0.318 0-0.706 0.050-0.987 0.128-0.052 0.015-0.085 0.066-0.077 0.12l0.073 0.456c0.005 0.028 0.021 0.054 0.044 0.071s0.053 0.023 0.081 0.017c0.261-0.051 0.531-0.079 0.76-0.079 0.454 0 0.526 0.096 0.526 0.403v0.268h-0.674c-0.644 0-0.919 0.266-0.919 0.888 0 0.596 0.301 0.938 0.827 0.938 0.304 0 0.608-0.084 0.864-0.239l0.027 0.099c0.013 0.046 0.055 0.078 0.103 0.078h0.508c0.059 0 0.107-0.048 0.107-0.107v-1.913c0-0.822-0.343-1.128-1.264-1.128zM34.638 4.303v0.37c-0.104 0.056-0.293 0.135-0.52 0.135-0.196 0-0.256-0.060-0.256-0.256 0-0.19 0.037-0.25 0.268-0.25h0.508zM37.804 2.287c-0.333 0-0.787 0.115-1.17 0.295l-0.046-0.157c-0.013-0.045-0.055-0.076-0.102-0.076h-0.465c-0.059 0-0.107 0.048-0.107 0.107v2.873c0 0.059 0.048 0.106 0.107 0.106h0.629c0.059 0 0.106-0.047 0.106-0.106v-1.99c0.226-0.115 0.545-0.234 0.735-0.234 0.141 0 0.194 0.053 0.194 0.194v2.030c0 0.059 0.047 0.106 0.107 0.106h0.629c0.059 0 0.106-0.047 0.106-0.106v-2.11c-0-0.618-0.243-0.931-0.722-0.931zM14.774 12.585c0-0.396-0.097-0.789-0.286-1.136-0.188-0.345-0.462-0.639-0.785-0.863-0.341-0.236-0.732-0.392-1.138-0.473-0.083-0.413-0.244-0.813-0.487-1.158-0.226-0.321-0.522-0.592-0.869-0.776-0.353-0.188-0.753-0.281-1.153-0.275-0.231 0.004-0.463 0.045-0.678 0.132-0.203 0.082-0.389 0.206-0.543 0.361-0.032 0.032-0.062 0.064-0.091 0.098-0.143-0.168-0.317-0.307-0.514-0.405-0.203-0.102-0.426-0.16-0.653-0.179-0.407-0.035-0.825 0.042-1.194 0.216-0.354 0.167-0.662 0.422-0.902 0.731-0.256 0.331-0.432 0.719-0.53 1.125-0.010 0.043-0.020 0.086-0.029 0.13-1.298 0.259-2.209 1.236-2.209 2.472 0 0.233 0.037 0.466 0.12 0.684 0.078 0.205 0.198 0.393 0.35 0.551 0.039 0.040 0.079 0.078 0.122 0.114-0.168 0.143-0.307 0.317-0.405 0.514-0.102 0.203-0.16 0.426-0.179 0.652-0.005 0.061-0.008 0.122-0.008 0.183 0 1.236 0.911 2.212 2.209 2.472 0.083 0.413 0.244 0.813 0.487 1.158 0.226 0.32 0.522 0.592 0.869 0.776 0.353 0.188 0.753 0.281 1.153 0.275 0.231-0.004 0.463-0.045 0.678-0.132 0.203-0.083 0.389-0.206 0.543-0.361 0.032-0.032 0.062-0.065 0.091-0.099 0.143 0.168 0.317 0.307 0.514 0.405 0.203 0.102 0.427 0.16 0.653 0.179 0.407 0.035 0.825-0.042 1.194-0.216 0.354-0.167 0.662-0.422 0.902-0.731 0.256-0.331 0.432-0.719 0.53-1.125 0.010-0.043 0.020-0.086 0.029-0.13 0.413-0.083 0.813-0.244 1.158-0.487 0.321-0.226 0.592-0.522 0.776-0.869 0.187-0.351 0.28-0.748 0.275-1.146-0.003-0.232-0.043-0.463-0.129-0.679-0.082-0.203-0.204-0.389-0.359-0.544-0.033-0.033-0.068-0.065-0.103-0.095 0.385-0.328 0.592-0.791 0.592-1.349 0 0 0 0.558 0 0zM10.093 19.274c-0.659 0-0.9-0.426-0.99-0.607-0.013-0.026-0.025-0.052-0.037-0.078-0 0-0 0-0 0-0.054-0.128-0.179-0.21-0.318-0.21h-0.011c-0.112 0-0.219 0.056-0.283 0.148-0.037 0.053-0.057 0.117-0.087 0.174s-0.064 0.112-0.103 0.164c-0.149 0.199-0.362 0.334-0.605 0.384-0.411 0.085-0.86-0.029-1.204-0.262s-0.594-0.582-0.741-0.967c-0.025-0.065-0.047-0.13-0.066-0.197 0.548-0.006 1.094-0.185 1.542-0.501 0.45-0.318 0.823-0.734 1.098-1.211 0.063-0.109 0.123-0.22 0.176-0.334 0.027-0.058 0.053-0.116 0.078-0.174 0.023-0.055 0.042-0.111 0.067-0.165h0c0.004-0.011 0.011-0.022 0.018-0.032 0.060-0.077 0.179-0.073 0.234 0.007 0.005 0.008 0.010 0.015 0.014 0.024h0c0.029 0.064 0.053 0.131 0.080 0.195 0.028 0.066 0.058 0.13 0.090 0.194 0.063 0.129 0.134 0.254 0.208 0.378 0.146 0.241 0.321 0.466 0.516 0.669 0.021 0.022 0.042 0.044 0.064 0.065 0.021 0.014 0.039 0.038 0.058 0.056 0.023 0.022 0.045 0.043 0.069 0.063 0.044 0.040 0.090 0.079 0.136 0.116 0.092 0.074 0.188 0.144 0.288 0.207 0.199 0.127 0.412 0.23 0.635 0.305 0.262 0.087 0.558 0.137 0.819 0.137-0.219 0.773-0.845 1.451-1.745 1.451zM7.81 8.661c0.208 0.075 0.38 0.221 0.499 0.405 0.032 0.049 0.060 0.1 0.085 0.152s0.044 0.105 0.082 0.149c0.065 0.076 0.162 0.121 0.263 0.121h0.011c0.139 0 0.264-0.083 0.318-0.21 0 0 0-0 0-0 0.080-0.19 0.202-0.367 0.371-0.49 0.163-0.119 0.359-0.179 0.559-0.192 0.451-0.030 0.898 0.138 1.231 0.44 0.296 0.268 0.5 0.627 0.61 1.008-0.476 0-0.949 0.143-1.357 0.383-0.118 0.069-0.232 0.147-0.34 0.231-0.055 0.042-0.108 0.087-0.159 0.132-0.025 0.022-0.050 0.045-0.074 0.067-0.012 0.011-0.024 0.023-0.037 0.035s-0.023 0.027-0.037 0.036c-0.403 0.4-0.713 0.89-0.924 1.417-0.011 0.028-0.022 0.057-0.034 0.085h-0c-0.003 0.009-0.009 0.016-0.014 0.024-0.055 0.080-0.174 0.085-0.234 0.007-0.007-0.010-0.013-0.020-0.018-0.031h-0c-0.053-0.123-0.1-0.249-0.16-0.37-0.062-0.125-0.127-0.249-0.2-0.368-0.143-0.236-0.31-0.455-0.496-0.658-0.37-0.405-0.849-0.724-1.376-0.88-0.237-0.070-0.483-0.107-0.73-0.11 0.116-0.403 0.337-0.782 0.66-1.054 0.308-0.258 0.699-0.402 1.102-0.398 0.133 0.002 0.273 0.019 0.398 0.067 0.022 0.008-0.004-0.001 0 0zM11.384 15.644c0.179 0.203 0.325 0.434 0.423 0.686 0.1 0.256 0.142 0.528 0.135 0.802-0.278 0.008-0.557-0.036-0.816-0.14-0.258-0.104-0.491-0.256-0.698-0.44-0.336-0.3-0.596-0.685-0.785-1.092l-0-0c-0.111-0.239-0.197-0.488-0.258-0.734-0.004-0.087 0.070-0.158 0.156-0.148 0.015 0.003 0.031 0.005 0.045 0.012l0-0c0.544 0.141 1.067 0.396 1.496 0.761 0.107 0.091 0.207 0.189 0.301 0.295 0.019 0.022-0.006-0.007 0 0zM10.183 13.073c-0.192 0.086-0.392 0.154-0.596 0.206l-0-0.001c-0.014 0.006-0.030 0.008-0.045 0.012-0.087 0.009-0.161-0.062-0.156-0.149 0.060-0.246 0.146-0.494 0.258-0.733l0-0c0.232-0.501 0.574-0.965 1.028-1.285 0.182-0.129 0.384-0.23 0.596-0.297 0.219-0.069 0.446-0.095 0.675-0.090 0.007 0.28-0.036 0.557-0.141 0.818-0.104 0.258-0.256 0.493-0.442 0.699-0.322 0.357-0.736 0.632-1.176 0.821-0.012 0.006 0.025-0.011 0 0zM8.095 14.754c-0.002 0.008-0.003 0.016-0.007 0.023l0.001 0c-0.139 0.533-0.386 1.052-0.743 1.475-0.352 0.425-0.843 0.77-1.398 0.854-0.134 0.020-0.267 0.029-0.402 0.026-0.008-0.282 0.037-0.563 0.144-0.825 0.105-0.257 0.257-0.492 0.444-0.697 0.35-0.385 0.803-0.671 1.285-0.863 0.174-0.069 0.352-0.127 0.533-0.171 0.087-0.005 0.158 0.070 0.148 0.157-0.002 0.007-0.003 0.014-0.005 0.021s0.002-0.007 0 0zM5.739 11.674c-0.138-0.295-0.203-0.613-0.193-0.939 0.282-0.006 0.559 0.038 0.822 0.143 0.256 0.102 0.494 0.256 0.697 0.443 0.405 0.374 0.704 0.853 0.897 1.368 0.049 0.13 0.092 0.264 0.127 0.401l-0.001 0.001c0.006 0.014 0.008 0.030 0.012 0.044 0.009 0.087-0.062 0.161-0.148 0.157-0.495-0.121-0.973-0.337-1.383-0.642-0.345-0.257-0.645-0.584-0.83-0.976-0.008-0.016 0.009 0.019 0 0zM3.403 15.269c0-0.198 0.044-0.397 0.145-0.568 0.1-0.168 0.251-0.297 0.423-0.389 0.078-0.041 0.165-0.067 0.228-0.131s0.099-0.152 0.099-0.242v-0.011c0-0.107-0.052-0.211-0.137-0.275-0.044-0.033-0.096-0.051-0.145-0.075-0.047-0.023-0.093-0.048-0.137-0.076-0.161-0.103-0.295-0.246-0.376-0.42-0.086-0.184-0.109-0.389-0.099-0.59 0.011-0.199 0.057-0.396 0.137-0.579 0.163-0.371 0.459-0.669 0.81-0.865 0.158-0.089 0.327-0.158 0.502-0.208 0.005 0.493 0.151 0.975 0.407 1.396s0.612 0.777 1.015 1.058c0.299 0.209 0.624 0.378 0.965 0.507 0.117 0.050 0.117 0.217 0 0.267-0.471 0.178-0.915 0.434-1.296 0.764-0.368 0.32-0.677 0.712-0.871 1.161-0.141 0.327-0.217 0.68-0.22 1.036-0.976-0.297-1.451-1.006-1.451-1.759zM13.399 13.611c-0.127 0.054-0.21 0.179-0.21 0.318v0.011c0 0.107 0.052 0.211 0.137 0.275 0.044 0.033 0.096 0.051 0.145 0.075 0.047 0.023 0.093 0.048 0.137 0.076 0.161 0.103 0.294 0.245 0.376 0.419 0.086 0.184 0.109 0.389 0.099 0.59-0.011 0.199-0.057 0.396-0.137 0.578-0.163 0.371-0.459 0.669-0.81 0.865-0.158 0.089-0.327 0.158-0.502 0.208-0.014-1.391-1.094-2.473-2.385-2.96v-0.001c-0.12-0.046-0.12-0.219 0-0.265v0-0.001c1.291-0.488 2.371-1.57 2.385-2.961 0.403 0.116 0.782 0.337 1.054 0.66 0.258 0.307 0.401 0.697 0.398 1.098-0.002 0.198-0.044 0.397-0.145 0.568-0.1 0.168-0.251 0.298-0.422 0.389-0.038 0.021-0.078 0.039-0.117 0.056-0.127 0.054 0.455-0.193 0 0z"></path>
</svg>
