<?xml version="1.0" encoding="utf-8"?>
<!-- Generated by IcoMoon.io -->
<!DOCTYPE svg PUBLIC "-//W3C//DTD SVG 1.1//EN" "http://www.w3.org/Graphics/SVG/1.1/DTD/svg11.dtd">
<svg version="1.1" xmlns="http://www.w3.org/2000/svg" xmlns:xlink="http://www.w3.org/1999/xlink" width="88" height="24" viewBox="0 0 88 24">
<path fill="#444444" d="M28.302 11.189c-2.362 0-3.61 1.135-3.61 3.281v2.023c0 2.146 1.248 3.281 3.61 3.281s3.61-1.135 3.61-3.281v-2.023c0-2.147-1.248-3.281-3.61-3.281zM26.944 14.404c0-0.883 0.406-1.26 1.359-1.26s1.359 0.377 1.359 1.26v2.155c0 0.883-0.406 1.26-1.359 1.26s-1.359-0.377-1.359-1.26v-2.155zM38.020 11.189c-0.891 0-2.106 0.307-3.132 0.789l-0.123-0.42c-0.036-0.121-0.147-0.205-0.273-0.205h-1.246c-0.157 0-0.285 0.128-0.285 0.285v7.687c0 0.157 0.128 0.285 0.285 0.285h1.682c0.157 0 0.285-0.127 0.285-0.285v-5.324c0.606-0.308 1.458-0.627 1.968-0.627 0.379 0 0.519 0.141 0.519 0.52v5.431c0 0.157 0.128 0.285 0.285 0.285h1.682c0.157 0 0.285-0.127 0.285-0.285v-5.645c0-1.653-0.65-2.491-1.932-2.491zM46.018 8.164c-0.453-0.116-0.975-0.179-1.469-0.179-1.798 0-2.672 0.853-2.672 2.606v0.997h-0.934c-0.157 0-0.285 0.127-0.285 0.285v1.271c0 0.157 0.127 0.285 0.285 0.285h0.934v5.897c0 0.157 0.128 0.285 0.285 0.285h1.682c0.157 0 0.285-0.127 0.285-0.285v-5.897h1.651c0.149 0 0.273-0.115 0.284-0.264l0.001-1.271c0-0.093-0.021-0.156-0.075-0.214s-0.129-0.091-0.209-0.091h-1.652v-0.882c0-0.614 0.118-0.832 0.783-0.832 0.205 0 0.519 0.032 0.818 0.083 0.076 0.013 0.154-0.005 0.216-0.051s0.103-0.114 0.114-0.191l0.171-1.236c0.020-0.143-0.071-0.279-0.212-0.315zM49.058 8.205h-1.682c-0.157 0-0.285 0.127-0.285 0.285v10.835c0 0.157 0.128 0.285 0.285 0.285h1.682c0.157 0 0.285-0.127 0.285-0.285v-10.835c0-0.157-0.127-0.285-0.285-0.285zM57.296 11.353h-1.682c-0.157 0-0.285 0.128-0.285 0.285v5.324c-0.606 0.308-1.458 0.627-1.967 0.627-0.379 0-0.52-0.141-0.52-0.52v-5.431c0-0.157-0.127-0.285-0.285-0.285h-1.682c-0.157 0-0.285 0.128-0.285 0.285v5.645c0 1.653 0.65 2.491 1.932 2.491 0.892 0 2.106-0.307 3.131-0.789l0.123 0.42c0.036 0.121 0.147 0.205 0.273 0.205h1.245c0.157 0 0.285-0.127 0.285-0.285v-7.687c0-0.157-0.127-0.285-0.285-0.285zM62.005 11.189c-2.254 0-3.446 1.123-3.446 3.248v2.122c0 2.194 1.116 3.215 3.512 3.215 0.976 0 2.016-0.171 2.853-0.468 0.134-0.047 0.212-0.186 0.183-0.326l-0.249-1.204c-0.016-0.077-0.063-0.145-0.131-0.186s-0.149-0.052-0.225-0.031c-0.772 0.218-1.508 0.325-2.25 0.325-1.225 0-1.441-0.396-1.441-1.227v-0.289h4.174c0.157 0 0.285-0.127 0.285-0.285v-1.548c0-2.283-1.038-3.347-3.265-3.347zM60.811 14.513v-0.273c0-0.792 0.385-1.161 1.211-1.161 0.912 0 1.095 0.444 1.095 1.161v0.273h-2.306zM71.347 11.189c-0.891 0-2.106 0.307-3.132 0.789l-0.123-0.42c-0.036-0.121-0.147-0.205-0.273-0.205h-1.246c-0.157 0-0.285 0.128-0.285 0.285v7.687c0 0.157 0.128 0.285 0.285 0.285h1.682c0.157 0 0.285-0.127 0.285-0.285v-5.324c0.606-0.308 1.458-0.627 1.968-0.627 0.379 0 0.519 0.141 0.519 0.52v5.431c0 0.157 0.128 0.285 0.285 0.285h1.682c0.157 0 0.285-0.127 0.285-0.285v-5.645c0-1.653-0.65-2.491-1.932-2.491zM79.756 17.869c-0.012-0.079-0.056-0.148-0.121-0.193s-0.147-0.060-0.224-0.042c-0.483 0.111-0.989 0.169-1.463 0.169-1.067 0-1.375-0.272-1.375-1.211v-2.221c0-0.939 0.308-1.211 1.375-1.211 0.294 0 0.926 0.045 1.464 0.168 0.077 0.018 0.159 0.002 0.224-0.042s0.109-0.115 0.121-0.193l0.2-1.331c0.021-0.141-0.065-0.275-0.201-0.315-0.648-0.191-1.405-0.259-1.857-0.259-2.541 0-3.577 0.927-3.577 3.199v2.188c0 2.272 1.036 3.199 3.577 3.199 0.618 0 1.331-0.099 1.859-0.258 0.135-0.041 0.22-0.175 0.2-0.315l-0.2-1.332zM84.017 11.189c-2.254 0-3.446 1.123-3.446 3.248v2.122c0 2.194 1.116 3.215 3.512 3.215 0.976 0 2.016-0.171 2.853-0.468 0.134-0.047 0.212-0.186 0.183-0.326l-0.249-1.204c-0.016-0.077-0.063-0.145-0.131-0.186s-0.149-0.052-0.225-0.031c-0.772 0.218-1.508 0.325-2.25 0.325-1.225 0-1.441-0.396-1.441-1.227v-0.289h4.174c0.157 0 0.285-0.127 0.285-0.285v-1.548c-0-2.283-1.038-3.347-3.265-3.347zM82.823 14.513v-0.273c0-0.792 0.385-1.161 1.211-1.161 0.912 0 1.095 0.444 1.095 1.161v0.273h-2.306zM21.126 10.382c0.674 0 1.606 0.093 2.493 0.248 0.077 0.013 0.155-0.005 0.218-0.051s0.104-0.116 0.114-0.193l0.19-1.48c0.019-0.144-0.075-0.279-0.216-0.313-0.891-0.213-1.908-0.33-2.864-0.33-2.668 0-4.021 1.109-4.021 3.297v4.936c0 2.188 1.353 3.298 4.021 3.298 0.957 0 1.974-0.118 2.864-0.33 0.141-0.034 0.235-0.169 0.216-0.313l-0.19-1.48c-0.010-0.077-0.051-0.147-0.113-0.193s-0.142-0.065-0.218-0.051c-0.888 0.155-1.82 0.248-2.493 0.248-1.324 0-1.77-0.389-1.77-1.54v-4.212c0-1.151 0.446-1.54 1.77-1.54zM11.48 16.73c-0.182-0.359-0.398-0.722-0.651-1.092-0.181-0.265-0.375-0.522-0.577-0.774-0.082-0.103-0.048-0.23 0.015-0.294s0.125-0.127 0.188-0.192c0.866-0.883 1.762-1.796 2.448-2.783 0.73-1.050 1.135-2.045 1.237-3.069 0.010-0.103-0.037-0.212-0.12-0.276-0.055-0.042-0.121-0.063-0.187-0.063-0.037 0-0.074 0.007-0.11 0.020-0.666 0.255-1.342 0.448-1.959 0.592-0.126 0.029-0.228 0.123-0.27 0.235-0.45 1.232-1.598 2.405-2.803 3.633-0.048 0.046-0.116 0.107-0.226 0.107s-0.177-0.059-0.226-0.107c-1.205-1.229-2.353-2.397-2.803-3.63-0.042-0.112-0.144-0.206-0.27-0.235-0.618-0.144-1.294-0.354-1.959-0.608-0.036-0.014-0.073-0.020-0.11-0.020-0.067 0-0.133 0.022-0.187 0.063-0.085 0.065-0.13 0.169-0.12 0.275 0.102 1.024 0.507 2.032 1.237 3.082 0.687 0.987 1.582 1.9 2.448 2.783 1.596 1.627 3.103 3.164 3.235 4.946 0.012 0.161 0.146 0.285 0.307 0.285h1.875c0.084 0 0.165-0.035 0.223-0.096s0.089-0.143 0.085-0.228c-0.017-0.336-0.065-0.671-0.144-1.009l0.001-0.001c-0.002-0.010-0.004-0.020-0.004-0.030 0-0.068 0.053-0.125 0.122-0.125 0.006 0 0.012 0.001 0.018 0.002l0-0c1.53 0.224 2.498 0.582 2.5 0.976v0.001c0 0.371-0.87 0.932-2.284 1.343l-0.001 0.001c-0.126 0.036-0.217 0.15-0.217 0.284 0 0.164 0.135 0.296 0.302 0.296 0.023 0 0.045-0.003 0.067-0.008 1.901-0.44 3.161-1.179 3.161-2.013-0-0.99-1.703-1.875-4.24-2.274zM6.454 15.764c-0.038-0.040-0.115-0.094-0.219-0.094-0.14 0-0.223 0.090-0.254 0.138-0.205 0.312-0.383 0.619-0.538 0.923-2.533 0.399-4.233 1.283-4.233 2.273 0 0.835 1.251 1.572 3.155 2.012 0 0 0.002-0 0.003-0 0.022 0.005 0.045 0.009 0.069 0.009 0.167 0 0.302-0.133 0.302-0.296 0-0.135-0.092-0.247-0.217-0.283l-0.001-0.002c-1.414-0.411-2.284-0.971-2.284-1.343v-0.001c0.001-0.394 0.967-0.751 2.493-0.975 0.005-0.001 0.011-0.002 0.016-0.002 0.070 0 0.124 0.057 0.124 0.126 0 0.011-0.002 0.021-0.004 0.031l0.001 0.001c-0.078 0.336-0.126 0.67-0.143 1.004-0.004 0.084 0.027 0.167 0.085 0.229s0.14 0.096 0.224 0.096h1.875c0.161 0 0.297-0.126 0.308-0.287 0.041-0.548 0.212-1.098 0.523-1.676 0.108-0.2 0.024-0.388-0.038-0.468-0.308-0.401-0.686-0.829-1.248-1.415zM8.249 11.133c0.074 0.072 0.158 0.086 0.216 0.086h0.001c0.058 0 0.142-0.013 0.216-0.086 0.661-0.643 1.016-1.392 1.094-1.601 0.011-0.031 0.023-0.065 0.023-0.114 0-0.166-0.139-0.285-0.284-0.285-0.12 0-0.46 0.035-1.048 0.035h-0.004c-0.587 0-0.928-0.035-1.048-0.035-0.145 0-0.284 0.119-0.284 0.285 0 0.049 0.011 0.083 0.023 0.114 0.078 0.208 0.433 0.958 1.094 1.601zM19.493 1.335c-0.014-0.044-0.055-0.074-0.101-0.074h-0.993c-0.046 0-0.087 0.030-0.101 0.074l-1.252 3.971c-0.010 0.032-0.004 0.068 0.016 0.095s0.052 0.043 0.086 0.043h0.683c0.047 0 0.089-0.031 0.102-0.076l0.862-2.921c0 0 0.023-0.073 0.101-0.073 0.079 0 0.099 0.076 0.099 0.076l0.4 1.385h-0.537c-0.048 0-0.089 0.032-0.102 0.078l-0.154 0.548c-0.009 0.032-0.002 0.067 0.018 0.093s0.051 0.042 0.085 0.042h0.915l0.241 0.773c0.014 0.044 0.055 0.075 0.102 0.075h0.684c0.034 0 0.066-0.016 0.086-0.043s0.026-0.063 0.016-0.095l-1.252-3.971zM22.47 4.832c-0.005-0.030-0.021-0.056-0.046-0.073s-0.056-0.022-0.085-0.015c-0.111 0.027-0.217 0.043-0.299 0.043-0.156 0-0.225-0.067-0.225-0.219v-1.521h0.61c0.059 0 0.106-0.048 0.106-0.106v-0.475c0-0.059-0.048-0.106-0.106-0.106h-0.61v-0.733c0-0.031-0.013-0.060-0.037-0.080s-0.054-0.029-0.085-0.025l-0.628 0.088c-0.052 0.007-0.092 0.052-0.092 0.105v0.645h-0.342c-0.059 0-0.107 0.048-0.107 0.106v0.475c0 0.059 0.048 0.106 0.107 0.106h0.342v1.62c0 0.556 0.292 0.838 0.869 0.838 0.164 0 0.443-0.038 0.625-0.101 0.048-0.017 0.078-0.066 0.070-0.116l-0.069-0.456zM23.633 1.176h-0.628c-0.059 0-0.107 0.048-0.107 0.106v4.056c0 0.059 0.048 0.106 0.107 0.106l0.628 0c0.059 0 0.107-0.048 0.107-0.106v-4.056c-0-0.059-0.048-0.106-0.107-0.106zM25.248 2.299c-0.318 0-0.705 0.050-0.986 0.128-0.052 0.014-0.086 0.066-0.077 0.119l0.074 0.456c0.004 0.028 0.021 0.054 0.044 0.070s0.053 0.023 0.081 0.017c0.261-0.051 0.531-0.079 0.759-0.079 0.453 0 0.526 0.096 0.526 0.403v0.268h-0.673c-0.644 0-0.918 0.265-0.918 0.888 0 0.595 0.301 0.937 0.826 0.937 0.304 0 0.608-0.084 0.863-0.238l0.027 0.099c0.013 0.046 0.055 0.078 0.103 0.078h0.507c0.059 0 0.107-0.048 0.107-0.106v-1.912c0-0.822-0.342-1.127-1.262-1.127zM25.67 4.314v0.37c-0.104 0.056-0.293 0.135-0.52 0.135-0.196 0-0.255-0.060-0.255-0.256 0-0.19 0.037-0.249 0.268-0.249h0.507zM28.085 3.536c-0.39-0.1-0.39-0.104-0.39-0.318 0-0.144 0.014-0.213 0.335-0.213 0.22 0 0.545 0.039 0.753 0.074 0.029 0.005 0.058-0.002 0.081-0.020s0.039-0.043 0.042-0.072l0.059-0.479c0.007-0.054-0.028-0.104-0.081-0.117-0.241-0.056-0.576-0.092-0.854-0.092-0.966 0-1.164 0.365-1.164 0.912 0 0.602 0.112 0.804 0.852 0.985 0.488 0.117 0.488 0.204 0.488 0.349 0 0.19-0.016 0.255-0.335 0.255-0.257 0-0.554-0.040-0.816-0.11-0.029-0.008-0.059-0.003-0.084 0.013s-0.043 0.041-0.048 0.071l-0.083 0.454c-0.010 0.053 0.021 0.104 0.072 0.12 0.285 0.092 0.695 0.157 0.996 0.157 0.935 0 1.127-0.392 1.127-0.98 0-0.649-0.115-0.77-0.95-0.991zM30.512 3.536c-0.39-0.1-0.39-0.104-0.39-0.318 0-0.144 0.014-0.213 0.335-0.213 0.22 0 0.545 0.039 0.753 0.074 0.029 0.005 0.058-0.002 0.081-0.020s0.039-0.043 0.042-0.072l0.059-0.479c0.007-0.054-0.028-0.104-0.082-0.117-0.241-0.056-0.576-0.092-0.854-0.092-0.966 0-1.164 0.365-1.164 0.912 0 0.602 0.112 0.804 0.852 0.985 0.488 0.117 0.488 0.204 0.488 0.349 0 0.19-0.016 0.255-0.335 0.255-0.257 0-0.554-0.040-0.816-0.11-0.029-0.008-0.059-0.003-0.084 0.013s-0.042 0.041-0.048 0.071l-0.083 0.454c-0.010 0.053 0.021 0.104 0.072 0.12 0.285 0.092 0.695 0.157 0.996 0.157 0.936 0 1.127-0.392 1.127-0.98 0-0.649-0.116-0.77-0.95-0.991zM32.545 1.176h-0.628c-0.059 0-0.107 0.048-0.107 0.106v0.558c0 0.059 0.048 0.106 0.107 0.106h0.628c0.059 0 0.107-0.048 0.107-0.106v-0.558c0-0.059-0.048-0.106-0.107-0.106zM32.545 2.36h-0.628c-0.059 0-0.107 0.048-0.107 0.106v2.871c0 0.059 0.048 0.106 0.107 0.106h0.628c0.059 0 0.107-0.048 0.107-0.106v-2.871c0-0.059-0.048-0.106-0.107-0.106zM34.177 2.299c-0.318 0-0.705 0.050-0.986 0.128-0.052 0.014-0.085 0.066-0.077 0.119l0.074 0.456c0.005 0.028 0.021 0.054 0.044 0.070s0.053 0.023 0.081 0.017c0.261-0.051 0.531-0.079 0.759-0.079 0.453 0 0.526 0.096 0.526 0.403v0.268h-0.673c-0.644 0-0.918 0.265-0.918 0.888 0 0.595 0.301 0.937 0.826 0.937 0.304 0 0.608-0.084 0.863-0.238l0.027 0.099c0.013 0.046 0.055 0.078 0.103 0.078h0.507c0.059 0 0.107-0.048 0.107-0.106v-1.912c0-0.822-0.342-1.127-1.262-1.127zM34.598 4.314v0.37c-0.104 0.056-0.293 0.135-0.52 0.135-0.196 0-0.255-0.060-0.255-0.256 0-0.19 0.037-0.249 0.268-0.249h0.508zM37.763 2.299c-0.333 0-0.787 0.115-1.17 0.295l-0.046-0.157c-0.013-0.045-0.055-0.076-0.102-0.076h-0.465c-0.059 0-0.106 0.048-0.106 0.106v2.871c0 0.059 0.047 0.106 0.106 0.106h0.628c0.059 0 0.106-0.048 0.106-0.106v-1.989c0.226-0.115 0.544-0.234 0.735-0.234 0.141 0 0.194 0.053 0.194 0.194v2.029c0 0.059 0.048 0.106 0.106 0.106h0.628c0.059 0 0.106-0.048 0.106-0.106v-2.109c0-0.617-0.243-0.93-0.722-0.93z"></path>
</svg>
