<?xml version="1.0" encoding="utf-8"?>
<!-- Generated by IcoMoon.io -->
<!DOCTYPE svg PUBLIC "-//W3C//DTD SVG 1.1//EN" "http://www.w3.org/Graphics/SVG/1.1/DTD/svg11.dtd">
<svg version="1.1" xmlns="http://www.w3.org/2000/svg" xmlns:xlink="http://www.w3.org/1999/xlink" width="88" height="24" viewBox="0 0 88 24">
<path fill="#444444" d="M21.033 10.35c0.674 0 1.606 0.093 2.494 0.248 0.075 0.013 0.153-0.005 0.215-0.050s0.102-0.114 0.112-0.19l0.19-1.48c0.018-0.142-0.074-0.275-0.213-0.308-0.891-0.213-1.908-0.33-2.863-0.33-2.665 0-4.017 1.108-4.017 3.293v4.936c0 2.185 1.351 3.293 4.017 3.293 0.956 0 1.973-0.117 2.863-0.33 0.139-0.033 0.231-0.166 0.213-0.308l-0.19-1.48c-0.010-0.076-0.050-0.144-0.112-0.19s-0.139-0.064-0.214-0.051c-0.888 0.155-1.821 0.248-2.494 0.248-1.327 0-1.775-0.39-1.775-1.544v-4.212c0-1.155 0.448-1.544 1.775-1.544zM29.246 11.487c-0.009-0.085-0.056-0.161-0.128-0.207s-0.161-0.056-0.242-0.029c-0.622 0.214-1.354 0.632-1.785 0.905l-0.084-0.569c-0.020-0.137-0.138-0.239-0.277-0.239h-1.392c-0.155 0-0.28 0.125-0.28 0.28v7.688c0 0.155 0.125 0.28 0.28 0.28h1.682c0.155 0 0.28-0.126 0.28-0.28v-4.939c0.64-0.406 1.221-0.746 1.947-1.078 0.11-0.050 0.175-0.165 0.162-0.285l-0.164-1.529zM33.452 11.185c-2.359 0-3.606 1.133-3.606 3.276v2.024c0 2.144 1.247 3.277 3.606 3.277s3.605-1.133 3.605-3.277v-2.024c0-2.143-1.247-3.276-3.605-3.276zM32.088 14.395c0-0.886 0.408-1.264 1.363-1.264s1.363 0.378 1.363 1.264v2.156c0 0.886-0.408 1.265-1.363 1.265s-1.363-0.378-1.363-1.265v-2.156zM48.491 11.349h-1.545c-0.135 0-0.251 0.096-0.276 0.229l-0.874 4.747-1.406-4.775c-0.035-0.119-0.145-0.201-0.269-0.201h-1.846c-0.124 0-0.233 0.081-0.269 0.2l-1.422 4.778-0.874-4.749c-0.024-0.133-0.14-0.229-0.276-0.229h-1.545c-0.083 0-0.162 0.037-0.215 0.101s-0.075 0.148-0.060 0.23l1.421 7.688c0.025 0.133 0.141 0.229 0.276 0.229h2.063c0.124 0 0.234-0.082 0.269-0.201l1.548-5.259 1.548 5.259c0.035 0.119 0.144 0.201 0.269 0.201h2.063c0.135 0 0.251-0.096 0.276-0.229l1.421-7.688c0.015-0.082-0.007-0.166-0.060-0.23s-0.132-0.101-0.215-0.101zM56.107 8.184h-1.682c-0.155 0-0.28 0.125-0.28 0.28v2.924c-0.659-0.129-1.403-0.204-2.021-0.204-1.836 0-2.766 0.992-2.766 2.947v2.731c0 2.395 1.406 2.898 2.585 2.898 0.894 0 1.703-0.251 2.467-0.767l0.117 0.401c0.035 0.12 0.145 0.202 0.269 0.202h1.311c0.155 0 0.28-0.126 0.28-0.28v-10.852c-0-0.155-0.126-0.28-0.28-0.28zM54.145 13.322v3.834c-0.37 0.324-1.036 0.659-1.676 0.659-0.626 0-0.869-0.253-0.869-0.903v-2.83c0-0.685 0.248-0.952 0.886-0.952 0.645 0 1.322 0.122 1.659 0.192zM14.302 8.717c-0.081-0.029-2.011-0.701-5.415-0.701s-5.335 0.673-5.415 0.701c-0.18 0.064-0.3 0.235-0.3 0.426 0 3.857 1.266 6.509 2.328 8.055 1.244 1.81 2.673 2.786 3.387 2.786s2.143-0.977 3.387-2.787c1.062-1.546 2.328-4.198 2.328-8.055 0-0.191-0.12-0.362-0.3-0.426zM8.183 9.989c0.080 0 0.309 0.024 0.703 0.024h0.003c0.394 0 0.622-0.024 0.703-0.024 0.097 0 0.19 0.080 0.19 0.191 0 0.033-0.008 0.056-0.015 0.076-0.052 0.14-0.29 0.642-0.734 1.073-0.050 0.048-0.106 0.057-0.145 0.057h-0c-0.039 0-0.095-0.009-0.145-0.057-0.443-0.431-0.682-0.934-0.734-1.073-0.008-0.021-0.015-0.044-0.015-0.076 0-0.112 0.093-0.191 0.19-0.191zM8.401 15.699c-0.208 0.388-0.323 0.756-0.351 1.124-0.008 0.108-0.099 0.192-0.207 0.192h-1.257c-0.057 0-0.111-0.024-0.15-0.064s-0.060-0.097-0.057-0.153c0.038-0.763 0.313-1.527 0.842-2.332 0.021-0.032 0.077-0.093 0.17-0.093 0.069 0 0.121 0.036 0.147 0.063 0.377 0.393 0.63 0.68 0.837 0.949 0.041 0.054 0.098 0.18 0.025 0.314zM11.863 11.64c-0.461 0.662-1.061 1.274-1.642 1.866-0.042 0.043-0.084 0.086-0.126 0.129s-0.065 0.129-0.010 0.198c0.136 0.169 0.266 0.342 0.387 0.519 0.579 0.847 0.88 1.648 0.92 2.447 0.003 0.057-0.018 0.112-0.057 0.153s-0.093 0.064-0.15 0.064h-1.257c-0.108 0-0.198-0.084-0.206-0.192-0.089-1.195-1.1-2.226-2.17-3.317-0.581-0.592-1.181-1.205-1.642-1.866-0.49-0.704-0.761-1.38-0.83-2.067-0.007-0.071 0.023-0.141 0.080-0.185 0.037-0.028 0.081-0.043 0.126-0.043 0.025 0 0.050 0.005 0.074 0.014 0.446 0.171 0.9 0.312 1.314 0.408 0.084 0.020 0.153 0.082 0.181 0.158 0.302 0.826 1.072 1.61 1.88 2.434 0.033 0.032 0.078 0.072 0.152 0.072s0.119-0.041 0.152-0.072c0.808-0.824 1.578-1.611 1.88-2.437 0.028-0.075 0.096-0.138 0.181-0.158 0.414-0.096 0.867-0.226 1.314-0.397 0.024-0.009 0.049-0.014 0.074-0.014 0.045 0 0.089 0.015 0.126 0.042 0.056 0.042 0.087 0.116 0.080 0.185-0.069 0.687-0.34 1.354-0.83 2.058zM19.517 1.318c-0.014-0.044-0.055-0.074-0.101-0.074h-0.993c-0.047 0-0.088 0.030-0.102 0.074l-1.253 3.974c-0.010 0.032-0.005 0.068 0.016 0.095s0.052 0.043 0.086 0.043h0.684c0.047 0 0.089-0.031 0.102-0.076l0.863-2.923c0 0 0.023-0.073 0.101-0.073 0.079 0 0.099 0.076 0.099 0.076l0.4 1.386h-0.55c-0.047 0-0.089 0.032-0.102 0.078l-0.154 0.549c-0.009 0.032-0.003 0.067 0.018 0.093s0.052 0.042 0.085 0.042h0.928l0.241 0.774c0.014 0.045 0.055 0.075 0.102 0.075h0.684c0.034 0 0.066-0.016 0.086-0.043s0.026-0.063 0.016-0.095l-1.253-3.974zM22.496 4.819c-0.004-0.030-0.021-0.056-0.046-0.073s-0.056-0.022-0.085-0.015c-0.111 0.028-0.218 0.043-0.299 0.043-0.155 0-0.225-0.068-0.225-0.219v-1.523h0.611c0.059 0 0.107-0.047 0.107-0.106v-0.475c0-0.059-0.048-0.107-0.107-0.107h-0.611v-0.733c0-0.031-0.013-0.060-0.037-0.080s-0.054-0.029-0.085-0.025l-0.629 0.088c-0.053 0.007-0.092 0.052-0.092 0.105v0.646h-0.342c-0.059 0-0.106 0.048-0.106 0.107v0.475c0 0.059 0.048 0.106 0.106 0.106h0.342v1.621c0 0.557 0.293 0.839 0.87 0.839 0.164 0 0.443-0.038 0.625-0.101 0.048-0.017 0.078-0.066 0.071-0.116l-0.069-0.456zM23.661 1.162h-0.629c-0.059 0-0.107 0.047-0.107 0.107v4.056c0 0.059 0.048 0.107 0.107 0.107h0.629c0.058 0 0.106-0.047 0.106-0.107v-4.056c0-0.059-0.048-0.106-0.106-0.106zM25.277 2.283c-0.318 0-0.706 0.050-0.987 0.128-0.052 0.015-0.086 0.066-0.077 0.12l0.074 0.456c0.005 0.028 0.020 0.054 0.044 0.071s0.053 0.023 0.081 0.017c0.262-0.051 0.532-0.079 0.76-0.079 0.454 0 0.526 0.096 0.526 0.403v0.268h-0.674c-0.644 0-0.919 0.266-0.919 0.888 0 0.596 0.301 0.938 0.826 0.938 0.304 0 0.608-0.084 0.864-0.239l0.027 0.099c0.012 0.046 0.055 0.078 0.102 0.078h0.508c0.058 0 0.107-0.048 0.107-0.107v-1.913c0-0.822-0.343-1.128-1.263-1.128zM25.699 4.299v0.37c-0.104 0.056-0.293 0.135-0.52 0.135-0.196 0-0.256-0.060-0.256-0.256 0-0.19 0.037-0.25 0.268-0.25h0.508zM28.116 3.521c-0.39-0.1-0.39-0.105-0.39-0.319 0-0.144 0.014-0.213 0.336-0.213 0.22 0 0.545 0.039 0.754 0.074 0.029 0.005 0.058-0.002 0.082-0.020s0.039-0.043 0.042-0.072l0.059-0.479c0.007-0.054-0.029-0.104-0.082-0.117-0.241-0.056-0.577-0.092-0.855-0.092-0.967 0-1.165 0.365-1.165 0.913 0 0.602 0.112 0.805 0.853 0.985 0.488 0.117 0.488 0.205 0.488 0.349 0 0.19-0.016 0.256-0.336 0.256-0.257 0-0.555-0.040-0.817-0.11-0.029-0.008-0.059-0.003-0.084 0.013s-0.043 0.041-0.048 0.071l-0.083 0.454c-0.010 0.053 0.021 0.104 0.072 0.121 0.285 0.093 0.695 0.157 0.997 0.157 0.936 0 1.128-0.392 1.128-0.981 0-0.65-0.116-0.77-0.951-0.991zM30.545 3.521c-0.39-0.1-0.39-0.105-0.39-0.319 0-0.144 0.014-0.213 0.336-0.213 0.22 0 0.545 0.039 0.754 0.074 0.029 0.005 0.058-0.002 0.081-0.020s0.039-0.043 0.042-0.072l0.059-0.479c0.007-0.054-0.028-0.104-0.082-0.117-0.241-0.056-0.577-0.092-0.855-0.092-0.967 0-1.165 0.365-1.165 0.913 0 0.602 0.112 0.805 0.853 0.985 0.488 0.117 0.488 0.205 0.488 0.349 0 0.19-0.016 0.256-0.336 0.256-0.257 0-0.555-0.040-0.816-0.11-0.029-0.008-0.059-0.003-0.085 0.013s-0.042 0.041-0.048 0.071l-0.083 0.454c-0.010 0.053 0.021 0.104 0.072 0.121 0.286 0.093 0.695 0.157 0.997 0.157 0.936 0 1.128-0.392 1.128-0.981 0-0.65-0.116-0.77-0.951-0.991zM32.58 1.162h-0.629c-0.059 0-0.107 0.048-0.107 0.106v0.558c0 0.059 0.047 0.106 0.107 0.106h0.629c0.059 0 0.106-0.048 0.106-0.106v-0.558c0-0.059-0.048-0.106-0.106-0.106zM32.58 2.345h-0.629c-0.059 0-0.107 0.048-0.107 0.107v2.873c0 0.059 0.047 0.107 0.107 0.107h0.629c0.059 0 0.106-0.048 0.106-0.107v-2.873c0-0.059-0.048-0.107-0.106-0.107zM34.212 2.283c-0.318 0-0.706 0.050-0.987 0.128-0.052 0.015-0.085 0.066-0.077 0.12l0.074 0.456c0.005 0.028 0.021 0.054 0.044 0.071s0.053 0.023 0.081 0.017c0.261-0.051 0.531-0.079 0.76-0.079 0.454 0 0.526 0.096 0.526 0.403v0.268h-0.674c-0.644 0-0.919 0.266-0.919 0.888 0 0.596 0.301 0.938 0.827 0.938 0.304 0 0.608-0.084 0.864-0.239l0.027 0.099c0.013 0.046 0.055 0.078 0.103 0.078h0.508c0.059 0 0.107-0.048 0.107-0.107v-1.913c0-0.822-0.343-1.128-1.264-1.128zM34.634 4.299v0.37c-0.104 0.056-0.293 0.135-0.52 0.135-0.196 0-0.256-0.060-0.256-0.256 0-0.19 0.037-0.25 0.268-0.25h0.508zM37.801 2.283c-0.333 0-0.787 0.115-1.17 0.295l-0.046-0.157c-0.013-0.045-0.055-0.076-0.102-0.076h-0.465c-0.059 0-0.107 0.048-0.107 0.107v2.873c0 0.059 0.048 0.106 0.107 0.106h0.629c0.059 0 0.106-0.047 0.106-0.106v-1.99c0.227-0.115 0.545-0.234 0.736-0.234 0.141 0 0.194 0.053 0.194 0.194v2.030c0 0.059 0.047 0.106 0.107 0.106h0.628c0.059 0 0.106-0.047 0.106-0.106v-2.11c-0-0.618-0.243-0.931-0.722-0.931z"></path>
</svg>
