<?xml version="1.0" encoding="utf-8"?>
<!-- Generated by IcoMoon.io -->
<!DOCTYPE svg PUBLIC "-//W3C//DTD SVG 1.1//EN" "http://www.w3.org/Graphics/SVG/1.1/DTD/svg11.dtd">
<svg version="1.1" xmlns="http://www.w3.org/2000/svg" xmlns:xlink="http://www.w3.org/1999/xlink" width="68" height="24" viewBox="0 0 68 24">
<path fill="#444444" d="M19.643 11.418c0.668 0 1.592 0.092 2.473 0.246 0.076 0.014 0.154-0.005 0.216-0.051s0.103-0.115 0.113-0.191l0.188-1.467c0.018-0.143-0.074-0.277-0.215-0.311-0.883-0.211-1.892-0.328-2.841-0.328-2.646 0-3.988 1.1-3.988 3.27v4.895c0 2.17 1.342 3.27 3.988 3.27 0.949 0 1.958-0.116 2.841-0.327 0.14-0.034 0.233-0.168 0.215-0.311l-0.188-1.467c-0.010-0.077-0.050-0.146-0.113-0.191s-0.14-0.064-0.216-0.051c-0.881 0.154-1.805 0.245-2.473 0.245-1.312 0-1.755-0.385-1.755-1.527v-4.177c0-1.142 0.443-1.527 1.755-1.527zM27.863 12.541c-0.009-0.086-0.057-0.162-0.129-0.208s-0.162-0.057-0.243-0.029c-0.614 0.211-1.337 0.623-1.765 0.894l-0.082-0.557c-0.020-0.138-0.139-0.241-0.279-0.241h-1.38c-0.156 0-0.282 0.126-0.282 0.282v7.623c0 0.156 0.126 0.282 0.282 0.282h1.668c0.156 0 0.282-0.126 0.282-0.282v-4.896c0.634-0.402 1.21-0.739 1.928-1.067 0.111-0.050 0.177-0.166 0.164-0.287l-0.162-1.516zM35.504 12.4h-1.668c-0.156 0-0.282 0.126-0.282 0.282v5.28c-0.601 0.306-1.445 0.622-1.951 0.622-0.376 0-0.515-0.14-0.515-0.515v-5.386c0-0.156-0.126-0.282-0.282-0.282h-1.668c-0.156 0-0.282 0.126-0.282 0.282v5.598c0 1.639 0.645 2.471 1.916 2.471 0.884 0 2.088-0.305 3.105-0.782l0.122 0.416c0.035 0.12 0.146 0.203 0.271 0.203h1.235c0.156 0 0.282-0.126 0.282-0.282v-7.623c0-0.156-0.126-0.283-0.282-0.283zM42.353 18.861c-0.012-0.078-0.055-0.147-0.12-0.191s-0.146-0.060-0.222-0.042c-0.479 0.11-0.981 0.168-1.451 0.168-1.058 0-1.364-0.269-1.364-1.201v-2.203c0-0.931 0.306-1.2 1.364-1.2 0.251 0 0.877 0.035 1.451 0.167 0.077 0.017 0.157 0.002 0.222-0.042s0.109-0.114 0.12-0.192l0.198-1.32c0.021-0.139-0.064-0.273-0.199-0.313-0.642-0.189-1.393-0.256-1.841-0.256-2.52 0-3.547 0.919-3.547 3.172v2.17c0 2.253 1.028 3.172 3.547 3.172 0.613 0 1.32-0.098 1.843-0.256 0.134-0.041 0.219-0.173 0.198-0.312l-0.198-1.322zM45.756 12.4h-1.668c-0.156 0-0.282 0.126-0.282 0.282v7.623c0 0.156 0.126 0.282 0.282 0.282h1.668c0.156 0 0.282-0.126 0.282-0.282v-7.623c0-0.156-0.126-0.282-0.282-0.282zM45.756 9.275h-1.668c-0.156 0-0.282 0.126-0.282 0.282v1.465c0 0.156 0.126 0.282 0.282 0.282h1.668c0.156 0 0.282-0.127 0.282-0.282v-1.465c0-0.156-0.126-0.282-0.282-0.282zM52.031 12.237c-0.827 0-1.662 0.205-2.229 0.416v-3.096c0-0.156-0.126-0.282-0.282-0.282h-1.668c-0.156 0-0.282 0.126-0.282 0.282v10.662c0 0.136 0.098 0.253 0.232 0.278 1.029 0.188 2.245 0.254 2.973 0.254 3.134 0 3.776-1.333 3.776-3.335v-2.333c-0-1.888-0.848-2.846-2.52-2.846zM50.873 18.812c-0.423 0-0.774-0.017-1.070-0.051v-4.172c0.443-0.198 1.107-0.413 1.625-0.413 0.633 0 0.891 0.248 0.891 0.858v2.448c0 0.883-0.224 1.331-1.445 1.331zM57.68 9.275h-1.668c-0.156 0-0.282 0.126-0.282 0.282v10.749c0 0.156 0.126 0.282 0.282 0.282h1.668c0.156 0 0.282-0.126 0.282-0.282v-10.749c0-0.156-0.126-0.282-0.282-0.282zM62.632 12.237c-2.235 0-3.417 1.114-3.417 3.221v2.105c0 2.175 1.107 3.189 3.482 3.189 0.968 0 1.999-0.169 2.829-0.464 0.133-0.047 0.21-0.185 0.182-0.323l-0.247-1.194c-0.016-0.077-0.063-0.144-0.13-0.184s-0.148-0.052-0.223-0.030c-0.765 0.217-1.495 0.322-2.232 0.322-1.215 0-1.429-0.392-1.429-1.217v-0.287h4.139c0.156 0 0.282-0.126 0.282-0.282v-1.536c-0-2.264-1.029-3.319-3.237-3.319zM61.448 15.533v-0.271c0-0.786 0.381-1.152 1.2-1.152 0.905 0 1.086 0.441 1.086 1.152v0.271h-2.287zM10.707 17.841c0.283-0.616 0.553-1.244 0.804-1.888 0.429-1.101 0.917-2.305 1.025-3.559 0.026-0.297 0.043-0.562 0.023-0.812-0.009-0.364-0.106-0.679-0.317-0.912-0.035-0.039-0.074-0.072-0.11-0.109-0.131-0.149-0.279-0.273-0.436-0.379-0.199-0.143-0.407-0.261-0.615-0.351-1.234-0.53-2.581-0.743-3.905-0.723-1.324-0.020-2.673 0.194-3.907 0.723-0.208 0.089-0.417 0.208-0.616 0.351-0.156 0.105-0.304 0.23-0.436 0.379-0.036 0.037-0.075 0.070-0.109 0.109-0.211 0.234-0.308 0.548-0.318 0.913-0.019 0.249-0.002 0.515 0.023 0.812 0.108 1.254 0.596 2.458 1.025 3.559 0.251 0.645 0.521 1.272 0.804 1.888-1.348 0.43-2.193 1.097-2.193 1.826 0 0.775 0.987 1.459 2.49 1.867 0 0 0.001-0 0.002-0 0.018 0.005 0.036 0.008 0.055 0.008 0.132 0 0.238-0.123 0.238-0.275 0-0.125-0.072-0.229-0.171-0.262l-0.001-0.002c-1.116-0.381-1.705-0.902-1.705-1.246v-0.001c0.001-0.352 0.677-0.674 1.78-0.883 0.043 0.088 0.086 0.177 0.13 0.264 0.561 1.1 1.974 1.425 2.908 1.425s2.345-0.325 2.906-1.425c0.044-0.087 0.087-0.176 0.13-0.264 1.103 0.209 1.779 0.53 1.781 0.883v0.001c0 0.345-0.589 0.865-1.705 1.246l-0.001 0.002c-0.099 0.034-0.171 0.138-0.171 0.262 0 0.152 0.107 0.275 0.238 0.275 0.019 0 0.038-0.003 0.055-0.008 0.001 0 0.001 0 0.002 0 1.502-0.408 2.49-1.092 2.49-1.867 0-0.729-0.846-1.396-2.193-1.826zM2.869 11.729c-0.004-0.039 0.030-0.162 0.213-0.337 0.539-0.54 2.182-1.13 4.073-1.116 0.007 0 0.014 0.001 0.021 0.001s0.014-0.001 0.022-0.001c1.888-0.014 3.531 0.576 4.070 1.116 0.184 0.175 0.217 0.299 0.214 0.337 0.001 0.053-0.026 0.139-0.177 0.276-0.143 0.129-0.377 0.264-0.622 0.37-0.091 0.035-0.506 0.203-1.006 0.54-0.576 0.397-0.943 0.988-1.311 1.505-0.121 0.178-0.242 0.345-0.361 0.494h-0.001c-0.192 0.248-0.491 0.407-0.828 0.407s-0.636-0.16-0.828-0.407h-0.002c-0.119-0.149-0.24-0.316-0.361-0.494-0.368-0.517-0.737-1.108-1.313-1.505-0.499-0.337-0.914-0.505-1.005-0.54-0.245-0.106-0.479-0.241-0.622-0.37-0.15-0.137-0.178-0.223-0.177-0.275zM18.037 2.461c-0.014-0.044-0.055-0.074-0.1-0.074h-0.985c-0.046 0-0.087 0.030-0.101 0.074l-1.242 3.941c-0.010 0.032-0.005 0.067 0.015 0.094s0.051 0.043 0.085 0.043h0.678c0.047 0 0.088-0.031 0.101-0.075l0.856-2.899c0 0 0.022-0.072 0.1-0.072s0.098 0.075 0.098 0.075l0.397 1.374h-0.546c-0.047 0-0.089 0.031-0.101 0.077l-0.153 0.544c-0.009 0.032-0.003 0.066 0.017 0.092s0.051 0.042 0.084 0.042h0.92l0.239 0.767c0.014 0.044 0.055 0.074 0.101 0.074h0.678c0.034 0 0.065-0.016 0.085-0.043s0.026-0.062 0.016-0.094l-1.243-3.941zM20.991 5.932c-0.004-0.029-0.021-0.056-0.046-0.072s-0.055-0.022-0.084-0.015c-0.11 0.027-0.216 0.042-0.297 0.042-0.154 0-0.223-0.067-0.223-0.217v-1.51h0.606c0.058 0 0.106-0.047 0.106-0.105v-0.471c0-0.059-0.048-0.106-0.106-0.106h-0.606v-0.727c0-0.031-0.013-0.060-0.036-0.080s-0.054-0.029-0.084-0.025l-0.623 0.087c-0.052 0.007-0.091 0.052-0.091 0.105v0.64h-0.339c-0.058 0-0.105 0.047-0.105 0.106v0.471c0 0.058 0.047 0.105 0.105 0.105h0.339v1.608c0 0.552 0.291 0.832 0.863 0.832 0.163 0 0.44-0.037 0.62-0.101 0.048-0.017 0.077-0.065 0.070-0.115l-0.068-0.453zM22.145 2.307h-0.623c-0.058 0-0.106 0.047-0.106 0.106v4.022c0 0.058 0.047 0.106 0.106 0.106h0.623c0.058 0 0.106-0.047 0.106-0.106v-4.022c0-0.059-0.048-0.106-0.106-0.106zM23.749 3.418c-0.316 0-0.7 0.050-0.978 0.127-0.052 0.015-0.085 0.066-0.076 0.119l0.073 0.453c0.004 0.028 0.020 0.053 0.044 0.070s0.053 0.023 0.080 0.017c0.259-0.050 0.527-0.078 0.754-0.078 0.45 0 0.522 0.095 0.522 0.4v0.266h-0.668c-0.639 0-0.911 0.263-0.911 0.881 0 0.591 0.299 0.93 0.82 0.93 0.302 0 0.603-0.084 0.857-0.237l0.027 0.098c0.012 0.046 0.054 0.078 0.102 0.078h0.504c0.058 0 0.106-0.047 0.106-0.106v-1.897c0-0.816-0.34-1.119-1.253-1.119zM24.167 5.417v0.367c-0.103 0.055-0.29 0.134-0.516 0.134-0.194 0-0.254-0.059-0.254-0.254 0-0.189 0.037-0.248 0.266-0.248h0.503zM26.564 4.645c-0.387-0.1-0.387-0.104-0.387-0.316 0-0.142 0.014-0.211 0.333-0.211 0.218 0 0.541 0.038 0.747 0.073 0.029 0.005 0.058-0.002 0.081-0.019s0.038-0.043 0.042-0.072l0.059-0.475c0.006-0.053-0.028-0.103-0.081-0.116-0.239-0.056-0.572-0.092-0.848-0.092-0.959 0-1.155 0.362-1.155 0.905 0 0.597 0.111 0.798 0.846 0.977 0.484 0.116 0.484 0.203 0.484 0.346 0 0.188-0.016 0.254-0.333 0.254-0.255 0-0.55-0.040-0.81-0.109-0.028-0.008-0.059-0.003-0.084 0.013s-0.042 0.041-0.047 0.070l-0.082 0.451c-0.010 0.052 0.021 0.103 0.071 0.12 0.283 0.092 0.689 0.156 0.988 0.156 0.929 0 1.119-0.389 1.119-0.972 0-0.644-0.115-0.764-0.943-0.983zM28.973 4.645c-0.387-0.1-0.387-0.104-0.387-0.316 0-0.142 0.014-0.211 0.333-0.211 0.218 0 0.541 0.038 0.747 0.073 0.028 0.005 0.058-0.002 0.081-0.019s0.038-0.043 0.042-0.072l0.059-0.475c0.007-0.053-0.028-0.103-0.081-0.116-0.239-0.056-0.572-0.092-0.848-0.092-0.959 0-1.155 0.362-1.155 0.905 0 0.597 0.111 0.798 0.846 0.977 0.484 0.116 0.484 0.203 0.484 0.346 0 0.188-0.016 0.254-0.333 0.254-0.255 0-0.55-0.040-0.81-0.109-0.029-0.008-0.059-0.003-0.084 0.013s-0.042 0.041-0.047 0.070l-0.082 0.451c-0.009 0.052 0.021 0.103 0.071 0.12 0.283 0.092 0.689 0.156 0.989 0.156 0.928 0 1.119-0.389 1.119-0.972 0-0.644-0.115-0.764-0.943-0.983zM30.99 2.306h-0.623c-0.058 0-0.106 0.047-0.106 0.106v0.554c0 0.058 0.047 0.106 0.106 0.106h0.623c0.058 0 0.105-0.047 0.105-0.106v-0.554c0-0.058-0.047-0.106-0.105-0.106zM30.99 3.479h-0.623c-0.058 0-0.106 0.047-0.106 0.106v2.849c0 0.058 0.047 0.106 0.106 0.106h0.623c0.058 0 0.105-0.047 0.105-0.106v-2.849c0-0.059-0.047-0.106-0.105-0.106zM32.609 3.418c-0.316 0-0.7 0.050-0.978 0.127-0.052 0.015-0.085 0.066-0.076 0.119l0.073 0.453c0.005 0.028 0.020 0.053 0.044 0.070s0.052 0.023 0.081 0.017c0.259-0.050 0.527-0.078 0.754-0.078 0.45 0 0.522 0.095 0.522 0.4v0.266h-0.668c-0.639 0-0.911 0.263-0.911 0.881 0 0.591 0.299 0.93 0.82 0.93 0.301 0 0.603-0.084 0.857-0.237l0.027 0.098c0.013 0.046 0.054 0.078 0.102 0.078h0.503c0.058 0 0.106-0.047 0.106-0.106v-1.897c0-0.816-0.34-1.119-1.253-1.119zM33.027 5.417v0.367c-0.103 0.055-0.291 0.134-0.516 0.134-0.194 0-0.254-0.059-0.254-0.254 0-0.189 0.037-0.248 0.266-0.248h0.504zM36.168 3.418c-0.331 0-0.781 0.114-1.161 0.292l-0.046-0.156c-0.013-0.045-0.055-0.076-0.101-0.076h-0.462c-0.058 0-0.106 0.047-0.106 0.106v2.849c0 0.058 0.047 0.106 0.106 0.106h0.623c0.058 0 0.105-0.047 0.105-0.106v-1.973c0.225-0.114 0.54-0.232 0.729-0.232 0.14 0 0.193 0.052 0.193 0.193v2.013c0 0.058 0.047 0.106 0.106 0.106h0.623c0.058 0 0.106-0.047 0.106-0.106v-2.092c-0-0.613-0.241-0.924-0.716-0.924z"></path>
</svg>
