<?xml version="1.0" encoding="utf-8"?>
<!-- Generated by IcoMoon.io -->
<!DOCTYPE svg PUBLIC "-//W3C//DTD SVG 1.1//EN" "http://www.w3.org/Graphics/SVG/1.1/DTD/svg11.dtd">
<svg version="1.1" xmlns="http://www.w3.org/2000/svg" xmlns:xlink="http://www.w3.org/1999/xlink" width="67" height="24" viewBox="0 0 67 24">
<path fill="#444444" d="M23.727 9.478h-6.4c-0.156 0-0.282 0.126-0.282 0.282v10.544c0 0.156 0.127 0.282 0.282 0.282h1.733c0.156 0 0.282-0.127 0.282-0.282v-4.074h4.025c0.156 0 0.282-0.126 0.282-0.282v-1.488c0-0.156-0.126-0.282-0.282-0.282h-4.025v-2.646h4.384c0.156 0 0.282-0.126 0.282-0.282v-1.488c0-0.156-0.127-0.282-0.282-0.282zM26.898 12.495h-1.668c-0.156 0-0.282 0.126-0.282 0.282v7.526c0 0.156 0.126 0.282 0.282 0.282h1.668c0.156 0 0.282-0.126 0.282-0.282v-7.526c0-0.156-0.127-0.282-0.282-0.282zM26.898 9.478h-1.668c-0.156 0-0.282 0.126-0.282 0.282v1.472c0 0.156 0.126 0.282 0.282 0.282h1.668c0.156 0 0.282-0.126 0.282-0.282v-1.472c0-0.156-0.127-0.282-0.282-0.282zM31.359 15.519c-1.035-0.267-1.035-0.278-1.035-0.846 0-0.381 0.038-0.564 0.891-0.564 0.584 0 1.446 0.102 2 0.197 0.076 0.013 0.154-0.006 0.216-0.052s0.102-0.115 0.112-0.192l0.157-1.271c0.018-0.143-0.075-0.277-0.216-0.31-0.64-0.149-1.531-0.246-2.269-0.246-2.565 0-3.091 0.968-3.091 2.422 0 1.598 0.297 2.135 2.263 2.614 1.294 0.311 1.294 0.543 1.294 0.927 0 0.504-0.043 0.678-0.891 0.678-0.682 0-1.472-0.106-2.166-0.291-0.076-0.020-0.157-0.008-0.224 0.034s-0.113 0.11-0.127 0.188l-0.221 1.206c-0.025 0.139 0.056 0.276 0.191 0.319 0.757 0.246 1.845 0.417 2.645 0.417 2.484 0 2.993-1.040 2.993-2.601-0-1.724-0.306-2.043-2.522-2.629zM39.745 12.235c-0.814 0-1.908 0.275-2.783 0.693v-3.168c0-0.156-0.126-0.282-0.282-0.282h-1.668c-0.156 0-0.282 0.126-0.282 0.282v10.543c0 0.156 0.127 0.282 0.282 0.282h1.668c0.156 0 0.282-0.126 0.282-0.282v-5.279c0.601-0.306 1.446-0.622 1.951-0.622 0.376 0 0.515 0.14 0.515 0.515v5.386c0 0.156 0.127 0.282 0.282 0.282h1.668c0.156 0 0.282-0.126 0.282-0.282v-5.598c0-1.639-0.644-2.47-1.916-2.47zM49.555 11.531c0.156 0 0.282-0.126 0.282-0.282v-1.488c0-0.156-0.126-0.282-0.282-0.282h-6.334c-0.156 0-0.282 0.126-0.282 0.282v10.544c0 0.156 0.126 0.282 0.282 0.282h6.334c0.156 0 0.282-0.126 0.282-0.282v-1.488c0-0.156-0.126-0.282-0.282-0.282h-4.319v-2.564h3.96c0.156 0 0.282-0.126 0.282-0.282v-1.488c0-0.156-0.126-0.282-0.282-0.282h-3.96v-2.385h4.319zM61.435 12.235c-2.235 0-3.417 1.114-3.417 3.221v2.104c0 2.175 1.107 3.188 3.482 3.188 0.968 0 2-0.169 2.829-0.464 0.133-0.047 0.21-0.185 0.182-0.323l-0.247-1.194c-0.016-0.077-0.063-0.144-0.13-0.184s-0.148-0.052-0.224-0.030c-0.765 0.217-1.495 0.322-2.232 0.322-1.215 0-1.429-0.392-1.429-1.217v-0.287h4.139c0.156 0 0.282-0.126 0.282-0.282v-1.535c-0-2.264-1.029-3.319-3.237-3.319zM60.25 15.531v-0.271c0-0.786 0.382-1.152 1.201-1.152 0.904 0 1.086 0.441 1.086 1.152v0.271h-2.287zM57.793 12.495c-0.053-0.073-0.138-0.116-0.228-0.116h-1.699c-0.123 0-0.232 0.080-0.269 0.198l-1.531 4.867-1.793-4.879c-0.041-0.111-0.147-0.185-0.265-0.185h-1.698c-0.093 0-0.18 0.046-0.233 0.123s-0.064 0.175-0.030 0.261l3.031 7.821-0.817 2.608c-0.027 0.086-0.011 0.179 0.042 0.252s0.138 0.115 0.228 0.115h1.603c0.122 0 0.231-0.079 0.269-0.196l3.432-10.617c0.028-0.086 0.013-0.18-0.040-0.253zM19.477 2.464c-0.014-0.044-0.054-0.074-0.101-0.074h-0.984c-0.046 0-0.087 0.030-0.101 0.074l-1.242 3.938c-0.010 0.032-0.004 0.067 0.016 0.094s0.051 0.043 0.085 0.043h0.678c0.047 0 0.088-0.031 0.101-0.076l0.855-2.896c0 0 0.022-0.072 0.1-0.072 0.079 0 0.098 0.075 0.098 0.075l0.397 1.373h-0.533c-0.047 0-0.089 0.031-0.102 0.077l-0.153 0.544c-0.009 0.032-0.002 0.066 0.017 0.092s0.051 0.042 0.084 0.042h0.908l0.239 0.767c0.014 0.044 0.054 0.074 0.101 0.074h0.678c0.034 0 0.065-0.016 0.085-0.043s0.026-0.062 0.016-0.094l-1.242-3.938zM22.429 5.932c-0.005-0.029-0.021-0.056-0.046-0.072s-0.055-0.022-0.084-0.015c-0.11 0.027-0.215 0.042-0.297 0.042-0.154 0-0.223-0.067-0.223-0.217v-1.509h0.605c0.058 0 0.105-0.047 0.105-0.106v-0.471c0-0.058-0.047-0.105-0.105-0.105h-0.605v-0.727c0-0.030-0.013-0.060-0.036-0.080s-0.054-0.029-0.084-0.025l-0.623 0.087c-0.052 0.007-0.091 0.052-0.091 0.105v0.64h-0.339c-0.058 0-0.106 0.047-0.106 0.105v0.471c0 0.058 0.047 0.106 0.106 0.106h0.339v1.606c0 0.552 0.29 0.831 0.862 0.831 0.163 0 0.439-0.038 0.62-0.1 0.048-0.017 0.077-0.065 0.070-0.115l-0.068-0.452zM23.582 2.307h-0.623c-0.058 0-0.106 0.047-0.106 0.105v4.022c0 0.058 0.047 0.105 0.106 0.105l0.623 0c0.058 0 0.106-0.047 0.106-0.105v-4.021c-0-0.058-0.047-0.106-0.106-0.106zM25.184 3.42c-0.315 0-0.699 0.050-0.978 0.127-0.052 0.014-0.085 0.065-0.076 0.118l0.073 0.452c0.004 0.028 0.020 0.053 0.044 0.070s0.052 0.022 0.081 0.017c0.259-0.050 0.526-0.078 0.753-0.078 0.45 0 0.521 0.095 0.521 0.4v0.266h-0.668c-0.638 0-0.91 0.263-0.91 0.88 0 0.59 0.299 0.929 0.819 0.929 0.301 0 0.603-0.084 0.856-0.236l0.027 0.098c0.013 0.046 0.054 0.078 0.102 0.078h0.503c0.058 0 0.106-0.047 0.106-0.106v-1.896c0-0.815-0.339-1.118-1.252-1.118zM25.602 5.418v0.367c-0.103 0.055-0.29 0.134-0.515 0.134-0.194 0-0.253-0.059-0.253-0.253 0-0.189 0.037-0.247 0.266-0.247h0.503zM27.997 4.646c-0.387-0.1-0.387-0.104-0.387-0.316 0-0.142 0.014-0.211 0.333-0.211 0.218 0 0.54 0.038 0.747 0.074 0.028 0.005 0.058-0.002 0.081-0.019s0.038-0.043 0.042-0.072l0.059-0.475c0.007-0.054-0.028-0.104-0.081-0.116-0.239-0.056-0.572-0.092-0.847-0.092-0.958 0-1.154 0.362-1.154 0.904 0 0.597 0.111 0.798 0.845 0.977 0.483 0.116 0.483 0.203 0.483 0.346 0 0.188-0.016 0.253-0.333 0.253-0.255 0-0.55-0.040-0.809-0.109-0.028-0.008-0.059-0.003-0.083 0.013s-0.042 0.041-0.047 0.070l-0.082 0.45c-0.010 0.052 0.021 0.103 0.071 0.119 0.283 0.092 0.689 0.156 0.988 0.156 0.928 0 1.118-0.388 1.118-0.971-0-0.644-0.114-0.763-0.942-0.982zM30.404 4.646c-0.387-0.1-0.387-0.104-0.387-0.316 0-0.142 0.014-0.211 0.333-0.211 0.218 0 0.54 0.038 0.747 0.074 0.029 0.005 0.058-0.002 0.081-0.019s0.038-0.043 0.042-0.072l0.059-0.475c0.007-0.054-0.028-0.104-0.081-0.116-0.239-0.056-0.572-0.092-0.847-0.092-0.958 0-1.154 0.362-1.154 0.904 0 0.597 0.111 0.798 0.845 0.977 0.483 0.116 0.483 0.203 0.483 0.346 0 0.188-0.016 0.253-0.333 0.253-0.255 0-0.55-0.040-0.809-0.109-0.028-0.008-0.059-0.003-0.084 0.013s-0.042 0.041-0.047 0.070l-0.082 0.45c-0.009 0.052 0.021 0.103 0.071 0.119 0.283 0.092 0.689 0.156 0.988 0.156 0.928 0 1.118-0.388 1.118-0.971 0-0.644-0.115-0.763-0.942-0.982zM32.42 2.306h-0.623c-0.058 0-0.106 0.047-0.106 0.106v0.553c0 0.058 0.047 0.105 0.106 0.105h0.623c0.058 0 0.106-0.047 0.106-0.105v-0.553c0-0.058-0.047-0.106-0.106-0.106zM32.42 3.481h-0.623c-0.058 0-0.106 0.047-0.106 0.105v2.847c0 0.058 0.047 0.106 0.106 0.106h0.623c0.058 0 0.106-0.047 0.106-0.106v-2.847c0-0.058-0.047-0.105-0.106-0.105zM34.038 3.42c-0.316 0-0.699 0.050-0.978 0.127-0.052 0.014-0.085 0.065-0.076 0.118l0.073 0.452c0.004 0.028 0.020 0.053 0.044 0.070s0.052 0.022 0.081 0.017c0.259-0.050 0.527-0.078 0.753-0.078 0.45 0 0.522 0.095 0.522 0.4v0.266h-0.668c-0.638 0-0.911 0.263-0.911 0.88 0 0.59 0.299 0.929 0.819 0.929 0.301 0 0.603-0.084 0.856-0.236l0.027 0.098c0.012 0.046 0.054 0.078 0.102 0.078h0.503c0.058 0 0.106-0.047 0.106-0.106v-1.896c0-0.815-0.339-1.118-1.252-1.118zM34.456 5.418v0.367c-0.103 0.055-0.29 0.134-0.515 0.134-0.194 0-0.253-0.059-0.253-0.253 0-0.189 0.037-0.247 0.266-0.247h0.503zM37.594 3.42c-0.33 0-0.78 0.114-1.16 0.292l-0.046-0.156c-0.013-0.045-0.054-0.076-0.101-0.076h-0.461c-0.058 0-0.106 0.047-0.106 0.105v2.847c0 0.058 0.047 0.106 0.106 0.106h0.623c0.058 0 0.106-0.047 0.106-0.106v-1.972c0.224-0.114 0.54-0.232 0.729-0.232 0.14 0 0.192 0.052 0.192 0.192v2.012c0 0.058 0.047 0.106 0.105 0.106h0.623c0.058 0 0.106-0.047 0.106-0.106v-2.091c0-0.612-0.241-0.923-0.716-0.923zM7.956 8.745c-3.638-0.011-6.595 2.962-6.607 6.642 0 0.058 0.001 0.113 0.002 0.171 0.013 0.223 0.189 0.32 0.326 0.32 0.146 0 0.291-0.095 0.322-0.275 0.2-1.114 0.737-2.11 1.498-2.875 0.975-0.98 2.321-1.584 3.806-1.58 1.484 0.003 2.828 0.616 3.796 1.602 0.969 0.984 1.566 2.345 1.562 3.846-0.004 1.496-0.61 2.854-1.584 3.834-0.081 0.081-0.165 0.158-0.251 0.235-0.093 0.083-0.106 0.186-0.106 0.24 0 0.247 0.268 0.409 0.49 0.281 1.973-1.145 3.306-3.294 3.313-5.761 0.011-3.678-2.93-6.669-6.568-6.68zM9.9 17.348c-1.038-1.465-2.664-2.485-4.539-2.702-0.473-0.055-0.873 0.234-1.030 0.6-0.331 0.768-0.494 1.616-0.504 2.506-0.011 0.993 0.174 1.936 0.561 2.782 0.17 0.371 0.568 0.624 1.034 0.571 1.829-0.209 3.43-1.184 4.475-2.597 0.161-0.219 0.202-0.463 0.184-0.674-0.018-0.208-0.104-0.377-0.181-0.487zM6.505 17.682c-0.005 0.473-0.393 0.853-0.866 0.847s-0.852-0.394-0.848-0.866c0.006-0.472 0.393-0.854 0.867-0.848s0.853 0.393 0.847 0.867z"></path>
</svg>
