<?xml version="1.0" encoding="utf-8"?>
<!-- Generated by IcoMoon.io -->
<!DOCTYPE svg PUBLIC "-//W3C//DTD SVG 1.1//EN" "http://www.w3.org/Graphics/SVG/1.1/DTD/svg11.dtd">
<svg version="1.1" xmlns="http://www.w3.org/2000/svg" xmlns:xlink="http://www.w3.org/1999/xlink" width="88" height="24" viewBox="0 0 88 24">
<path fill="#444444" d="M43.834 10.331c0.674 0 1.606 0.094 2.494 0.248 0.076 0.014 0.155-0.005 0.217-0.051 0.063-0.047 0.104-0.116 0.114-0.194l0.19-1.479c0.019-0.145-0.074-0.279-0.216-0.313-0.89-0.214-1.908-0.331-2.864-0.331-2.668 0-4.023 1.111-4.023 3.296v4.937c0 2.189 1.354 3.298 4.023 3.298 0.956 0 1.974-0.118 2.864-0.33 0.142-0.034 0.235-0.169 0.216-0.313l-0.19-1.48c-0.009-0.077-0.051-0.146-0.114-0.192s-0.141-0.066-0.217-0.053c-0.888 0.155-1.821 0.248-2.494 0.248-1.323 0-1.77-0.389-1.77-1.54v-4.213c0-1.152 0.447-1.54 1.77-1.54zM26.343 8.375h-1.747c-0.157 0-0.285 0.128-0.285 0.286v4.223h-3.82v-4.223c0-0.158-0.128-0.286-0.285-0.286h-1.747c-0.158 0-0.285 0.128-0.285 0.286v10.632c0 0.157 0.128 0.285 0.285 0.285h1.747c0.158 0 0.285-0.128 0.285-0.285v-4.338h3.82v4.338c0 0.157 0.128 0.285 0.285 0.285h1.747c0.157 0 0.285-0.128 0.285-0.285v-10.632c0-0.158-0.128-0.286-0.285-0.286zM58.833 11.158c-0.851 0-1.887 0.134-2.639 0.34-0.141 0.040-0.229 0.178-0.206 0.322l0.197 1.22c0.012 0.076 0.055 0.144 0.118 0.188s0.142 0.061 0.218 0.046c0.699-0.136 1.422-0.211 2.033-0.211 1.213 0 1.408 0.256 1.408 1.079v0.718h-1.802c-1.723 0-2.459 0.71-2.459 2.376 0 1.593 0.807 2.507 2.212 2.507 0.812 0 1.626-0.226 2.311-0.639l0.072 0.264c0.034 0.124 0.147 0.211 0.274 0.211h1.359c0.157 0 0.284-0.128 0.284-0.285v-5.119c-0-2.199-0.916-3.017-3.38-3.017zM59.961 16.55v0.992c-0.278 0.149-0.783 0.36-1.392 0.36-0.524 0-0.684-0.16-0.684-0.684 0-0.508 0.099-0.668 0.718-0.668h1.358zM68.044 17.94c-0.012-0.079-0.057-0.15-0.124-0.195-0.065-0.044-0.149-0.058-0.225-0.040-0.297 0.075-0.582 0.115-0.802 0.115-0.417 0-0.601-0.179-0.601-0.585v-4.074h1.633c0.157 0 0.284-0.127 0.284-0.284v-1.271c0-0.156-0.127-0.284-0.284-0.284h-1.633v-1.961c0-0.083-0.036-0.161-0.099-0.215s-0.144-0.078-0.225-0.066l-1.683 0.234c-0.14 0.020-0.245 0.14-0.245 0.282v1.727h-0.917c-0.158 0-0.285 0.128-0.285 0.284v1.271c0 0.157 0.127 0.284 0.285 0.284h0.917v4.337c0 1.489 0.782 2.244 2.327 2.244 0.44 0 1.185-0.101 1.674-0.27 0.128-0.045 0.209-0.175 0.187-0.311l-0.185-1.221zM29.999 11.322h-1.683c-0.157 0-0.284 0.128-0.284 0.284v7.688c0 0.156 0.127 0.285 0.284 0.285h1.683c0.158 0 0.285-0.129 0.285-0.285v-7.688c0-0.156-0.127-0.284-0.285-0.284zM29.999 8.055h-1.683c-0.157 0-0.284 0.127-0.284 0.284v1.668c0 0.158 0.127 0.285 0.284 0.285h1.683c0.158 0 0.285-0.127 0.285-0.285v-1.668c0-0.157-0.127-0.284-0.285-0.284zM36 11.158c-0.892 0-1.701 0.249-2.463 0.764l-0.116-0.396c-0.036-0.12-0.147-0.203-0.274-0.203h-1.311c-0.157 0-0.285 0.128-0.285 0.284v10.95c0 0.157 0.128 0.285 0.285 0.285h1.681c0.158 0 0.285-0.128 0.285-0.285v-3.016c0.659 0.128 1.403 0.203 2.018 0.203 1.84 0 2.771-0.993 2.771-2.951v-2.733c0-2.399-1.408-2.901-2.59-2.901zM36.34 14.010v2.83c0 0.682-0.248 0.947-0.883 0.947-0.64 0-1.317-0.12-1.656-0.19v-3.829c0.372-0.323 1.035-0.656 1.672-0.656 0.622 0 0.866 0.252 0.866 0.898zM52.878 11.158c-0.823 0-1.925 0.277-2.808 0.699v-3.516c0-0.159-0.127-0.287-0.284-0.287h-1.681c-0.157 0-0.285 0.127-0.285 0.287v10.955c0 0.155 0.128 0.284 0.285 0.284h1.681c0.157 0 0.284-0.129 0.284-0.284v-5.326c0.606-0.308 1.459-0.627 1.968-0.627 0.379 0 0.52 0.141 0.52 0.52v5.432c0 0.155 0.127 0.284 0.285 0.284h1.682c0.157 0 0.285-0.129 0.285-0.284v-5.647c0-1.652-0.65-2.49-1.931-2.49zM19.508 1.319c-0.014-0.044-0.055-0.074-0.102-0.074h-0.992c-0.046 0-0.088 0.030-0.101 0.074l-1.252 3.971c-0.011 0.033-0.004 0.067 0.016 0.095s0.052 0.043 0.086 0.043h0.683c0.047 0 0.088-0.031 0.102-0.075l0.862-2.921c0 0 0.023-0.073 0.101-0.073 0.080 0 0.099 0.076 0.099 0.076l0.4 1.384h-0.538c-0.047 0-0.089 0.033-0.102 0.078l-0.154 0.548c-0.009 0.032-0.003 0.067 0.018 0.093 0.020 0.028 0.051 0.043 0.084 0.043h0.915l0.241 0.773c0.014 0.045 0.056 0.075 0.101 0.075h0.684c0.035 0 0.066-0.016 0.086-0.043s0.026-0.062 0.016-0.095l-1.252-3.971zM22.484 4.816c-0.005-0.030-0.022-0.056-0.046-0.072s-0.055-0.022-0.085-0.015c-0.111 0.028-0.217 0.043-0.299 0.043-0.155 0-0.224-0.068-0.224-0.218v-1.522h0.61c0.058 0 0.106-0.047 0.106-0.105v-0.474c0-0.059-0.048-0.107-0.106-0.107h-0.61v-0.732c0-0.031-0.014-0.060-0.036-0.080s-0.054-0.029-0.085-0.025l-0.628 0.087c-0.053 0.007-0.092 0.053-0.092 0.105v0.644h-0.342c-0.059 0-0.107 0.048-0.107 0.107v0.474c0 0.058 0.048 0.105 0.107 0.105h0.342v1.62c0 0.556 0.292 0.839 0.869 0.839 0.165 0 0.443-0.037 0.626-0.101 0.048-0.017 0.078-0.066 0.070-0.117l-0.068-0.456zM23.647 1.16h-0.628c-0.059 0-0.106 0.048-0.106 0.106v4.055c0 0.059 0.048 0.107 0.106 0.107h0.628c0.058 0 0.106-0.048 0.106-0.107v-4.055c0-0.059-0.048-0.106-0.106-0.106zM25.263 2.283c-0.319 0-0.705 0.050-0.986 0.128-0.053 0.015-0.086 0.066-0.077 0.119l0.074 0.456c0.004 0.029 0.021 0.053 0.044 0.070s0.053 0.023 0.081 0.017c0.261-0.051 0.531-0.079 0.759-0.079 0.454 0 0.526 0.096 0.526 0.403v0.268h-0.674c-0.643 0-0.918 0.265-0.918 0.887 0 0.595 0.302 0.937 0.826 0.937 0.304 0 0.608-0.084 0.863-0.239l0.026 0.099c0.013 0.045 0.055 0.078 0.103 0.078h0.507c0.059 0 0.106-0.048 0.106-0.107v-1.911c0-0.821-0.342-1.127-1.262-1.127zM25.684 4.297v0.37c-0.104 0.056-0.293 0.136-0.52 0.136-0.196 0-0.255-0.060-0.255-0.256 0-0.19 0.036-0.249 0.267-0.249h0.507zM28.099 3.52c-0.39-0.1-0.39-0.105-0.39-0.319 0-0.143 0.014-0.213 0.335-0.213 0.22 0 0.545 0.038 0.753 0.074 0.029 0.006 0.058-0.002 0.081-0.019s0.039-0.043 0.042-0.072l0.059-0.479c0.006-0.054-0.029-0.105-0.081-0.117-0.241-0.056-0.576-0.092-0.854-0.092-0.966 0-1.164 0.364-1.164 0.912 0 0.602 0.113 0.804 0.852 0.985 0.487 0.117 0.487 0.204 0.487 0.349 0 0.189-0.016 0.256-0.335 0.256-0.257 0-0.554-0.040-0.815-0.11-0.029-0.007-0.059-0.003-0.084 0.013s-0.042 0.041-0.048 0.070l-0.083 0.455c-0.009 0.052 0.021 0.103 0.072 0.12 0.285 0.093 0.695 0.158 0.995 0.158 0.935 0 1.127-0.391 1.127-0.979 0-0.649-0.115-0.769-0.949-0.99zM30.526 3.52c-0.39-0.1-0.39-0.105-0.39-0.319 0-0.143 0.014-0.213 0.335-0.213 0.221 0 0.545 0.038 0.753 0.074 0.029 0.006 0.059-0.002 0.082-0.019 0.023-0.017 0.039-0.043 0.042-0.072l0.060-0.479c0.007-0.054-0.029-0.105-0.081-0.117-0.242-0.056-0.577-0.092-0.855-0.092-0.965 0-1.163 0.364-1.163 0.912 0 0.602 0.112 0.804 0.852 0.985 0.487 0.117 0.487 0.204 0.487 0.349 0 0.189-0.016 0.256-0.335 0.256-0.257 0-0.554-0.040-0.816-0.11-0.029-0.007-0.059-0.003-0.084 0.013s-0.042 0.041-0.048 0.070l-0.084 0.455c-0.009 0.052 0.021 0.103 0.072 0.12 0.285 0.093 0.695 0.158 0.996 0.158 0.935 0 1.128-0.391 1.128-0.979 0-0.649-0.116-0.769-0.95-0.99zM32.558 1.16h-0.628c-0.059 0-0.107 0.048-0.107 0.106v0.557c0 0.059 0.048 0.107 0.107 0.107h0.628c0.059 0 0.107-0.048 0.107-0.107v-0.557c0-0.058-0.048-0.106-0.107-0.106zM32.558 2.344h-0.628c-0.059 0-0.107 0.048-0.107 0.107v2.87c0 0.059 0.048 0.106 0.107 0.106h0.628c0.059 0 0.107-0.048 0.107-0.106v-2.87c0-0.059-0.048-0.107-0.107-0.107zM34.189 2.283c-0.318 0-0.705 0.050-0.986 0.128-0.052 0.015-0.085 0.066-0.077 0.119l0.073 0.456c0.005 0.029 0.021 0.054 0.045 0.070s0.052 0.023 0.081 0.017c0.261-0.051 0.531-0.079 0.759-0.079 0.454 0 0.526 0.096 0.526 0.403v0.268h-0.673c-0.643 0-0.918 0.265-0.918 0.887 0 0.595 0.301 0.937 0.826 0.937 0.303 0 0.607-0.084 0.863-0.239l0.027 0.099c0.012 0.045 0.054 0.078 0.102 0.078h0.508c0.058 0 0.106-0.048 0.106-0.107v-1.911c0-0.821-0.342-1.127-1.263-1.127zM34.611 4.297v0.37c-0.104 0.055-0.293 0.136-0.52 0.136-0.196 0-0.255-0.060-0.255-0.256 0-0.19 0.037-0.249 0.268-0.249h0.507zM37.775 2.283c-0.333 0-0.786 0.115-1.169 0.294l-0.046-0.156c-0.013-0.046-0.055-0.077-0.102-0.077h-0.465c-0.059 0-0.107 0.048-0.107 0.107v2.87c0 0.059 0.048 0.107 0.107 0.107h0.628c0.058 0 0.107-0.048 0.107-0.107v-1.988c0.226-0.115 0.544-0.234 0.734-0.234 0.142 0 0.194 0.053 0.194 0.194v2.028c0 0.059 0.048 0.107 0.107 0.107h0.628c0.059 0 0.106-0.048 0.106-0.107v-2.108c0-0.617-0.242-0.93-0.721-0.93zM12.654 15.411c-0-0.156-0.126-0.296-0.296-0.296-0.068 0-0.139 0.023-0.196 0.075-0.749 0.673-2.024 1.268-3.565 1.272h-0.006c-1.539-0.004-2.777-0.623-3.565-1.272-0.050-0.041-0.142-0.069-0.202-0.069-0.183 0-0.29 0.156-0.29 0.327-0 0.132 0.093 0.243 0.169 0.357 0.442 0.664 1.813 1.79 3.875 1.79h0.032c2.063 0 3.433-1.126 3.875-1.79 0.076-0.114 0.169-0.263 0.169-0.395zM14.705 20.582c-0.525-0.299-1.023-0.805-1.252-1.498-0.045-0.136-0.005-0.246 0.1-0.327 1.519-1.175 2.475-2.88 2.475-4.779 0-3.542-3.328-6.413-7.434-6.413s-7.434 2.871-7.434 6.413c0 3.544 3.329 6.416 7.434 6.416 0.536 0 1.060-0.049 1.564-0.142 0.124-0.023 0.224 0.006 0.307 0.057 1.017 0.624 2.533 1.148 3.861 1.148 0.428 0 0.593-0.272 0.593-0.519 0-0.159-0.086-0.283-0.214-0.356zM12.715 19.958c0.023 0.031 0.036 0.057 0.036 0.086 0 0.043-0.041 0.073-0.092 0.073-0.372 0-1.52-0.619-2.124-1.128-0.083-0.070-0.198-0.095-0.363-0.060-0.504 0.11-1.032 0.169-1.578 0.169-3.417 0-6.188-2.287-6.188-5.11 0-2.821 2.771-5.108 6.188-5.108s6.188 2.287 6.188 5.108c0 1.684-0.987 3.178-2.508 4.108-0.102 0.062-0.21 0.179-0.21 0.326 0 0.3 0.282 1.045 0.652 1.536z"></path>
</svg>
