<?xml version="1.0" encoding="utf-8"?>
<!-- Generated by IcoMoon.io -->
<!DOCTYPE svg PUBLIC "-//W3C//DTD SVG 1.1//EN" "http://www.w3.org/Graphics/SVG/1.1/DTD/svg11.dtd">
<svg version="1.1" xmlns="http://www.w3.org/2000/svg" xmlns:xlink="http://www.w3.org/1999/xlink" width="88" height="24" viewBox="0 0 88 24">
<path fill="#444444" d="M16.235 11.722c0 1.447-0.405 2.795-1.101 3.937 0.171-0 0.349 0.007 0.508 0.058 0.672-1.174 1.060-2.538 1.060-3.995 0-2.187-0.867-4.169-2.269-5.603-0.060-0.062-0.12-0.121-0.181-0.181 0.009 0.232 0.017 0.46 0.004 0.689 1.22 1.333 1.979 3.122 1.979 5.094zM3.838 17.038c-0.014-0.013-0.027-0.026-0.041-0.040-1.32-1.35-2.136-3.214-2.136-5.276s0.817-3.926 2.136-5.276c0.082-0.084 0.166-0.164 0.252-0.243-0.043-0.19-0.049-0.385-0.049-0.58-0.186 0.158-0.366 0.322-0.537 0.497-1.402 1.434-2.269 3.416-2.269 5.603s0.867 4.168 2.269 5.603c0.133 0.136 0.271 0.265 0.414 0.391-0.043-0.221-0.043-0.451-0.039-0.678zM9.393 4.364c-0.781-0.182-1.169 0.327-1.406 0.854-0.211-0.051-0.127-0.339-0.074-0.485 0.14-0.384 0.703-0.896 1.163-0.827 0.198 0.030 0.466 0.211 0.316 0.458zM13.197 5.254c0.012 0.001 0.025 0.001 0.037 0.002 0.176 0.367 0.329 0.755 0.552 1.079-0.149 0.347-1.129 0.655-1.114 0.031 0.212-0.093 0.578-0.019 0.766-0.137-0.109-0.298-0.265-0.552-0.24-0.974zM9.793 5.263c0.167 0.307 0.222 0.629 0.46 0.861 0.107 0.104 0.315 0.232 0.212 0.522-0.024 0.069-0.201 0.221-0.302 0.251-0.372 0.11-1.239 0.023-0.945-0.441 0.308 0.014 0.721 0.2 0.951-0.024-0.177-0.282-0.492-0.841-0.376-1.17zM13.058 8.383c-0.56 0.36-1.185 0.751-2.103 0.661-0.196-0.171-0.271-0.55-0.080-0.801 0.099 0.171 0.037 0.484 0.313 0.531 0.521 0.089 1.127-0.319 1.502-0.461 0.232-0.392-0.020-0.536-0.229-0.788-0.428-0.517-1.003-1.157-0.982-1.93 0.173-0.126 0.188 0.192 0.213 0.249 0.224 0.524 0.787 1.193 1.198 1.641 0.101 0.11 0.267 0.216 0.285 0.289 0.054 0.212-0.138 0.466-0.116 0.607zM5.672 8.004c-0.176-0.1-0.217-0.542-0.424-0.554-0.295-0.018-0.241 0.573-0.24 0.918-0.203-0.184-0.239-0.751-0.089-1.042-0.17-0.083-0.246 0.092-0.34 0.154 0.121-0.879 1.286-0.408 1.093 0.524zM13.415 8.749c-0.261 0.496-0.63 1.043-1.395 1.059-0.016-0.16-0.028-0.404 0.001-0.501 0.585-0.056 0.946-0.354 1.394-0.558zM9.748 9.071c0.488 0.257 1.385 0.284 2.048 0.265 0.036 0.145 0.035 0.325 0.036 0.502-0.853 0.043-1.861-0.168-2.084-0.767zM9.656 9.549c0.337 0.847 1.498 0.75 2.476 0.726-0.043 0.11-0.136 0.24-0.252 0.287-0.313 0.128-1.178 0.224-1.613-0.007-0.276-0.147-0.453-0.478-0.605-0.673-0.073-0.094-0.437-0.334-0.006-0.334zM15.148 16.662c-0.443 0.089-0.755 0.52-1.188 0.492 0.238-0.335 0.654-0.476 1.188-0.492zM15.344 17.356c-0.361 0.038-0.786 0.096-1.153 0.066 0.174-0.265 0.842-0.173 1.153-0.066zM15.469 17.954c-0.406 0.009-0.911 0.001-1.297-0.032 0.228-0.245 1.034-0.091 1.297 0.032zM11.768 19.665c-0.019 0.453 0.045 1.179 0.066 1.653 0.301 0 0.43-0.066 0.654-0.142 0.025-0.559-0.177-1.076-0.235-1.586-0.119-0.032-0.337 0.084-0.485 0.074v0zM7.082 17.091c0.198 1.824 0.486 3.358 1.013 4.973 1.17 0.355 2.58 0.386 3.614 0.066-0.19-0.912-0.107-2.022-0.218-2.995-0.084-0.731-0.041-1.467-0.156-2.213-1.253-0.261-3.024-0.061-4.254 0.169v0 0zM11.632 16.933c-0.011 0.783 0.035 1.556 0.095 2.341 0.301-0.045 0.505-0.075 0.784-0.137-0.091-0.755-0.080-1.605-0.264-2.273-0.214 0.002-0.402-0.003-0.615 0.069v0zM13.158 16.807c-0.143-0.033-0.309-0.001-0.445 0.001 0.064 0.639 0.22 1.343 0.274 2.014 0.215 0.007 0.329-0.094 0.506-0.129 0.009-0.588-0.052-1.399-0.335-1.887v0 0zM15.469 18.918c0.447-0.108 0.729-0.657 0.604-1.219-0.084-0.378-0.234-1.090-0.394-1.332-0.118-0.179-0.439-0.413-0.695-0.249-0.416 0.267-1.15 0.344-1.454 0.667 0.152 0.507 0.2 1.203 0.262 1.846 0.52 0.032 1.161-0.143 1.593 0.043-0.302 0.098-0.694 0.099-0.955 0.241 0.213 0.103 0.713 0.082 1.038 0.003v0 0zM11.309 16.198c-0.314-0.739-0.6-1.505-1.069-2.1-0.455 0.305-0.955 0.591-1.083 1.145 0.651 0.368 1.409 0.731 2.152 0.955zM12.083 13.909c-0.030 0.739-0.114 1.708-0.311 2.288 0.47-0.598 0.849-1.295 1.245-1.973-0.169-0.271-0.522-0.508-0.934-0.315zM11.205 13.597c-0.178-0.019-0.329 0.205-0.561 0.108-0.053 0.058-0.101 0.122-0.155 0.179 0.511 0.616 0.744 1.49 1.138 2.214 0.212-0.695 0.187-1.457 0.234-2.217-0.291 0.019-0.453-0.263-0.657-0.285zM10.64 12.852c-0.019 0.211 0.030 0.28 0.073 0.522 0.694 0.217 0.572-0.952-0.073-0.522zM9.871 12.6c-0.299-0.163-0.748-0.341-1.134-0.415-0.478-0.092-0.434 0.653-0.413 1.097 0.016 0.352 0.199 0.723 0.278 0.957 0.037 0.109 0.046 0.225 0.139 0.247 0.165 0.039 0.708-0.179 0.863-0.263 0.328-0.179 0.582-0.462 0.86-0.653 0.004-0.093 0.007-0.185 0.011-0.278-0.167-0.083-0.361-0.142-0.606-0.153 0.167-0.084 0.412-0.082 0.563-0.182 0.002-0.037 0.003-0.074 0.004-0.111-0.277-0.021-0.383-0.145-0.565-0.245v0zM7.016 12.081c-0.248 0.252 0.696 0.595 0.996 0.614-0.002-0.159 0.091-0.31 0.072-0.424-0.357-0.063-0.826-0.021-1.068-0.19zM10.072 12.199c-0.001 0.024-0.033 0.016-0.038 0.036 0.319 0.249 0.556 0.301 0.991 0.279 0.196-0.142 0.37-0.308 0.573-0.442-0.47 0.042-1.061 0.334-1.526 0.126zM12.877 13.049c-0.013-0.28-0.087-0.855-0.26-0.956-0.363-0.212-1.008 0.428-1.282 0.525 0.030 0.086 0.079 0.153 0.083 0.263 0.162-0.040 0.359-0.013 0.499 0.056-0.162 0.018-0.342 0.017-0.449 0.094-0.039 0.114 0.010 0.268-0.016 0.426 0.384 0.108 0.824 0.166 1.31 0.18 0.095-0.123 0.127-0.357 0.116-0.589v0zM6.599 12.324c-0.078-0.055-0.605-0.741-0.677-0.713-0.954 0.376-1.845 1.026-2.642 1.641 0.76 1.63 1.066 3.627 1.12 5.552 0.87 0.407 1.635 0.994 2.816 1.055-0.137-0.967-0.262-1.829-0.339-2.74-0.297-0.125-0.722 0.006-1-0.039-0.002-0.335 0.424-0.147 0.46-0.371 0.027-0.17-0.235-0.183-0.15-0.451 0.217 0.079 0.331 0.253 0.563 0.318 0.212-0.462-0.003-1.281 0.028-1.668 0.006-0.073 0.036-0.402 0.199-0.344 0.144 0.051-0.008 0.877 0.008 1.243 0.014 0.337-0.041 0.664 0.096 0.875 1.141-0.155 2.301-0.256 3.535-0.289-0.272-0.117-0.594-0.227-0.948-0.426-0.192-0.108-0.796-0.333-0.852-0.515-0.088-0.29 0.232-0.445 0.286-0.694-0.576 0.314-0.688-0.301-0.825-0.737-0.123-0.395-0.194-0.69-0.224-0.917-0.496-0.237-1.027-0.476-1.454-0.78v0zM12.373 11.695c0.795-0.385 0.938 1.44 0.626 2.028 0.048 0.175 0.214 0.242 0.281 0.4-0.443 0.794-0.936 1.536-1.388 2.32 0.336-0.209 0.817-0.037 1.213-0.194 0.145-0.057 0.249-0.389 0.359-0.654 0.301-0.729 0.618-1.649 0.759-2.345 0.032-0.159 0.118-0.504 0.099-0.645-0.035-0.253-0.378-0.44-0.552-0.596-0.321-0.289-0.524-0.543-0.859-0.813-0.136 0.201-0.428 0.335-0.539 0.498v0 0zM4.782 4.649c-0.379 0.417-0.299 1.197-0.253 1.752 0.684-0.43 1.592 0.034 1.584 0.766 0.327-0.009 0.122-0.408 0.063-0.665-0.193-0.84 0.325-1.753 0.024-2.522-0.586 0.044-1.068 0.284-1.417 0.668v0 0zM7.491 2.232c-0.857 0.243-1.955 0.866-2.307 1.635 0.273-0.040 0.462-0.177 0.731-0.194 0.102-0.007 0.235 0.043 0.352 0.014 0.233-0.058 0.429-0.58 0.605-0.774 0.171-0.19 0.377-0.271 0.518-0.444 0.090-0.044 0.224-0.041 0.229-0.177-0.039-0.042-0.081-0.074-0.128-0.060v0zM11.952 2.46c-0.889-0.502-2.395-0.879-3.341-0.408-0.764 0.381-1.796 1.011-2.147 1.809 0.329 0.77-0.097 1.476-0.125 2.258-0.014 0.416 0.196 0.779 0.212 1.232-0.112 0.186-0.456 0.208-0.694 0.196-0.080-0.401-0.22-0.851-0.633-0.896-0.584-0.064-1.011 0.419-1.037 0.924-0.031 0.594 0.456 1.578 1.147 1.51 0.267-0.026 0.333-0.294 0.623-0.291 0.158 0.315-0.243 0.413-0.284 0.638-0.011 0.058 0.033 0.285 0.059 0.392 0.126 0.519 0.405 1.19 0.681 1.585 0.35 0.501 1.036 0.576 1.775 0.625 0.132-0.284 0.618-0.261 0.935-0.186-0.38-0.15-0.732-0.515-1.025-0.838-0.336-0.37-0.676-0.767-0.693-1.251 0.635 0.881 1.159 1.65 2.314 2.037 0.873 0.293 1.893-0.134 2.565-0.605 0.279-0.196 0.445-0.507 0.643-0.791 0.741-1.065 1.086-2.586 1.010-4.060-0.031-0.608-0.030-1.214-0.234-1.623-0.213-0.428-0.934-0.81-1.356-0.423-0.078-0.416 0.351-0.673 0.855-0.523-0.359-0.464-0.737-1.021-1.248-1.31v0 0zM13.609 16.176c0.695-0.345 1.994-0.93 2.43 0.001 0.161 0.343 0.349 0.924 0.433 1.278 0.118 0.5-0.128 1.551-0.642 1.719-0.454 0.148-0.984 0.139-1.53 0.029-0.064-0.054-0.136-0.147-0.186-0.244-0.39-0.015-0.756 0.021-1.064 0.182 0.029 0.289-0.166 0.335-0.349 0.394-0.136 0.538 0.271 1.241 0.174 1.732-0.070 0.35-0.5 0.404-0.816 0.469-0.010 0.194 0.014 0.356 0.036 0.521-0.072 0.266-0.397 0.418-0.704 0.455-1.011 0.122-2.545 0.176-3.517-0.174-0.271-0.665-0.485-1.475-0.711-2.235-0.948 0.101-1.715-0.409-2.438-0.744-0.25-0.116-0.597-0.18-0.69-0.379-0.091-0.193-0.054-0.563-0.076-0.912-0.057-0.892-0.106-1.752-0.342-2.665-0.106-0.41-0.29-0.772-0.419-1.166-0.119-0.366-0.326-0.818-0.381-1.183-0.080-0.541 0.429-0.571 0.755-0.805 0.504-0.362 0.899-0.563 1.444-0.89 0.161-0.097 0.648-0.342 0.704-0.455 0.11-0.224-0.189-0.54-0.269-0.715-0.126-0.277-0.192-0.513-0.211-0.787-0.458-0.072-0.804-0.345-1.014-0.651-0.346-0.508-0.587-1.448-0.287-2.163 0.024-0.056 0.141-0.167 0.158-0.253 0.034-0.17-0.064-0.397-0.070-0.578-0.032-0.929 0.157-1.73 0.783-2.010 0.254-1.011 1.163-1.348 2.019-1.851 0.32-0.188 0.673-0.308 1.037-0.442 1.307-0.481 3.313-0.391 4.398 0.43 0.46 0.348 1.195 1.083 1.458 1.614 0.695 1.404 0.645 3.751 0.159 5.459-0.065 0.229-0.16 0.567-0.292 0.842-0.092 0.192-0.379 0.577-0.344 0.747 0.036 0.176 0.653 0.645 0.786 0.772 0.238 0.23 0.692 0.535 0.728 0.826 0.040 0.309-0.136 0.732-0.225 1.030-0.298 0.995-0.588 1.915-0.925 2.802zM8.972 9.287c0.038-0.050 0.245-0.126 0.535 0.013 0 0-0.344 0.057-0.315 0.631l-0.143-0.029c0-0-0.148-0.52-0.077-0.615zM11.484 14.214c0 0.087-0.071 0.157-0.158 0.157s-0.158-0.070-0.158-0.157c0-0.087 0.071-0.158 0.158-0.158s0.158 0.070 0.158 0.158zM11.641 14.945c0 0.087-0.070 0.157-0.158 0.157s-0.158-0.070-0.158-0.157c0-0.087 0.070-0.158 0.158-0.158s0.158 0.071 0.158 0.158zM28.156 8.535c-0.161 0.020-0.298 0.040-0.411 0.061s-0.24 0.048-0.381 0.085c-0.165 0.044-0.271 0.123-0.317 0.236s-0.070 0.242-0.070 0.387v4.729c0 0.435-0.088 0.835-0.263 1.198s-0.416 0.667-0.722 0.913c-0.31 0.242-0.657 0.424-1.040 0.548s-0.792 0.184-1.227 0.184c-0.753 0-1.361-0.181-1.822-0.544s-0.692-0.86-0.692-1.493c0-0.375 0.106-0.685 0.317-0.931s0.503-0.369 0.873-0.369c0.351 0 0.63 0.103 0.837 0.308s0.311 0.459 0.311 0.762c0 0.258-0.090 0.497-0.269 0.716s-0.384 0.422-0.613 0.607v0.079c0.036 0.081 0.115 0.149 0.236 0.205s0.244 0.085 0.37 0.085c0.485 0 0.866-0.173 1.142-0.52s0.415-0.871 0.415-1.573v-4.845c0-0.145-0.022-0.266-0.067-0.363s-0.152-0.181-0.322-0.254c-0.121-0.052-0.268-0.097-0.44-0.133s-0.315-0.063-0.428-0.079v-0.471h4.581v0.471h-0zM35.324 15.195c-0.141 0.23-0.311 0.446-0.511 0.65s-0.426 0.378-0.68 0.523c-0.27 0.153-0.543 0.269-0.819 0.348s-0.593 0.118-0.952 0.118c-0.596 0-1.111-0.085-1.544-0.254s-0.791-0.397-1.073-0.683c-0.282-0.286-0.493-0.623-0.632-1.012s-0.209-0.811-0.209-1.266c0-0.411 0.076-0.805 0.227-1.182s0.366-0.712 0.644-1.006c0.274-0.286 0.619-0.518 1.036-0.695s0.883-0.266 1.399-0.266c0.564 0 1.027 0.069 1.39 0.205s0.663 0.326 0.9 0.568c0.23 0.23 0.397 0.501 0.502 0.813s0.157 0.64 0.157 0.982v0.393h-4.085c0 0.826 0.159 1.455 0.477 1.886s0.824 0.647 1.517 0.647c0.379 0 0.719-0.104 1.021-0.311s0.56-0.47 0.774-0.789l0.459 0.332zM33.015 12.899c0-0.242-0.012-0.49-0.036-0.743s-0.066-0.461-0.127-0.623c-0.069-0.189-0.162-0.332-0.281-0.429s-0.269-0.145-0.45-0.145c-0.31 0-0.558 0.157-0.743 0.472s-0.286 0.812-0.302 1.493l1.94-0.024zM43.881 16.64h-3.632v-0.441c0.077-0.008 0.169-0.018 0.278-0.030s0.191-0.032 0.248-0.060c0.085-0.044 0.145-0.109 0.181-0.194s0.054-0.209 0.054-0.375v-2.828c0-0.411-0.076-0.72-0.227-0.928s-0.375-0.311-0.67-0.311c-0.162 0-0.312 0.024-0.451 0.072s-0.276 0.119-0.409 0.212c-0.117 0.081-0.211 0.163-0.282 0.248s-0.13 0.159-0.179 0.224v3.245c0 0.141 0.020 0.259 0.060 0.354s0.107 0.166 0.199 0.215c0.064 0.036 0.145 0.069 0.242 0.097s0.191 0.048 0.284 0.060v0.441h-3.674v-0.441c0.101-0.008 0.202-0.019 0.305-0.033s0.19-0.033 0.263-0.057c0.129-0.044 0.218-0.113 0.266-0.205s0.072-0.213 0.072-0.363v-3.517c0-0.125-0.032-0.248-0.097-0.369s-0.149-0.22-0.254-0.296c-0.072-0.048-0.164-0.089-0.275-0.121s-0.233-0.054-0.366-0.066v-0.441l2.883-0.157 0.091 0.091v0.876h0.024c0.113-0.101 0.25-0.222 0.411-0.363s0.31-0.256 0.447-0.345c0.149-0.097 0.345-0.179 0.586-0.248s0.5-0.103 0.774-0.103c0.657 0 1.149 0.186 1.478 0.559s0.492 0.867 0.492 1.484v2.961c0 0.149 0.022 0.268 0.066 0.356s0.127 0.159 0.248 0.212c0.064 0.028 0.144 0.057 0.239 0.085s0.202 0.048 0.323 0.060v0.441h0zM52.197 16.64h-2.849c-0.35-0.615-0.67-1.136-0.96-1.564s-0.564-0.825-0.821-1.191l-0.356 0.301v1.317c0 0.145 0.021 0.264 0.063 0.356s0.124 0.161 0.245 0.205c0.073 0.032 0.157 0.060 0.254 0.085s0.193 0.040 0.29 0.048v0.441h-3.753v-0.441c0.101-0.008 0.203-0.019 0.304-0.033s0.191-0.033 0.268-0.057c0.13-0.044 0.218-0.113 0.265-0.205s0.070-0.213 0.070-0.363v-6.738c0-0.133-0.029-0.271-0.088-0.414s-0.144-0.251-0.257-0.323c-0.077-0.048-0.191-0.089-0.345-0.121s-0.292-0.052-0.417-0.060v-0.441l3.010-0.157 0.091 0.097v6.237c0.298-0.266 0.633-0.574 1.005-0.925s0.671-0.641 0.897-0.87c0.133-0.137 0.206-0.241 0.22-0.311s0.021-0.114 0.021-0.13c0-0.073-0.064-0.133-0.191-0.181s-0.319-0.091-0.574-0.127v-0.429h3.070v0.417c-0.402 0.113-0.709 0.219-0.92 0.317s-0.442 0.231-0.691 0.396c-0.165 0.109-0.325 0.223-0.48 0.342s-0.332 0.268-0.533 0.446c0.394 0.572 0.758 1.101 1.092 1.588s0.684 1.003 1.050 1.546c0.125 0.189 0.28 0.316 0.465 0.38s0.37 0.105 0.555 0.121v0.441h0zM56.083 16.64h-3.82v-0.441c0.105-0.008 0.207-0.018 0.308-0.030s0.187-0.032 0.26-0.060c0.129-0.048 0.22-0.118 0.272-0.209s0.079-0.21 0.079-0.36v-3.517c0-0.141-0.032-0.265-0.097-0.372s-0.145-0.192-0.242-0.257c-0.073-0.048-0.182-0.095-0.329-0.139s-0.281-0.072-0.402-0.085v-0.441l2.961-0.157 0.091 0.091v4.799c0 0.141 0.030 0.261 0.091 0.36s0.147 0.172 0.26 0.221c0.081 0.036 0.169 0.069 0.266 0.097s0.197 0.048 0.302 0.060v0.441zM55.201 8.396c0 0.306-0.118 0.567-0.354 0.783s-0.515 0.323-0.837 0.323c-0.326 0-0.607-0.108-0.843-0.323s-0.354-0.476-0.354-0.783c0-0.306 0.118-0.568 0.354-0.786s0.517-0.326 0.843-0.326c0.326 0 0.606 0.109 0.84 0.326s0.351 0.48 0.351 0.786zM64.617 16.64h-3.632v-0.441c0.077-0.008 0.169-0.018 0.278-0.030s0.191-0.032 0.248-0.060c0.085-0.044 0.145-0.109 0.181-0.194s0.055-0.209 0.055-0.375v-2.828c0-0.411-0.076-0.72-0.227-0.928s-0.375-0.311-0.67-0.311c-0.162 0-0.312 0.024-0.451 0.072s-0.276 0.119-0.409 0.212c-0.117 0.081-0.211 0.163-0.282 0.248s-0.13 0.159-0.179 0.224v3.245c0 0.141 0.020 0.259 0.060 0.354s0.107 0.166 0.199 0.215c0.064 0.036 0.145 0.069 0.242 0.097s0.191 0.048 0.284 0.060v0.441h-3.674v-0.441c0.101-0.008 0.202-0.019 0.305-0.033s0.19-0.033 0.263-0.057c0.129-0.044 0.217-0.113 0.266-0.205s0.072-0.213 0.072-0.363v-3.517c0-0.125-0.032-0.248-0.097-0.369s-0.149-0.22-0.254-0.296c-0.073-0.048-0.164-0.089-0.275-0.121s-0.233-0.054-0.366-0.066v-0.441l2.883-0.157 0.091 0.091v0.876h0.024c0.113-0.101 0.25-0.222 0.411-0.363s0.31-0.256 0.447-0.345c0.149-0.097 0.345-0.179 0.586-0.248s0.499-0.103 0.774-0.103c0.657 0 1.149 0.186 1.478 0.559s0.493 0.867 0.493 1.484v2.961c0 0.149 0.022 0.268 0.066 0.356s0.127 0.159 0.248 0.212c0.064 0.028 0.144 0.057 0.239 0.085s0.202 0.048 0.323 0.060l-0 0.441zM67.977 16.845c-0.391 0-0.773-0.057-1.145-0.172s-0.662-0.237-0.867-0.366l-0.181 0.411h-0.471l-0.079-2.254h0.441c0.060 0.181 0.161 0.386 0.302 0.613s0.302 0.432 0.484 0.613c0.189 0.181 0.406 0.334 0.65 0.459s0.505 0.187 0.783 0.187c0.367 0 0.639-0.072 0.819-0.215s0.269-0.363 0.269-0.662c0-0.161-0.040-0.294-0.121-0.399s-0.191-0.195-0.332-0.272c-0.157-0.081-0.33-0.149-0.517-0.205s-0.418-0.125-0.692-0.205c-0.274-0.081-0.509-0.162-0.704-0.245s-0.398-0.213-0.607-0.39c-0.181-0.157-0.326-0.346-0.435-0.568s-0.163-0.485-0.163-0.792c0-0.568 0.239-1.027 0.716-1.378s1.103-0.526 1.877-0.526c0.367 0 0.704 0.037 1.012 0.112s0.567 0.156 0.777 0.245l0.127-0.357h0.459l0.097 2.061h-0.423c-0.141-0.419-0.383-0.781-0.725-1.085s-0.711-0.456-1.106-0.456c-0.31 0-0.554 0.064-0.731 0.194s-0.266 0.308-0.266 0.538c0 0.306 0.13 0.528 0.389 0.665s0.622 0.266 1.089 0.387c0.72 0.186 1.247 0.438 1.581 0.759s0.501 0.728 0.501 1.224c0 0.661-0.259 1.172-0.777 1.535s-1.194 0.544-2.028 0.544v0z"></path>
</svg>
