<?xml version="1.0" encoding="utf-8"?>
<!-- Generated by IcoMoon.io -->
<!DOCTYPE svg PUBLIC "-//W3C//DTD SVG 1.1//EN" "http://www.w3.org/Graphics/SVG/1.1/DTD/svg11.dtd">
<svg version="1.1" xmlns="http://www.w3.org/2000/svg" xmlns:xlink="http://www.w3.org/1999/xlink" width="88" height="24" viewBox="0 0 88 24">
<path fill="#444444" d="M23.241 8.398h-1.748c-0.157 0-0.285 0.127-0.285 0.285v10.633c0 0.157 0.128 0.285 0.285 0.285h1.748c0.157 0 0.285-0.127 0.285-0.285v-10.633c0-0.157-0.128-0.285-0.285-0.285zM34.443 19.13l-2.433-3.51c1.048-0.435 1.579-1.346 1.579-2.708v-1.432c0-2.133-1.113-3.084-3.61-3.084h-4.329c-0.157 0-0.285 0.127-0.285 0.285v10.633c0 0.157 0.128 0.285 0.285 0.285h1.748c0.157 0 0.285-0.127 0.285-0.285v-3.335h1.788l2.432 3.497c0.053 0.076 0.141 0.122 0.234 0.122h2.090c0.157 0 0.285-0.127 0.285-0.285 0-0.071-0.026-0.136-0.068-0.185zM27.682 10.468h2.214c1.145 0 1.375 0.451 1.375 1.178v1.086c0 0.905-0.347 1.211-1.375 1.211h-2.214v-3.474zM40.178 8.597c-0.037-0.119-0.147-0.199-0.272-0.199h-2.657c-0.124 0-0.234 0.081-0.272 0.199l-3.353 10.633c-0.027 0.087-0.012 0.181 0.042 0.254s0.139 0.116 0.23 0.116h1.829c0.126 0 0.237-0.083 0.273-0.204l2.309-7.82c0 0 0.060-0.195 0.269-0.195 0.213 0 0.264 0.203 0.264 0.203l1.071 3.708h-1.472c-0.128 0-0.24 0.085-0.274 0.208l-0.413 1.468c-0.024 0.086-0.007 0.178 0.047 0.249s0.138 0.113 0.227 0.113h2.483l0.645 2.070c0.037 0.119 0.147 0.2 0.272 0.2h1.83c0.091 0 0.176-0.043 0.23-0.116s0.069-0.168 0.042-0.254l-3.353-10.633zM19.148 8.398h-1.769c-0.15 0-0.272 0.122-0.272 0.271v8.32c0 1.046-0.797 1.389-1.336 1.417-0.073 0.004-0.157 0.049-0.204 0.117s-0.059 0.154-0.035 0.232l0.43 1.399c0.035 0.114 0.158 0.188 0.359 0.188 1.692 0 3.098-1.329 3.098-3.11v-8.564c0-0.072-0.028-0.141-0.079-0.192s-0.12-0.079-0.192-0.079zM5.45 5.497c-0.543 0-0.984 0.44-0.984 0.984 0 0.543 0.44 0.984 0.984 0.984s0.984-0.441 0.984-0.984c-0-0.545-0.44-0.984-0.984-0.984zM11.912 5.497c-0.544 0-0.983 0.44-0.983 0.984 0 0.543 0.439 0.984 0.983 0.984 0.542 0 0.983-0.441 0.983-0.984 0-0.545-0.441-0.984-0.983-0.984zM8.681 4.599c-0.543 0-0.984 0.439-0.984 0.984 0 0.543 0.44 0.985 0.984 0.985s0.983-0.441 0.983-0.985c0-0.545-0.44-0.984-0.983-0.984zM19.54 1.325c-0.014-0.044-0.055-0.074-0.101-0.074h-0.992c-0.046 0-0.087 0.030-0.102 0.074l-1.252 3.971c-0.010 0.032-0.005 0.068 0.016 0.095s0.052 0.043 0.086 0.043h0.683c0.047 0 0.089-0.031 0.102-0.076l0.862-2.921c0 0 0.023-0.073 0.101-0.073 0.079 0 0.099 0.076 0.099 0.076l0.4 1.385h-0.537c-0.048 0-0.089 0.032-0.103 0.078l-0.154 0.548c-0.009 0.032-0.002 0.067 0.018 0.093s0.052 0.042 0.085 0.042h0.915l0.241 0.773c0.014 0.044 0.055 0.075 0.102 0.075h0.684c0.034 0 0.066-0.016 0.086-0.043s0.026-0.063 0.016-0.095l-1.252-3.971zM22.517 4.823c-0.005-0.030-0.021-0.056-0.046-0.073s-0.056-0.022-0.085-0.015c-0.111 0.027-0.217 0.043-0.299 0.043-0.156 0-0.225-0.067-0.225-0.219v-1.521h0.61c0.059 0 0.106-0.048 0.106-0.106v-0.475c0-0.059-0.048-0.106-0.106-0.106h-0.61v-0.733c0-0.031-0.013-0.060-0.036-0.080s-0.054-0.029-0.085-0.025l-0.628 0.088c-0.052 0.007-0.092 0.052-0.092 0.105v0.645h-0.342c-0.059 0-0.107 0.048-0.107 0.106v0.475c0 0.059 0.048 0.106 0.107 0.106h0.342v1.62c0 0.556 0.292 0.838 0.869 0.838 0.164 0 0.443-0.038 0.625-0.101 0.049-0.017 0.078-0.066 0.070-0.116l-0.069-0.456zM23.68 1.173h-0.628c-0.059 0-0.106 0.048-0.106 0.106v4.049c0 0.059 0.048 0.106 0.106 0.106l0.628 0c0.059 0 0.106-0.048 0.106-0.106v-4.048c0-0.059-0.048-0.106-0.106-0.106zM25.295 2.289c-0.318 0-0.705 0.050-0.986 0.128-0.052 0.014-0.085 0.066-0.077 0.119l0.073 0.456c0.005 0.028 0.021 0.054 0.044 0.070s0.053 0.023 0.081 0.017c0.261-0.051 0.531-0.079 0.759-0.079 0.453 0 0.526 0.096 0.526 0.403v0.268h-0.673c-0.643 0-0.918 0.265-0.918 0.888 0 0.595 0.301 0.937 0.826 0.937 0.304 0 0.608-0.084 0.863-0.238l0.027 0.099c0.013 0.046 0.055 0.078 0.103 0.078h0.507c0.059 0 0.106-0.048 0.106-0.106v-1.912c0-0.822-0.342-1.127-1.262-1.127zM25.717 4.304v0.37c-0.104 0.055-0.293 0.135-0.52 0.135-0.196 0-0.256-0.060-0.256-0.256 0-0.19 0.037-0.249 0.268-0.249h0.507zM28.132 3.526c-0.39-0.1-0.39-0.104-0.39-0.318 0-0.144 0.014-0.213 0.335-0.213 0.22 0 0.545 0.039 0.753 0.074 0.029 0.005 0.058-0.002 0.081-0.020s0.039-0.043 0.042-0.072l0.059-0.479c0.007-0.054-0.028-0.104-0.081-0.117-0.241-0.056-0.576-0.092-0.854-0.092-0.966 0-1.164 0.365-1.164 0.912 0 0.602 0.112 0.804 0.852 0.985 0.487 0.117 0.487 0.204 0.487 0.349 0 0.19-0.016 0.255-0.335 0.255-0.257 0-0.554-0.040-0.816-0.11-0.029-0.008-0.059-0.003-0.084 0.013s-0.042 0.041-0.048 0.071l-0.083 0.454c-0.009 0.053 0.021 0.104 0.072 0.12 0.285 0.093 0.695 0.157 0.996 0.157 0.936 0 1.127-0.392 1.127-0.98-0-0.649-0.115-0.77-0.95-0.991zM30.559 3.526c-0.39-0.1-0.39-0.104-0.39-0.318 0-0.144 0.014-0.213 0.335-0.213 0.22 0 0.545 0.039 0.753 0.074 0.029 0.005 0.058-0.002 0.081-0.020s0.039-0.043 0.042-0.072l0.059-0.479c0.007-0.054-0.028-0.104-0.081-0.117-0.241-0.056-0.577-0.092-0.854-0.092-0.966 0-1.164 0.365-1.164 0.912 0 0.602 0.112 0.804 0.852 0.985 0.487 0.117 0.487 0.204 0.487 0.349 0 0.19-0.016 0.255-0.335 0.255-0.257 0-0.554-0.040-0.816-0.11-0.029-0.008-0.059-0.003-0.084 0.013s-0.042 0.041-0.048 0.071l-0.083 0.454c-0.010 0.053 0.021 0.104 0.072 0.12 0.285 0.093 0.695 0.157 0.996 0.157 0.936 0 1.127-0.392 1.127-0.98-0-0.649-0.115-0.77-0.95-0.991zM32.592 1.166h-0.628c-0.059 0-0.106 0.048-0.106 0.106v0.558c0 0.059 0.048 0.106 0.106 0.106h0.628c0.059 0 0.107-0.048 0.107-0.106v-0.558c-0-0.059-0.048-0.106-0.107-0.106zM32.592 2.351h-0.628c-0.059 0-0.106 0.048-0.106 0.106v2.871c0 0.059 0.048 0.106 0.106 0.106h0.628c0.059 0 0.107-0.048 0.107-0.106v-2.871c-0-0.059-0.048-0.106-0.107-0.106zM34.223 2.289c-0.318 0-0.705 0.050-0.986 0.128-0.052 0.014-0.085 0.066-0.077 0.119l0.073 0.456c0.005 0.028 0.020 0.054 0.044 0.070s0.053 0.023 0.081 0.017c0.261-0.051 0.531-0.079 0.759-0.079 0.454 0 0.526 0.096 0.526 0.403v0.268h-0.673c-0.644 0-0.918 0.266-0.918 0.888 0 0.595 0.301 0.937 0.826 0.937 0.304 0 0.608-0.084 0.863-0.238l0.027 0.099c0.013 0.046 0.055 0.078 0.103 0.078h0.507c0.059 0 0.106-0.048 0.106-0.106v-1.912c0-0.822-0.342-1.127-1.262-1.127zM34.645 4.304v0.37c-0.104 0.055-0.293 0.135-0.52 0.135-0.196 0-0.255-0.060-0.255-0.256 0-0.19 0.037-0.249 0.268-0.249h0.507zM37.809 2.289c-0.333 0-0.786 0.115-1.17 0.295l-0.046-0.157c-0.013-0.045-0.055-0.076-0.102-0.076h-0.465c-0.059 0-0.106 0.048-0.106 0.106v2.871c0 0.059 0.048 0.106 0.106 0.106h0.628c0.059 0 0.106-0.048 0.106-0.106v-1.989c0.226-0.115 0.544-0.234 0.735-0.234 0.141 0 0.194 0.053 0.194 0.194v2.029c0 0.059 0.048 0.106 0.106 0.106h0.628c0.059 0 0.107-0.048 0.107-0.106v-2.109c0-0.617-0.243-0.93-0.722-0.93zM14.237 8.24c-0.055-0.042-0.12-0.063-0.187-0.063-0.037 0-0.074 0.007-0.11 0.020-0.666 0.255-1.342 0.448-1.959 0.592-0.126 0.029-0.228 0.123-0.27 0.235-0.45 1.232-1.598 2.405-2.803 3.634-0.048 0.046-0.116 0.106-0.226 0.106s-0.177-0.059-0.226-0.106c-1.205-1.229-2.353-2.398-2.803-3.63-0.042-0.112-0.144-0.206-0.27-0.235-0.618-0.144-1.296-0.343-1.961-0.598-0.036-0.013-0.073-0.020-0.11-0.020-0.067 0-0.131 0.021-0.186 0.063-0.085 0.065-0.13 0.171-0.12 0.272 0.102 1.024 0.507 2.026 1.237 3.075 0.687 0.987 1.582 1.9 2.448 2.783 1.596 1.628 3.103 3.165 3.235 4.947 0.012 0.161 0.146 0.285 0.307 0.285h1.875c0.084 0 0.165-0.035 0.223-0.096s0.089-0.143 0.085-0.228c-0.059-1.192-0.507-2.385-1.371-3.648-0.181-0.265-0.375-0.522-0.577-0.775-0.082-0.103-0.048-0.23 0.015-0.295s0.125-0.127 0.188-0.192c0.866-0.883 1.762-1.796 2.448-2.783 0.73-1.050 1.135-2.045 1.237-3.069 0.010-0.103-0.037-0.212-0.12-0.275zM6.67 15.754c-0.044-0.046-0.109-0.094-0.219-0.094-0.14 0-0.223 0.097-0.254 0.145-0.788 1.2-1.196 2.332-1.252 3.47-0.004 0.084 0.027 0.167 0.085 0.229s0.14 0.096 0.224 0.096h1.871c0.161 0 0.297-0.126 0.308-0.287 0.041-0.549 0.212-1.098 0.522-1.676 0.108-0.2 0.024-0.388-0.038-0.468-0.308-0.401-0.686-0.829-1.248-1.415zM8.683 9.158c0.587 0 0.928-0.035 1.048-0.035 0.145 0 0.284 0.119 0.284 0.285 0 0.049-0.011 0.083-0.023 0.114-0.078 0.208-0.433 0.958-1.094 1.601-0.074 0.072-0.158 0.086-0.216 0.086h-0.001c-0.058 0-0.142-0.014-0.216-0.086-0.661-0.643-1.016-1.392-1.094-1.601-0.011-0.031-0.023-0.065-0.023-0.114 0-0.166 0.139-0.285 0.284-0.285 0.12 0 0.46 0.035 1.048 0.035h0.004z"></path>
</svg>
