<?xml version="1.0" encoding="utf-8"?>
<!-- Generated by IcoMoon.io -->
<!DOCTYPE svg PUBLIC "-//W3C//DTD SVG 1.1//EN" "http://www.w3.org/Graphics/SVG/1.1/DTD/svg11.dtd">
<svg version="1.1" xmlns="http://www.w3.org/2000/svg" xmlns:xlink="http://www.w3.org/1999/xlink" width="80" height="32" viewBox="0 0 80 32">
<path fill="#444444" d="M18.041 11.351c0 0.42-0.35 0.761-0.781 0.761h-14.656c-0.433 0-0.783-0.341-0.783-0.761v0c0-0.421 0.35-0.762 0.783-0.762h14.656c0.431 0 0.781 0.341 0.781 0.762v0z"></path>
<path fill="#444444" d="M18.041 8.595c0 0.42-0.35 0.761-0.781 0.761h-14.656c-0.433 0-0.783-0.341-0.783-0.761v0c0-0.42 0.35-0.761 0.783-0.761h14.656c0.431 0 0.781 0.34 0.781 0.761v0z"></path>
<path fill="#444444" d="M18.041 14.112c0 0.42-0.35 0.761-0.781 0.761h-14.656c-0.433 0-0.783-0.341-0.783-0.761v0c0-0.421 0.35-0.762 0.783-0.762h14.656c0.431-0 0.781 0.34 0.781 0.762v0z"></path>
<path fill="#444444" d="M18.041 19.401c0 0.42-0.35 0.761-0.781 0.761h-14.656c-0.433 0-0.783-0.342-0.783-0.761v0c0-0.42 0.35-0.761 0.783-0.761h14.656c0.431 0 0.781 0.341 0.781 0.761v0z"></path>
<path fill="#444444" d="M18.041 16.782c0 0.42-0.35 0.761-0.781 0.761h-14.656c-0.433 0-0.783-0.341-0.783-0.761v0c0-0.421 0.35-0.76 0.783-0.76h14.656c0.431-0.001 0.781 0.339 0.781 0.76v0z"></path>
<path fill="#444444" d="M18.041 22.085c0 0.42-0.35 0.76-0.781 0.76h-14.656c-0.433 0-0.783-0.34-0.783-0.76v0c0-0.421 0.35-0.761 0.783-0.761h14.656c0.431 0 0.781 0.339 0.781 0.761v0z"></path>
<path fill="#444444" d="M24.1 22.708v-15.312h1.022l5.952 9.042c1.25 1.908 2.136 3.34 2.886 4.817l0.045-0.023c-0.159-2.067-0.182-3.817-0.182-6.202v-7.634h1.045v15.313h-1l-5.839-8.906c-1.136-1.75-2.181-3.363-2.976-4.953l-0.045 0.023c0.113 1.885 0.136 3.544 0.136 6.088v7.747h-1.045z"></path>
<path fill="#444444" d="M38.729 17.142c0 3.476 1.908 4.862 4.158 4.862 1.59 0 2.408-0.318 3.021-0.614l0.273 0.842c-0.41 0.227-1.523 0.703-3.43 0.703-3.135 0-5.090-2.271-5.090-5.475 0-3.635 2.090-5.907 4.908-5.907 3.567 0 4.248 3.362 4.248 4.93 0 0.296 0 0.454-0.045 0.659h-8.043zM45.681 16.279c0.023-1.522-0.613-3.816-3.249-3.816-2.408 0-3.43 2.135-3.635 3.816h6.884z"></path>
<path fill="#444444" d="M49.451 11.803l1.863 2.658c0.477 0.636 0.841 1.204 1.25 1.863h0.046c0.409-0.659 0.84-1.25 1.271-1.863l1.863-2.658h1.203l-3.793 5.316 3.93 5.589h-1.25l-1.931-2.749c-0.5-0.704-0.909-1.363-1.363-2.044h-0.045c-0.408 0.704-0.84 1.294-1.363 2.044l-1.908 2.749h-1.227l3.998-5.566-3.771-5.339 1.228-0z"></path>
<path fill="#444444" d="M67.738 20.050c0 0.954 0.023 1.818 0.091 2.658h-1.022l-0.069-1.954h-0.046c-0.545 1.022-1.795 2.203-3.726 2.203-1.386 0-3.726-0.704-3.726-4.816v-6.338h1.091v6.134c0 2.363 0.726 4.067 2.885 4.067 1.59 0 2.749-1.114 3.226-2.203 0.113-0.341 0.204-0.773 0.204-1.204v-6.793h1.090v8.246h0.001v-0z"></path>
<path fill="#444444" d="M70.941 21.277c0.59 0.363 1.477 0.75 2.453 0.75 1.727 0 2.544-0.932 2.544-2.067 0-1.204-0.726-1.84-2.294-2.477-1.795-0.681-2.772-1.658-2.772-2.976 0-1.591 1.25-2.953 3.362-2.953 1 0 1.863 0.295 2.408 0.682l-0.408 0.886c-0.387-0.273-1.091-0.659-2.182-0.659-1.386 0-2.112 0.886-2.112 1.886 0 1.136 0.772 1.613 2.249 2.226 1.772 0.704 2.817 1.59 2.817 3.249 0 1.863-1.453 3.112-3.68 3.112-1.045 0-2.044-0.296-2.772-0.75l0.386-0.909z"></path>
</svg>
