<?xml version="1.0" encoding="utf-8"?>
<!-- Generated by IcoMoon.io -->
<!DOCTYPE svg PUBLIC "-//W3C//DTD SVG 1.1//EN" "http://www.w3.org/Graphics/SVG/1.1/DTD/svg11.dtd">
<svg version="1.1" xmlns="http://www.w3.org/2000/svg" xmlns:xlink="http://www.w3.org/1999/xlink" width="88" height="24" viewBox="0 0 88 24">
<path fill="#444444" d="M20.929 13.028c-1.832-0.446-1.832-0.446-1.832-1.625 0-0.888 0.19-1.128 1.523-1.128 0.834 0 1.831 0.106 2.733 0.29 0.077 0.016 0.158-0.001 0.222-0.047s0.107-0.116 0.117-0.195l0.188-1.422c0.019-0.147-0.077-0.284-0.222-0.316-0.982-0.211-2.101-0.332-3.071-0.332-2.705 0-3.808 0.898-3.808 3.1 0 1.144 0.089 1.91 0.542 2.439 0.41 0.478 1.104 0.776 2.566 1.103 1.911 0.414 1.911 0.46 1.911 1.625 0 0.993-0.191 1.244-1.622 1.244-0.933 0-1.825-0.14-2.892-0.455-0.076-0.022-0.157-0.012-0.225 0.028s-0.116 0.107-0.133 0.184l-0.295 1.328c-0.030 0.134 0.040 0.27 0.166 0.324 0.692 0.295 2.035 0.612 3.346 0.612 3.339 0 3.972-1.147 3.972-3.265 0-1.091-0.023-1.787-0.472-2.321-0.46-0.546-1.309-0.833-2.714-1.17zM28.708 11.198c-2.362 0-3.61 1.135-3.61 3.281v2.024c0 2.146 1.248 3.281 3.61 3.281s3.61-1.135 3.61-3.281v-2.024c-0-2.147-1.248-3.281-3.61-3.281zM27.349 14.413c0-0.883 0.406-1.26 1.359-1.26s1.359 0.377 1.359 1.26v2.155c0 0.883-0.406 1.26-1.359 1.26s-1.359-0.377-1.359-1.26v-2.155zM40.101 11.362h-1.682c-0.157 0-0.285 0.128-0.285 0.285v5.324c-0.606 0.308-1.457 0.627-1.967 0.627-0.379 0-0.52-0.141-0.52-0.52v-5.431c0-0.157-0.127-0.285-0.285-0.285h-1.682c-0.157 0-0.285 0.128-0.285 0.285v5.645c0 1.653 0.65 2.491 1.932 2.491 0.891 0 2.106-0.307 3.132-0.789l0.123 0.42c0.036 0.122 0.147 0.205 0.273 0.205h1.245c0.157 0 0.285-0.127 0.285-0.285v-7.687c0-0.157-0.127-0.285-0.285-0.285zM45.984 11.504c-0.009-0.086-0.057-0.164-0.13-0.21s-0.163-0.057-0.245-0.029c-0.619 0.213-1.348 0.629-1.78 0.902l-0.083-0.562c-0.021-0.14-0.141-0.243-0.282-0.243h-1.392c-0.157 0-0.285 0.128-0.285 0.285v7.687c0 0.157 0.128 0.285 0.285 0.285h1.682c0.157 0 0.285-0.127 0.285-0.285v-4.937c0.639-0.405 1.22-0.745 1.944-1.076 0.112-0.051 0.178-0.168 0.165-0.289l-0.164-1.529zM52.185 17.878c-0.012-0.078-0.056-0.148-0.121-0.193s-0.147-0.060-0.224-0.042c-0.482 0.111-0.988 0.169-1.463 0.169-1.067 0-1.375-0.272-1.375-1.211v-2.221c0-0.939 0.308-1.211 1.375-1.211 0.253 0 0.884 0.035 1.464 0.168 0.077 0.018 0.158 0.002 0.224-0.042s0.109-0.115 0.121-0.193l0.2-1.33c0.021-0.141-0.065-0.275-0.201-0.315-0.647-0.191-1.405-0.258-1.857-0.258-2.541 0-3.577 0.927-3.577 3.199v2.188c0 2.272 1.037 3.199 3.577 3.199 0.618 0 1.331-0.099 1.859-0.258 0.135-0.041 0.22-0.175 0.199-0.315l-0.2-1.333zM56.537 11.198c-2.254 0-3.446 1.123-3.446 3.248v2.122c0 2.194 1.116 3.215 3.512 3.215 0.976 0 2.016-0.171 2.853-0.468 0.134-0.048 0.212-0.187 0.183-0.326l-0.248-1.204c-0.016-0.077-0.064-0.145-0.131-0.186s-0.149-0.052-0.225-0.031c-0.772 0.218-1.508 0.325-2.25 0.325-1.226 0-1.441-0.396-1.441-1.227v-0.289h4.174c0.157 0 0.285-0.127 0.285-0.285v-1.548c-0-2.283-1.037-3.347-3.265-3.347zM55.342 14.521v-0.273c0-0.792 0.385-1.161 1.211-1.161 0.912 0 1.095 0.444 1.095 1.161v0.273h-2.306zM67.387 10.203v-1.501c0-0.157-0.127-0.285-0.285-0.285h-7.868c-0.157 0-0.285 0.127-0.285 0.285v1.501c0 0.157 0.128 0.285 0.285 0.285h2.776v8.847c0 0.157 0.128 0.285 0.285 0.285h1.748c0.157 0 0.285-0.127 0.285-0.285v-8.847h2.776c0.157 0 0.285-0.128 0.285-0.285zM70.847 11.504c-0.009-0.086-0.057-0.164-0.13-0.21s-0.163-0.057-0.245-0.029c-0.619 0.213-1.348 0.629-1.78 0.902l-0.083-0.562c-0.021-0.14-0.141-0.243-0.282-0.243h-1.392c-0.157 0-0.285 0.128-0.285 0.285v7.687c0 0.157 0.128 0.285 0.285 0.285h1.682c0.157 0 0.285-0.127 0.285-0.285v-4.937c0.639-0.405 1.22-0.745 1.944-1.076 0.112-0.051 0.178-0.168 0.165-0.289l-0.164-1.529zM75.1 11.198c-2.254 0-3.446 1.123-3.446 3.248v2.122c0 2.194 1.116 3.215 3.511 3.215 0.976 0 2.016-0.171 2.853-0.468 0.134-0.048 0.212-0.187 0.183-0.326l-0.249-1.204c-0.016-0.077-0.064-0.145-0.131-0.186s-0.149-0.052-0.225-0.031c-0.772 0.218-1.508 0.325-2.25 0.325-1.225 0-1.441-0.396-1.441-1.227v-0.289h4.174c0.157 0 0.285-0.127 0.285-0.285v-1.548c-0-2.283-1.037-3.347-3.264-3.347zM73.906 14.521v-0.273c0-0.792 0.385-1.161 1.211-1.161 0.912 0 1.095 0.444 1.095 1.161v0.273h-2.306zM82.863 11.198c-2.254 0-3.446 1.123-3.446 3.248v2.122c0 2.194 1.116 3.215 3.512 3.215 0.976 0 2.016-0.171 2.853-0.468 0.134-0.048 0.212-0.187 0.183-0.326l-0.248-1.204c-0.016-0.077-0.064-0.145-0.131-0.186s-0.149-0.052-0.225-0.031c-0.772 0.218-1.508 0.325-2.25 0.325-1.226 0-1.441-0.396-1.441-1.227v-0.289h4.174c0.157 0 0.285-0.127 0.285-0.285v-1.548c0-2.283-1.037-3.347-3.265-3.347zM81.668 14.521v-0.273c0-0.792 0.385-1.161 1.211-1.161 0.912 0 1.095 0.444 1.095 1.161v0.273h-2.306zM17.173 5.428h0.684c0.047 0 0.089-0.031 0.102-0.076l0.863-2.922c0 0 0.023-0.073 0.101-0.073s0.099 0.076 0.099 0.076l0.401 1.386h-0.55c-0.047 0-0.089 0.032-0.102 0.078l-0.154 0.549c-0.009 0.032-0.003 0.067 0.018 0.093s0.051 0.042 0.085 0.042h0.928l0.241 0.774c0.014 0.044 0.055 0.075 0.102 0.075h0.684c0.034 0 0.066-0.016 0.086-0.043s0.026-0.063 0.016-0.095l-1.253-3.974c-0.014-0.044-0.055-0.074-0.101-0.074h-0.993c-0.046 0-0.088 0.030-0.102 0.074l-1.253 3.974c-0.010 0.032-0.005 0.068 0.016 0.095s0.052 0.043 0.086 0.043zM20.661 3.030h0.342v1.621c0 0.557 0.293 0.839 0.87 0.839 0.164 0 0.443-0.038 0.625-0.101 0.048-0.017 0.078-0.066 0.071-0.117l-0.069-0.456c-0.004-0.030-0.021-0.056-0.046-0.073s-0.056-0.022-0.085-0.014c-0.111 0.027-0.217 0.043-0.3 0.043-0.156 0-0.225-0.068-0.225-0.219v-1.523h0.611c0.059 0 0.106-0.048 0.106-0.106v-0.475c0-0.059-0.048-0.107-0.106-0.107h-0.611v-0.733c0-0.031-0.013-0.060-0.037-0.081s-0.054-0.029-0.085-0.025l-0.629 0.088c-0.052 0.007-0.092 0.052-0.092 0.105v0.645h-0.342c-0.059 0-0.107 0.048-0.107 0.107v0.475c0 0.059 0.048 0.106 0.107 0.106zM23.035 5.428h0.629c0.059 0 0.107-0.048 0.107-0.106v-3.973c0-0.059-0.048-0.107-0.107-0.107h-0.629c-0.059 0-0.106 0.048-0.106 0.107v3.973c0 0.059 0.048 0.106 0.106 0.106zM26.543 5.321v-1.913c0-0.822-0.342-1.128-1.263-1.128-0.318 0-0.706 0.050-0.987 0.128-0.052 0.015-0.085 0.066-0.077 0.12l0.074 0.456c0.005 0.029 0.020 0.054 0.044 0.070s0.053 0.023 0.081 0.017c0.261-0.051 0.532-0.079 0.76-0.079 0.454 0 0.526 0.096 0.526 0.404v0.268h-0.673c-0.644 0-0.919 0.266-0.919 0.888 0 0.596 0.301 0.937 0.826 0.937 0.304 0 0.608-0.085 0.864-0.239l0.027 0.099c0.012 0.046 0.055 0.078 0.103 0.078h0.507c0.059-0 0.107-0.048 0.107-0.106zM25.702 4.667c-0.104 0.055-0.293 0.135-0.52 0.135-0.196 0-0.256-0.060-0.256-0.255 0-0.19 0.037-0.249 0.268-0.249h0.507v0.37zM27.904 4.783c-0.257 0-0.555-0.040-0.817-0.11-0.028-0.007-0.059-0.002-0.084 0.013s-0.042 0.042-0.047 0.071l-0.083 0.455c-0.010 0.053 0.021 0.104 0.072 0.12 0.285 0.093 0.695 0.157 0.996 0.157 0.936 0 1.128-0.392 1.128-0.98 0-0.65-0.116-0.77-0.951-0.991-0.39-0.101-0.39-0.104-0.39-0.319 0-0.144 0.014-0.213 0.336-0.213 0.22 0 0.545 0.038 0.754 0.074 0.029 0.005 0.058-0.002 0.082-0.019s0.039-0.043 0.042-0.072l0.059-0.479c0.007-0.054-0.029-0.104-0.082-0.117-0.241-0.056-0.577-0.092-0.855-0.092-0.967 0-1.165 0.365-1.165 0.912 0 0.602 0.112 0.805 0.853 0.985 0.488 0.117 0.488 0.204 0.488 0.349 0 0.19-0.016 0.256-0.336 0.256zM30.333 4.783c-0.257 0-0.555-0.040-0.816-0.11-0.029-0.007-0.059-0.002-0.085 0.013s-0.042 0.042-0.048 0.071l-0.083 0.455c-0.010 0.053 0.021 0.104 0.072 0.12 0.286 0.093 0.695 0.157 0.997 0.157 0.936 0 1.128-0.392 1.128-0.98 0-0.65-0.115-0.77-0.951-0.991-0.39-0.101-0.39-0.104-0.39-0.319 0-0.144 0.014-0.213 0.336-0.213 0.22 0 0.545 0.038 0.754 0.074 0.029 0.005 0.058-0.002 0.081-0.019s0.038-0.043 0.042-0.072l0.059-0.479c0.007-0.054-0.028-0.104-0.082-0.117-0.241-0.056-0.577-0.092-0.855-0.092-0.967 0-1.165 0.365-1.165 0.912 0 0.602 0.112 0.805 0.853 0.985 0.488 0.117 0.488 0.204 0.488 0.349 0 0.19-0.016 0.256-0.336 0.256zM32.582 1.234h-0.629c-0.059 0-0.107 0.048-0.107 0.106v0.558c0 0.059 0.048 0.106 0.107 0.106h0.629c0.059 0 0.106-0.048 0.106-0.106v-0.558c0-0.059-0.047-0.106-0.106-0.106zM32.582 2.342h-0.629c-0.059 0-0.107 0.048-0.107 0.107v2.873c0 0.059 0.048 0.106 0.107 0.106h0.629c0.059 0 0.106-0.048 0.106-0.106v-2.873c0-0.059-0.047-0.107-0.106-0.107zM33.962 3.664c-0.644 0-0.919 0.266-0.919 0.888 0 0.596 0.301 0.937 0.827 0.937 0.304 0 0.608-0.085 0.864-0.239l0.027 0.099c0.012 0.046 0.055 0.078 0.103 0.078h0.508c0.059 0 0.106-0.048 0.106-0.106v-1.913c0-0.822-0.343-1.128-1.263-1.128-0.318 0-0.705 0.050-0.986 0.128-0.053 0.015-0.085 0.066-0.077 0.12l0.074 0.456c0.004 0.029 0.020 0.054 0.044 0.070s0.053 0.023 0.081 0.017c0.261-0.051 0.531-0.079 0.76-0.079 0.454 0 0.526 0.096 0.526 0.404v0.268h-0.674zM34.636 4.667c-0.104 0.055-0.293 0.135-0.52 0.135-0.196 0-0.256-0.060-0.256-0.255 0-0.19 0.037-0.249 0.268-0.249h0.508v0.37zM36.018 5.428h0.629c0.059 0 0.107-0.048 0.107-0.106v-1.99c0.227-0.115 0.545-0.234 0.735-0.234 0.141 0 0.194 0.053 0.194 0.194v2.030c0 0.058 0.048 0.106 0.107 0.106h0.628c0.059 0 0.107-0.048 0.107-0.106v-2.11c0-0.618-0.243-0.931-0.722-0.931-0.333 0-0.787 0.115-1.17 0.295l-0.046-0.157c-0.013-0.045-0.055-0.077-0.102-0.077h-0.465c-0.059 0-0.107 0.048-0.107 0.107v2.873c0 0.059 0.048 0.106 0.107 0.106zM8.155 6.977c-3.766 0-6.83 3.064-6.83 6.83s3.064 6.83 6.83 6.83c3.766 0 6.829-3.064 6.829-6.83s-3.064-6.83-6.829-6.83zM8.515 19.949v-1.186l2.962-1.501c0.071-0.036 0.116-0.109 0.116-0.188v-0.679c0.277-0.096 0.462-0.372 0.431-0.676-0.037-0.354-0.354-0.612-0.708-0.576s-0.612 0.353-0.576 0.708c0.027 0.258 0.201 0.463 0.431 0.543v0.549l-2.655 1.345v-1.103l1.171-0.541c0.075-0.034 0.122-0.109 0.123-0.191l0.002-1.838 2.166-1.217c0.067-0.037 0.108-0.108 0.108-0.184v-0.513c0.277-0.096 0.462-0.372 0.431-0.676-0.037-0.355-0.354-0.612-0.708-0.576s-0.612 0.353-0.576 0.708c0.027 0.257 0.201 0.463 0.431 0.543v0.389l-2.166 1.217c-0.067 0.037-0.108 0.108-0.108 0.184l-0.002 1.827-0.871 0.403v-3.972l1.823-0.891c0.072-0.035 0.118-0.109 0.118-0.189v-0.679c0.277-0.096 0.462-0.371 0.431-0.676-0.037-0.354-0.354-0.612-0.708-0.575s-0.612 0.353-0.576 0.708c0.026 0.258 0.201 0.463 0.43 0.543v0.547l-1.518 0.742v-2.293c0.277-0.096 0.462-0.372 0.431-0.676-0.036-0.354-0.353-0.612-0.708-0.576s-0.612 0.354-0.575 0.708c0.026 0.257 0.201 0.463 0.43 0.543v3.74l-1.073-0.564v-1.699c0-0.066-0.031-0.128-0.083-0.168l-0.734-0.562c0.040-0.096 0.057-0.203 0.046-0.314-0.037-0.354-0.354-0.612-0.708-0.575s-0.612 0.353-0.576 0.708c0.037 0.354 0.354 0.612 0.708 0.576 0.090-0.009 0.174-0.037 0.248-0.079l0.676 0.518v1.722c0 0.079 0.044 0.151 0.113 0.187l1.383 0.726v1.374l-2.307-1.067 0.032-0.836c0.003-0.082-0.042-0.159-0.115-0.196l-1.057-0.542c0.016-0.068 0.022-0.139 0.014-0.213-0.037-0.355-0.354-0.612-0.708-0.576s-0.612 0.353-0.576 0.708c0.037 0.354 0.353 0.612 0.708 0.575 0.127-0.013 0.241-0.062 0.335-0.137l0.972 0.498-0.032 0.842c-0.003 0.085 0.045 0.164 0.122 0.2l2.612 1.208v0.981c-0.003 0.018-0.002 0.037 0 0.056v2.881c-0.222-0.002-0.442-0.017-0.658-0.042v-2.477c0-0.083-0.048-0.157-0.123-0.192l-1.639-0.754c0.004-0.042 0.004-0.085-0-0.129-0.037-0.354-0.353-0.612-0.708-0.575s-0.612 0.353-0.576 0.708c0.037 0.354 0.354 0.612 0.708 0.576 0.158-0.016 0.297-0.089 0.399-0.195l1.516 0.698v2.277c-2.849-0.537-5.011-3.043-5.011-6.045 0-3.393 2.761-6.154 6.154-6.154s6.154 2.761 6.154 6.154c0 3.272-2.568 5.955-5.794 6.142z"></path>
</svg>
