<?xml version="1.0" encoding="utf-8"?>
<!-- Generated by IcoMoon.io -->
<!DOCTYPE svg PUBLIC "-//W3C//DTD SVG 1.1//EN" "http://www.w3.org/Graphics/SVG/1.1/DTD/svg11.dtd">
<svg version="1.1" xmlns="http://www.w3.org/2000/svg" xmlns:xlink="http://www.w3.org/1999/xlink" width="68" height="24" viewBox="0 0 68 24">
<path fill="#444444" d="M3.589 6.275h1.338l-1.338 2.318-1.338-2.318zM6.266 6.275h1.338l-1.338 2.318-1.338-2.318zM8.943 6.275h1.338l-1.338 2.318-1.338-2.318zM11.619 6.275h1.338l-1.338 2.318-1.338-2.318zM12.958 8.593h-1.338l1.338-2.318 1.338 2.318zM10.281 8.593h-1.338l1.338-2.318 1.338 2.318zM7.604 8.593h-1.338l1.338-2.318 1.338 2.318zM4.928 8.593h-1.338l1.338-2.318 1.338 2.318zM6.936 16.705l0.669-1.159 1.338 2.317h-2.676zM8.275 14.387l0.669-1.159 1.338 2.318h-2.676zM9.613 12.069l0.669-1.159 1.338 2.318h-2.676zM10.952 9.751l0.669-1.159 1.338 2.318h-2.676zM13.628 9.75l-0.669 1.159-1.338-2.318h2.676zM12.289 12.069l-0.669 1.159-1.338-2.317h2.676zM10.951 14.387l-0.669 1.159-1.338-2.318h2.676zM9.613 16.704l-0.669 1.159-1.338-2.317h2.676zM1.582 9.752l0.669 1.159 1.338-2.317h-2.676zM2.921 12.070l0.669 1.159 1.338-2.318h-2.676zM4.259 14.388l0.669 1.159 1.338-2.317h-2.676zM6.935 14.389l-0.669-1.159-1.338 2.318 2.676-0zM5.597 12.071l-0.669-1.159-1.338 2.318 2.676-0zM4.259 9.752l-0.669-1.159-1.338 2.317h2.676zM2.92 7.434l-0.669-1.159-1.338 2.318h2.676zM5.597 16.704l0.669 1.159 1.338-2.317h-2.676zM18.372 10.602c-0.107 0.088-0.16 0.204-0.16 0.349s0.065 0.26 0.196 0.346c0.131 0.086 0.433 0.187 0.906 0.303s0.84 0.291 1.102 0.524c0.261 0.233 0.392 0.573 0.392 1.020s-0.168 0.809-0.503 1.087c-0.335 0.278-0.776 0.417-1.323 0.417-0.789 0-1.5-0.292-2.132-0.877l0.663-0.813c0.537 0.47 1.034 0.706 1.49 0.706 0.204 0 0.365-0.044 0.481-0.132s0.175-0.207 0.175-0.357-0.062-0.269-0.185-0.357c-0.124-0.088-0.368-0.177-0.735-0.267-0.58-0.138-1.004-0.317-1.273-0.538s-0.403-0.568-0.403-1.041c0-0.473 0.17-0.838 0.51-1.095s0.764-0.385 1.273-0.385c0.333 0 0.665 0.057 0.998 0.171s0.623 0.276 0.87 0.485l-0.563 0.813c-0.433-0.328-0.88-0.492-1.341-0.492-0.185 0-0.331 0.044-0.438 0.132zM26.679 10.052c0.349 0.297 0.524 0.754 0.524 1.369s-0.18 1.066-0.538 1.351c-0.359 0.285-0.907 0.428-1.644 0.428h-0.663v1.391h-1.112v-4.985h1.761c0.765 0 1.323 0.149 1.672 0.446zM25.863 12.014c0.133-0.15 0.2-0.368 0.2-0.656s-0.087-0.492-0.26-0.613c-0.174-0.121-0.443-0.182-0.809-0.182h-0.635v1.676h0.749c0.371-0 0.623-0.075 0.756-0.225zM33.158 9.607v0.991h-2.482v1.027h2.232v0.949h-2.232v1.034h2.56v0.984h-3.673v-4.985h3.594zM38.007 13.607c0.547 0 0.994-0.216 1.341-0.649l0.713 0.734c-0.566 0.637-1.232 0.956-2 0.956s-1.4-0.242-1.897-0.727c-0.497-0.485-0.745-1.097-0.745-1.836s0.253-1.356 0.76-1.851c0.506-0.494 1.126-0.741 1.858-0.741 0.817 0 1.502 0.311 2.054 0.934l-0.692 0.784c-0.352-0.437-0.789-0.656-1.312-0.656-0.418 0-0.776 0.137-1.073 0.41s-0.446 0.642-0.446 1.105 0.14 0.835 0.421 1.116c0.28 0.28 0.62 0.421 1.019 0.421zM44.539 10.569v4.022h-1.112v-4.022h-1.412v-0.963h3.936v0.963h-1.412zM52.298 11.261c0 0.799-0.316 1.315-0.948 1.547l1.262 1.783h-1.369l-1.105-1.59h-0.77v1.59h-1.112v-4.985h1.89c0.775 0 1.328 0.131 1.658 0.392s0.496 0.682 0.496 1.262zM50.957 11.853c0.138-0.124 0.207-0.32 0.207-0.588s-0.071-0.453-0.214-0.553c-0.143-0.1-0.392-0.15-0.749-0.15h-0.835v1.476h0.813c0.381 0 0.64-0.062 0.777-0.185zM56.248 13.304c0.185 0.231 0.435 0.346 0.749 0.346s0.562-0.115 0.745-0.346c0.183-0.231 0.274-0.546 0.274-0.945v-2.753h1.112v2.788c0 0.723-0.2 1.278-0.599 1.665s-0.91 0.581-1.533 0.581c-0.623 0-1.135-0.195-1.537-0.585s-0.603-0.944-0.603-1.662v-2.788h1.112v2.753c0 0.399 0.093 0.714 0.278 0.945zM66.239 11.454l-1.347 2.724h-0.663l-1.341-2.724v3.138h-1.113v-4.985h1.505l1.284 2.738 1.291-2.738h1.498v4.985h-1.113l-0-3.138z"></path>
</svg>
