<?xml version="1.0" encoding="utf-8"?>
<!-- Generated by IcoMoon.io -->
<!DOCTYPE svg PUBLIC "-//W3C//DTD SVG 1.1//EN" "http://www.w3.org/Graphics/SVG/1.1/DTD/svg11.dtd">
<svg version="1.1" xmlns="http://www.w3.org/2000/svg" xmlns:xlink="http://www.w3.org/1999/xlink" width="88" height="24" viewBox="0 0 88 24">
<path fill="#444444" d="M41.051 14.495c-1.044-0.269-1.044-0.28-1.044-0.853 0-0.384 0.038-0.569 0.898-0.569 0.589 0 1.458 0.103 2.017 0.198 0.077 0.013 0.155-0.006 0.218-0.052s0.103-0.117 0.113-0.194l0.158-1.282c0.018-0.144-0.076-0.279-0.218-0.312-0.646-0.151-1.544-0.248-2.288-0.248-2.587 0-3.116 0.976-3.116 2.442 0 1.611 0.299 2.153 2.282 2.636 1.305 0.314 1.305 0.547 1.305 0.934 0 0.509-0.044 0.684-0.898 0.684-0.688 0-1.484-0.107-2.184-0.294-0.077-0.020-0.159-0.008-0.226 0.035s-0.113 0.111-0.128 0.189l-0.222 1.216c-0.026 0.14 0.056 0.278 0.192 0.322 0.764 0.247 1.86 0.421 2.667 0.421 2.505 0 3.018-1.048 3.018-2.623 0-1.739-0.309-2.061-2.543-2.652zM49.553 11.184c-0.821 0-1.925 0.277-2.807 0.699v-3.193c0-0.157-0.127-0.285-0.285-0.285h-1.682c-0.157 0-0.285 0.127-0.285 0.285v10.631c0 0.157 0.128 0.285 0.285 0.285h1.682c0.157 0 0.285-0.127 0.285-0.285v-5.324c0.606-0.308 1.457-0.627 1.967-0.627 0.379 0 0.52 0.141 0.52 0.52v5.431c0 0.158 0.128 0.285 0.285 0.285h1.682c0.157 0 0.285-0.127 0.285-0.285v-5.645c0-1.653-0.65-2.491-1.932-2.491zM29.551 17.966c-0.011-0.079-0.056-0.15-0.123-0.194s-0.148-0.058-0.226-0.039c-0.297 0.074-0.582 0.114-0.801 0.114-0.417 0-0.602-0.181-0.602-0.586v-4.073h1.633c0.158 0 0.285-0.128 0.285-0.285v-1.271c0-0.158-0.127-0.285-0.285-0.285l-1.633 0v-1.962c0-0.082-0.036-0.16-0.098-0.214s-0.146-0.079-0.227-0.068l-1.681 0.235c-0.14 0.019-0.245 0.139-0.245 0.281v1.728h-0.917c-0.157 0-0.284 0.127-0.284 0.284v1.271c0 0.157 0.127 0.285 0.284 0.285h0.917v4.337c0 1.489 0.783 2.244 2.326 2.244 0.439 0 1.185-0.101 1.674-0.27 0.13-0.045 0.208-0.176 0.187-0.311l-0.183-1.221zM20.993 13.014c-1.832-0.446-1.832-0.446-1.832-1.626 0-0.888 0.19-1.128 1.523-1.128 0.834 0 1.831 0.106 2.733 0.29 0.077 0.016 0.158-0.001 0.222-0.047s0.107-0.116 0.117-0.195l0.188-1.422c0.019-0.147-0.077-0.284-0.222-0.316-0.982-0.211-2.102-0.332-3.071-0.332-2.704 0-3.807 0.898-3.807 3.1 0 1.144 0.088 1.91 0.541 2.438 0.41 0.478 1.105 0.777 2.566 1.103 1.911 0.414 1.911 0.459 1.911 1.625 0 0.994-0.191 1.244-1.622 1.244-0.933 0-1.824-0.141-2.892-0.455-0.076-0.022-0.157-0.012-0.225 0.028s-0.116 0.107-0.133 0.184l-0.295 1.329c-0.030 0.134 0.040 0.27 0.166 0.323 0.692 0.295 2.035 0.612 3.346 0.612 3.339 0 3.972-1.147 3.972-3.265 0-1.091-0.023-1.787-0.472-2.321-0.46-0.546-1.309-0.833-2.714-1.17zM33.455 11.184c-0.852 0-1.887 0.134-2.639 0.342-0.14 0.039-0.229 0.177-0.205 0.32l0.197 1.221c0.012 0.076 0.055 0.144 0.118 0.188s0.142 0.061 0.218 0.046c0.699-0.136 1.421-0.211 2.033-0.211 1.213 0 1.407 0.256 1.407 1.079v0.717h-1.802c-1.722 0-2.458 0.711-2.458 2.376 0 1.594 0.806 2.508 2.211 2.508 0.813 0 1.626-0.226 2.31-0.638l0.072 0.264c0.034 0.124 0.146 0.21 0.275 0.21h1.359c0.158 0 0.285-0.127 0.285-0.285v-5.119c0-2.2-0.917-3.018-3.379-3.018zM34.582 17.569c-0.279 0.149-0.783 0.361-1.391 0.361-0.525 0-0.684-0.16-0.684-0.684 0-0.509 0.099-0.668 0.717-0.668h1.358v0.99zM27.881 4.796c-0.257 0-0.554-0.040-0.816-0.11-0.029-0.008-0.059-0.003-0.084 0.013s-0.042 0.041-0.048 0.071l-0.083 0.454c-0.010 0.053 0.021 0.104 0.072 0.12 0.285 0.093 0.695 0.157 0.996 0.157 0.936 0 1.127-0.392 1.127-0.98 0-0.649-0.115-0.77-0.95-0.991-0.39-0.1-0.39-0.105-0.39-0.318 0-0.144 0.014-0.213 0.335-0.213 0.22 0 0.545 0.038 0.753 0.074 0.029 0.005 0.058-0.002 0.081-0.020s0.039-0.043 0.042-0.072l0.059-0.479c0.007-0.054-0.028-0.104-0.081-0.117-0.241-0.056-0.576-0.092-0.854-0.092-0.966 0-1.164 0.365-1.164 0.912 0 0.602 0.112 0.804 0.852 0.985 0.488 0.117 0.488 0.204 0.488 0.349 0 0.19-0.016 0.255-0.335 0.255zM20.642 3.044h0.342v1.62c0 0.556 0.292 0.838 0.869 0.838 0.164 0 0.443-0.038 0.625-0.101 0.048-0.017 0.078-0.066 0.070-0.116l-0.069-0.456c-0.005-0.030-0.021-0.056-0.046-0.073s-0.056-0.022-0.085-0.015c-0.111 0.027-0.217 0.043-0.299 0.043-0.155 0-0.225-0.067-0.225-0.219v-1.521h0.61c0.059 0 0.106-0.048 0.106-0.106v-0.474c0-0.059-0.048-0.106-0.106-0.106h-0.61v-0.733c0-0.031-0.013-0.060-0.037-0.080s-0.054-0.029-0.085-0.025l-0.628 0.088c-0.052 0.007-0.092 0.052-0.092 0.105v0.645h-0.342c-0.059 0-0.106 0.048-0.106 0.106v0.474c0 0.059 0.048 0.106 0.106 0.106zM23.015 5.441l0.628 0c0.059 0 0.106-0.048 0.106-0.106v-4.055c0-0.059-0.047-0.106-0.106-0.106h-0.628c-0.059 0-0.107 0.048-0.107 0.106v4.055c0 0.059 0.048 0.106 0.107 0.106zM17.157 5.441h0.683c0.047 0 0.089-0.031 0.102-0.076l0.862-2.92c0 0 0.023-0.073 0.101-0.073 0.079 0 0.099 0.076 0.099 0.076l0.4 1.385h-0.537c-0.048 0-0.089 0.032-0.102 0.078l-0.154 0.548c-0.009 0.032-0.002 0.066 0.018 0.093s0.051 0.042 0.085 0.042h0.915l0.241 0.773c0.014 0.044 0.055 0.075 0.102 0.075h0.684c0.034 0 0.066-0.016 0.086-0.043s0.026-0.063 0.016-0.095l-1.252-3.971c-0.014-0.044-0.055-0.074-0.101-0.074h-0.992c-0.046 0-0.088 0.030-0.102 0.074l-1.252 3.971c-0.010 0.032-0.004 0.068 0.016 0.095s0.052 0.043 0.086 0.043zM32.555 1.172h-0.628c-0.059 0-0.106 0.048-0.106 0.106v0.558c0 0.059 0.048 0.106 0.106 0.106h0.628c0.059 0 0.107-0.048 0.107-0.106v-0.558c0-0.059-0.048-0.106-0.107-0.106zM38.386 5.441c0.058 0 0.106-0.048 0.106-0.106v-2.109c0-0.617-0.243-0.93-0.722-0.93-0.333 0-0.786 0.115-1.17 0.295l-0.046-0.157c-0.013-0.045-0.055-0.076-0.102-0.076h-0.465c-0.059 0-0.107 0.048-0.107 0.106v2.871c0 0.059 0.048 0.106 0.107 0.106h0.628c0.059 0 0.106-0.048 0.106-0.106v-1.989c0.226-0.115 0.544-0.234 0.735-0.234 0.141 0 0.194 0.053 0.194 0.194v2.029c0 0.059 0.048 0.106 0.106 0.106h0.628zM34.185 2.295c-0.317 0-0.704 0.050-0.985 0.128-0.052 0.014-0.085 0.066-0.076 0.119l0.073 0.456c0.005 0.028 0.021 0.054 0.044 0.070s0.053 0.023 0.081 0.017c0.261-0.051 0.531-0.079 0.758-0.079 0.453 0 0.525 0.096 0.525 0.403v0.268h-0.672c-0.643 0-0.918 0.265-0.918 0.888 0 0.595 0.301 0.937 0.826 0.937 0.302 0 0.606-0.084 0.862-0.238l0.027 0.099c0.013 0.046 0.055 0.078 0.103 0.078h0.507c0.059 0 0.107-0.048 0.107-0.106v-1.912c0-0.822-0.342-1.127-1.262-1.127zM34.606 4.68c-0.104 0.056-0.293 0.135-0.519 0.135-0.195 0-0.255-0.060-0.255-0.256 0-0.19 0.037-0.249 0.267-0.249h0.507v0.37zM32.555 2.357h-0.628c-0.059 0-0.106 0.048-0.106 0.106v2.871c0 0.059 0.048 0.106 0.106 0.106h0.628c0.059 0 0.107-0.048 0.107-0.106v-2.871c0-0.059-0.048-0.106-0.107-0.106zM30.522 3.532c-0.39-0.1-0.39-0.104-0.39-0.318 0-0.144 0.014-0.213 0.335-0.213 0.22 0 0.545 0.039 0.753 0.074 0.029 0.005 0.058-0.002 0.081-0.020s0.039-0.043 0.042-0.072l0.059-0.479c0.007-0.054-0.028-0.104-0.081-0.117-0.241-0.056-0.577-0.092-0.855-0.092-0.966 0-1.164 0.365-1.164 0.912 0 0.602 0.112 0.804 0.852 0.985 0.488 0.117 0.488 0.204 0.488 0.349 0 0.19-0.016 0.255-0.335 0.255-0.257 0-0.554-0.040-0.816-0.11-0.029-0.008-0.059-0.003-0.084 0.013s-0.042 0.041-0.048 0.071l-0.083 0.454c-0.010 0.053 0.021 0.104 0.072 0.12 0.285 0.093 0.695 0.157 0.996 0.157 0.936 0 1.127-0.392 1.127-0.98-0-0.649-0.116-0.77-0.95-0.991zM25.258 2.295c-0.318 0-0.705 0.050-0.986 0.128-0.052 0.014-0.086 0.066-0.077 0.119l0.073 0.456c0.005 0.028 0.021 0.054 0.044 0.070s0.053 0.023 0.081 0.017c0.261-0.051 0.531-0.079 0.759-0.079 0.453 0 0.526 0.096 0.526 0.403v0.268h-0.673c-0.644 0-0.918 0.265-0.918 0.887 0 0.595 0.301 0.937 0.826 0.937 0.304 0 0.608-0.084 0.863-0.238l0.027 0.099c0.013 0.046 0.055 0.078 0.103 0.078h0.507c0.059 0 0.106-0.048 0.106-0.106v-1.912c0-0.822-0.342-1.127-1.262-1.127zM25.68 4.68c-0.104 0.056-0.293 0.135-0.52 0.135-0.196 0-0.255-0.060-0.255-0.256 0-0.19 0.037-0.249 0.268-0.249h0.507v0.37zM9.751 14.019c0-0.846-0.686-1.532-1.532-1.532s-1.532 0.686-1.532 1.532c0 0.846 0.686 1.532 1.532 1.532s1.532-0.686 1.532-1.532zM13.174 17.851l-0.797-0.46c-0.1-0.058-0.227-0.037-0.304 0.049-0.98 1.103-2.385 1.736-3.854 1.736s-2.874-0.633-3.855-1.736c-0.077-0.087-0.204-0.107-0.304-0.049l-0.797 0.46c-0.062 0.036-0.106 0.098-0.118 0.169s0.007 0.144 0.053 0.199c1.251 1.493 3.081 2.349 5.021 2.349s3.769-0.857 5.020-2.349c0.046-0.055 0.066-0.128 0.053-0.199s-0.056-0.133-0.118-0.169zM9.010 17.828c0.019 0 0.039-0.002 0.058-0.007 1.766-0.394 3.048-1.994 3.048-3.803 0-0.397-0.060-0.79-0.179-1.167-0.024-0.077-0.082-0.139-0.157-0.168s-0.16-0.023-0.23 0.018l-0.475 0.274c-0.105 0.061-0.156 0.184-0.124 0.3 0.066 0.243 0.1 0.493 0.1 0.743 0 1.284-0.867 2.41-2.109 2.738-0.117 0.031-0.198 0.137-0.198 0.257v0.547c0 0.081 0.037 0.157 0.1 0.208 0.048 0.038 0.107 0.058 0.167 0.058zM8.219 10.12c-1.085 0-2.13 0.46-2.867 1.262-0.055 0.059-0.080 0.141-0.067 0.22s0.060 0.15 0.13 0.19l0.474 0.274c0.042 0.024 0.088 0.036 0.133 0.036 0.069 0 0.138-0.027 0.189-0.079 0.537-0.54 1.25-0.838 2.008-0.838s1.472 0.297 2.008 0.838c0.085 0.086 0.217 0.103 0.322 0.043l0.474-0.274c0.070-0.041 0.118-0.111 0.13-0.19s-0.012-0.161-0.067-0.22c-0.737-0.802-1.782-1.262-2.867-1.262zM3.327 15.647c-0.176-0.526-0.265-1.074-0.265-1.628 0-2.439 1.734-4.565 4.121-5.054 0.114-0.023 0.195-0.123 0.195-0.239v-0.918c0-0.072-0.032-0.14-0.087-0.187s-0.128-0.066-0.199-0.054c-3.141 0.548-5.422 3.261-5.423 6.452 0 0.773 0.134 1.53 0.398 2.25 0.025 0.068 0.078 0.121 0.146 0.145 0.027 0.010 0.055 0.015 0.083 0.015 0.042 0 0.085-0.011 0.122-0.033l0.798-0.461c0.1-0.058 0.146-0.179 0.109-0.289zM5.362 12.975l-0.475-0.274c-0.070-0.040-0.155-0.047-0.23-0.017s-0.133 0.091-0.157 0.168c-0.119 0.377-0.179 0.77-0.179 1.167 0 1.809 1.282 3.409 3.048 3.803 0.019 0.004 0.039 0.007 0.058 0.007 0.060 0 0.119-0.020 0.167-0.059 0.063-0.051 0.1-0.127 0.1-0.208v-0.547c0-0.121-0.081-0.227-0.198-0.257-1.242-0.328-2.109-1.455-2.109-2.738 0-0.25 0.034-0.5 0.1-0.743 0.032-0.117-0.019-0.24-0.124-0.3zM9.346 7.568c-0.071-0.012-0.144 0.007-0.199 0.054s-0.087 0.115-0.087 0.187v0.918c0 0.116 0.082 0.216 0.195 0.239 2.388 0.489 4.121 2.615 4.121 5.054 0 0.553-0.089 1.101-0.265 1.628-0.037 0.11 0.009 0.231 0.109 0.289l0.798 0.461c0.038 0.022 0.080 0.033 0.122 0.033 0.028 0 0.056-0.005 0.083-0.015 0.068-0.024 0.121-0.078 0.146-0.145 0.264-0.72 0.398-1.477 0.398-2.25 0-3.191-2.28-5.904-5.423-6.452z"></path>
</svg>
