<?xml version="1.0" encoding="utf-8"?>
<!-- Generated by IcoMoon.io -->
<!DOCTYPE svg PUBLIC "-//W3C//DTD SVG 1.1//EN" "http://www.w3.org/Graphics/SVG/1.1/DTD/svg11.dtd">
<svg version="1.1" xmlns="http://www.w3.org/2000/svg" xmlns:xlink="http://www.w3.org/1999/xlink" width="88" height="24" viewBox="0 0 88 24">
<path fill="#444444" d="M12.549 7.596l-1.067 2.213c-1.178-0.684-2.659-1.163-3.567-1.163-0.733 0-1.226 0.271-1.226 0.813 0 1.927 5.892 0.827 5.892 4.857 0 2.229-1.975 3.408-4.458 3.408-1.863 0-3.774-0.701-5.096-1.784l1.098-2.181c1.147 1.002 2.867 1.671 4.029 1.671 0.891 0 1.449-0.335 1.449-0.971 0-1.975-5.892-0.796-5.892-4.746 0-2.054 1.767-3.36 4.443-3.36 1.609 0 3.248 0.494 4.395 1.242zM17.332 17.628l-4.331-11.147h3.026l2.851 8.201 2.851-8.201h2.914l-4.379 11.147h-2.93zM33.533 17.628l-5.128-6.863v6.863h-2.659v-11.147h2.501l5.143 6.88v-6.88h2.644v11.147h-2.5z"></path>
</svg>
