<?xml version="1.0" encoding="utf-8"?>
<!-- Generated by IcoMoon.io -->
<!DOCTYPE svg PUBLIC "-//W3C//DTD SVG 1.1//EN" "http://www.w3.org/Graphics/SVG/1.1/DTD/svg11.dtd">
<svg version="1.1" xmlns="http://www.w3.org/2000/svg" xmlns:xlink="http://www.w3.org/1999/xlink" width="69" height="24" viewBox="0 0 69 24">
<path fill="#444444" d="M11.685 11.053c0 0 1.701-4.968 7.283-5.567 8.246-0.885 8.636-2.204 9.317-4.118-0.703 4.823-3.718 6.777-10.532 7.414-5.553 0.519-6.068 2.271-6.068 2.271zM10.829 14.775c0 0-0.219-3.545 4.891-3.953 5.934-0.474 7.91-1.234 8.809-2.291-0.65 3.365-2.966 5.36-7.85 5.145-5.546-0.244-5.85 1.099-5.85 1.099zM19.588 15.117c-1.221 0.644-3.198 0.2-5.196 0.266-2.929 0.098-2.909 0.955-2.909 0.955s2.487 4.53 8.105-1.221zM0.748 9.424v-1.72h8.727l-5.347 8.614h5.308v1.72h-8.746l5.347-8.614h-5.289zM35.44 11.159c0 1.89-1.937 3.439-4.3 3.439-0.194 0-2.595 0-2.595 0v3.44h-2.15v-10.334h4.745c2.363 0 4.3 1.549 4.3 3.455zM33.291 11.159c0-0.961-0.968-1.735-2.15-1.735-0.232 0-2.595 0-2.595 0v3.455h2.595c1.182 0 2.15-0.775 2.15-1.72zM43.214 11.5v-3.796h2.169v10.334h-2.169v-4.818h-4.3v4.818h-2.15v-10.334h2.15v3.796h4.3zM46.503 7.704h2.479l2.905 4.245 2.905-4.245h2.479l-4.319 6.197v4.137h-2.15v-4.137l-4.3-6.197zM67.835 18.038h-2.634l-3.099-3.439c-0.523 0-1.588 0-1.588 0v3.439h-2.15v-10.334h4.087c2.363 0 4.299 1.549 4.299 3.455 0 1.317-0.93 2.495-2.343 3.052l3.428 3.827zM64.6 11.159c0-0.961-0.968-1.735-2.15-1.735-0.213 0-1.937 0-1.937 0v3.455h1.937c1.181 0 2.15-0.775 2.15-1.72z"></path>
</svg>
