<?xml version="1.0" encoding="utf-8"?>
<!-- Generator: Adobe Illustrator 16.0.0, SVG Export Plug-In . SVG Version: 6.00 Build 0)  -->
<!DOCTYPE svg PUBLIC "-//W3C//DTD SVG 1.1//EN" "http://www.w3.org/Graphics/SVG/1.1/DTD/svg11.dtd">
<svg version="1.1" id="Layer_1" xmlns="http://www.w3.org/2000/svg" xmlns:xlink="http://www.w3.org/1999/xlink" x="0px" y="0px"
	 width="16px" height="16px" viewBox="0 0 16 16" enable-background="new 0 0 16 16" xml:space="preserve">
<polygon fill="#39404A" points="1.843,1.333 1.843,1.335 1.073,2.667 0.303,4 1.073,5.335 1.843,6.667 2.613,8.001 3.383,9.332 
	3.383,9.336 4.153,10.667 4.921,12.001 4.923,11.999 4.925,12.001 5.692,13.333 6.461,14.667 9.541,14.667 9.541,14.663 
	10.311,13.335 11.081,12.001 8.001,11.999 7.231,10.669 5.692,8.001 4.921,6.669 4.921,6.667 4.151,5.335 3.381,4 12.619,4 
	11.851,5.333 11.081,6.666 9.541,9.332 8.773,10.665 8.003,11.999 11.081,11.999 11.851,10.665 12.619,9.332 12.622,9.332 
	12.622,9.33 13.393,8 14.158,6.666 14.162,6.666 14.93,5.332 15.697,4 15.699,3.999 15.697,3.999 14.93,2.667 14.158,1.333 "/>
</svg>
